<?xml version="1.0" encoding="utf-8"?>
<!-- Generator: Adobe Illustrator 17.0.0, SVG Export Plug-In . SVG Version: 6.00 Build 0)  -->
<!DOCTYPE svg PUBLIC "-//W3C//DTD SVG 1.1//EN" "http://www.w3.org/Graphics/SVG/1.1/DTD/svg11.dtd">
<svg version="1.1" id="Слой_1" xmlns="http://www.w3.org/2000/svg" xmlns:xlink="http://www.w3.org/1999/xlink" x="0px" y="0px"
	 width="114.5px" height="106.532px" viewBox="0 0 114.5 106.532" enable-background="new 0 0 114.5 106.532" xml:space="preserve">
<g>
	<path fill="#194596" d="M45.536,68.247h24.053c1.678,0,1.68-2.608,0-2.608H45.536
		C43.858,65.639,43.855,68.247,45.536,68.247"/>
	<path fill="none" stroke="#194596" stroke-width="0.5" stroke-miterlimit="10" d="M45.536,68.247
		h24.053c1.678,0,1.68-2.608,0-2.608H45.536C43.858,65.639,43.855,68.247,45.536,68.247z"/>
	<path fill="#194596" d="M104.252,106.282H10.248c-5.512,0-9.996-4.484-9.996-9.996V29.104
		c0-5.511,4.484-9.996,9.996-9.996h94.004c5.512,0,9.996,4.485,9.996,9.996v67.182C114.248,101.798,109.764,106.282,104.252,106.282
		 M10.248,21.716c-4.074,0-7.388,3.314-7.388,7.388v67.182c0,4.074,3.314,7.389,7.388,7.389h94.004c4.074,0,7.389-3.315,7.389-7.389
		V29.104c0-4.074-3.315-7.388-7.389-7.388H10.248z"/>
	<path fill="none" stroke="#194596" stroke-width="0.5" stroke-miterlimit="10" d="M104.252,106.282
		H10.248c-5.512,0-9.996-4.484-9.996-9.996V29.104c0-5.511,4.484-9.996,9.996-9.996h94.004c5.512,0,9.996,4.485,9.996,9.996v67.182
		C114.248,101.798,109.764,106.282,104.252,106.282z M10.248,21.716c-4.074,0-7.388,3.314-7.388,7.388v67.182
		c0,4.074,3.314,7.389,7.388,7.389h94.004c4.074,0,7.389-3.315,7.389-7.389V29.104c0-4.074-3.315-7.388-7.389-7.388H10.248z"/>
	<path fill="#194596" d="M18.189,72.819c-6.028,0-14.947,1.136-15.33-7.388
		c-0.075-1.672-2.683-1.681-2.608,0c0.229,5.098,3.819,9.414,9.032,9.937c2.928,0.293,5.965,0.059,8.906,0.059
		C19.867,75.427,19.87,72.819,18.189,72.819"/>
	<path fill="none" stroke="#194596" stroke-width="0.5" stroke-miterlimit="10" d="M18.189,72.819
		c-6.028,0-14.947,1.136-15.33-7.388c-0.075-1.672-2.683-1.681-2.608,0c0.229,5.098,3.819,9.414,9.032,9.937
		c2.928,0.293,5.965,0.059,8.906,0.059C19.867,75.427,19.87,72.819,18.189,72.819z"/>
	<path fill="#194596" d="M82.037,72.819H38.463h-6.344c-1.678,0-1.681,2.608,0,2.608h43.574h6.344
		C83.715,75.427,83.718,72.819,82.037,72.819"/>
	<path fill="none" stroke="#194596" stroke-width="0.5" stroke-miterlimit="10" d="M82.037,72.819
		H38.463h-6.344c-1.678,0-1.681,2.608,0,2.608h43.574h6.344C83.715,75.427,83.718,72.819,82.037,72.819z"/>
	<path fill="#194596" d="M111.641,65.431c-0.192,4.275-3.328,7.251-7.564,7.388
		c-1.844,0.06-3.699,0-5.545,0c-1.678,0-1.681,2.608,0,2.608c2.831,0,5.999,0.38,8.739-0.474c4.237-1.32,6.784-5.209,6.978-9.522
		C114.324,63.753,111.716,63.757,111.641,65.431"/>
	<path fill="none" stroke="#194596" stroke-width="0.5" stroke-miterlimit="10" d="M111.641,65.431
		c-0.192,4.275-3.328,7.251-7.564,7.388c-1.844,0.06-3.699,0-5.545,0c-1.678,0-1.681,2.608,0,2.608c2.831,0,5.999,0.38,8.739-0.474
		c4.237-1.32,6.784-5.209,6.978-9.522C114.324,63.753,111.716,63.757,111.641,65.431z"/>
	<path fill="#194596" d="M80.72,20.412h-2.608V10.246c0-4.074-3.739-7.388-8.335-7.388H45.855
		c-4.596,0-8.335,3.314-8.335,7.388v10.166h-2.608V10.246c0-5.512,4.91-9.996,10.943-9.996h23.922
		c6.034,0,10.943,4.484,10.943,9.996V20.412z"/>
	<path fill="none" stroke="#194596" stroke-width="0.5" stroke-miterlimit="10" d="M80.72,20.412h-2.608
		V10.246c0-4.074-3.739-7.388-8.335-7.388H45.855c-4.596,0-8.335,3.314-8.335,7.388v10.166h-2.608V10.246
		c0-5.512,4.91-9.996,10.943-9.996h23.922c6.034,0,10.943,4.484,10.943,9.996V20.412z"/>
	<path fill="#194596" d="M74.473,21.376h-2.608V14.15c0-2.688-2.488-4.875-5.547-4.875H49.314
		c-3.058,0-5.547,2.187-5.547,4.875v7.226h-2.608V14.15c0-4.126,3.659-7.482,8.155-7.482h17.004c4.496,0,8.155,3.356,8.155,7.482
		V21.376z"/>
	<path fill="none" stroke="#194596" stroke-width="0.5" stroke-miterlimit="10" d="M74.473,21.376
		h-2.608V14.15c0-2.688-2.488-4.875-5.547-4.875H49.314c-3.058,0-5.547,2.187-5.547,4.875v7.226h-2.608V14.15
		c0-4.126,3.659-7.482,8.155-7.482h17.004c4.496,0,8.155,3.356,8.155,7.482V21.376z"/>
	<path fill="#194596" d="M23.625,88.928c-3.265,0-5.922-2.656-5.922-5.922V65.653
		c0-3.266,2.657-5.923,5.922-5.923c3.266,0,5.923,2.657,5.923,5.923v17.353C29.548,86.272,26.891,88.928,23.625,88.928
		 M23.625,62.338c-1.828,0-3.314,1.487-3.314,3.315v17.353c0,1.828,1.486,3.315,3.314,3.315c1.828,0,3.315-1.487,3.315-3.315V65.653
		C26.94,63.825,25.453,62.338,23.625,62.338"/>
	<path fill="none" stroke="#194596" stroke-width="0.5" stroke-miterlimit="10" d="M23.625,88.928
		c-3.265,0-5.922-2.656-5.922-5.922V65.653c0-3.266,2.657-5.923,5.922-5.923c3.266,0,5.923,2.657,5.923,5.923v17.353
		C29.548,86.272,26.891,88.928,23.625,88.928z M23.625,62.338c-1.828,0-3.314,1.487-3.314,3.315v17.353
		c0,1.828,1.486,3.315,3.314,3.315c1.828,0,3.315-1.487,3.315-3.315V65.653C26.94,63.825,25.453,62.338,23.625,62.338z"/>
	<path fill="#194596" d="M23.625,79.859c-3.265,0-5.922-2.657-5.922-5.922h2.608
		c0,1.827,1.486,3.314,3.314,3.314c1.828,0,3.315-1.487,3.315-3.314h2.608C29.548,77.202,26.891,79.859,23.625,79.859"/>
	<path fill="none" stroke="#194596" stroke-width="0.5" stroke-miterlimit="10" d="M23.625,79.859
		c-3.265,0-5.922-2.657-5.922-5.922h2.608c0,1.827,1.486,3.314,3.314,3.314c1.828,0,3.315-1.487,3.315-3.314h2.608
		C29.548,77.202,26.891,79.859,23.625,79.859z"/>
	<path fill="#194596" d="M90.284,88.928c-3.265,0-5.922-2.656-5.922-5.922V65.653
		c0-3.266,2.657-5.923,5.922-5.923c3.265,0,5.922,2.657,5.922,5.923v17.353C96.206,86.272,93.549,88.928,90.284,88.928
		 M90.284,62.338c-1.828,0-3.314,1.487-3.314,3.315v17.353c0,1.828,1.486,3.315,3.314,3.315c1.828,0,3.314-1.487,3.314-3.315V65.653
		C93.598,63.825,92.112,62.338,90.284,62.338"/>
	<path fill="none" stroke="#194596" stroke-width="0.5" stroke-miterlimit="10" d="M90.284,88.928
		c-3.265,0-5.922-2.656-5.922-5.922V65.653c0-3.266,2.657-5.923,5.922-5.923c3.265,0,5.922,2.657,5.922,5.923v17.353
		C96.206,86.272,93.549,88.928,90.284,88.928z M90.284,62.338c-1.828,0-3.314,1.487-3.314,3.315v17.353
		c0,1.828,1.486,3.315,3.314,3.315c1.828,0,3.314-1.487,3.314-3.315V65.653C93.598,63.825,92.112,62.338,90.284,62.338z"/>
	<path fill="#194596" d="M90.284,79.859c-3.265,0-5.922-2.657-5.922-5.922h2.608
		c0,1.827,1.486,3.314,3.314,3.314c1.828,0,3.314-1.487,3.314-3.314h2.608C96.206,77.202,93.549,79.859,90.284,79.859"/>
	<path fill="none" stroke="#194596" stroke-width="0.5" stroke-miterlimit="10" d="M90.284,79.859
		c-3.265,0-5.922-2.657-5.922-5.922h2.608c0,1.827,1.486,3.314,3.314,3.314c1.828,0,3.314-1.487,3.314-3.314h2.608
		C96.206,77.202,93.549,79.859,90.284,79.859z"/>
</g>
</svg>
