<?xml version="1.0" encoding="utf-8"?>
<!-- Generator: Adobe Illustrator 17.0.0, SVG Export Plug-In . SVG Version: 6.00 Build 0)  -->
<!DOCTYPE svg PUBLIC "-//W3C//DTD SVG 1.1//EN" "http://www.w3.org/Graphics/SVG/1.1/DTD/svg11.dtd">
<svg version="1.1" id="Слой_1" xmlns="http://www.w3.org/2000/svg" xmlns:xlink="http://www.w3.org/1999/xlink" x="0px" y="0px"
	 width="185.594px" height="185.619px" viewBox="0 0 185.594 185.619" enable-background="new 0 0 185.594 185.619"
	 xml:space="preserve">
<g>
	<path fill="#f8f9f9" d="M181.094,92.8c-0.279,36.814-23.474,70.623-58.325,83.147
		c-34.863,12.529-74.625,1.593-98.248-26.899C0.893,120.549-2.121,78.938,16.954,47.255c19.002-31.562,56.75-48.369,92.928-41.177
		C151.02,14.256,180.778,51.057,181.094,92.8c0.022,2.894,4.522,2.901,4.5,0c-0.293-38.692-24.572-73.86-61.006-87.258
		C87.772-7.995,45.124,3.892,20.515,34.378C-3.85,64.563-6.882,108.023,13.406,141.176c20.209,33.025,59.717,50.23,97.672,42.685
		c43.076-8.563,74.186-47.44,74.516-91.061C185.616,89.904,181.116,89.901,181.094,92.8"/>
	<path fill="#f8f9f9" d="M171.807,93.529c-0.278,32.995-21.058,63.315-52.35,74.463
		c-31.054,11.063-66.341,1.427-87.506-23.812c-21.459-25.59-24.186-63.19-6.865-91.696c17.146-28.22,51.041-43.081,83.421-36.478
		C145.149,23.478,171.493,56.345,171.807,93.529c0.024,2.894,4.524,2.901,4.5,0c-0.294-34.875-22.157-66.543-55.028-78.579
		C88.524,2.957,50.534,13.314,28.35,40.195c-22.387,27.128-25.458,66.518-7.15,96.65c18.11,29.805,53.642,45.377,87.84,38.676
		c38.886-7.619,66.935-42.661,67.267-81.992C176.331,90.633,171.831,90.63,171.807,93.529"/>
	<path fill="#f8f9f9" d="M95.13,37.186v-16c0-3-5-3-5,0v16C90.13,40.186,95.13,40.186,95.13,37.186
		C95.13,37.186,95.13,40.186,95.13,37.186"/>
	<path fill="#f8f9f9" d="M95.13,74.186v-23c0-3-5-3-5,0v23C90.13,76.186,95.13,76.186,95.13,74.186
		C95.13,74.186,95.13,76.186,95.13,74.186"/>
	<path fill="#f8f9f9" d="M83.031,77.973L67.132,62.074c-2.051-2.051-5.233,1.131-3.182,3.182
		c5.3,5.3,10.599,10.599,15.899,15.899C81.899,83.205,85.082,80.024,83.031,77.973"/>
	<path fill="#f8f9f9" d="M122.154,117.095c-5.3-5.3-10.599-10.599-15.899-15.899
		c-2.051-2.051-5.233,1.131-3.182,3.182l15.899,15.899C121.022,122.327,124.205,119.146,122.154,117.095"/>
	<path fill="#f8f9f9" d="M95.13,133.186v-23c0-3-5-3-5,0v23C90.13,136.186,95.13,136.186,95.13,133.186
		C95.13,133.186,95.13,136.186,95.13,133.186"/>
	<path fill="#f8f9f9" d="M90.13,146.186v16c0,3,5,3,5,0v-16C95.13,143.186,90.13,143.186,90.13,146.186
		C90.13,146.186,90.13,143.186,90.13,146.186"/>
	<path fill="#f8f9f9" d="M22.13,96.186h17c3,0,3-4,0-4h-17C20.13,92.186,20.13,96.186,22.13,96.186
		C22.13,96.186,20.13,96.186,22.13,96.186"/>
	<path fill="#f8f9f9" d="M145.13,96.186h16c3,0,3-4,0-4h-16C142.13,92.186,142.13,96.186,145.13,96.186
		C145.13,96.186,142.13,96.186,145.13,96.186"/>
	<path fill="#f8f9f9" d="M109.13,96.186h17c3,0,3-4,0-4h-17C107.13,92.186,107.13,96.186,109.13,96.186
		C109.13,96.186,107.13,96.186,109.13,96.186"/>
	<path fill="#f8f9f9" d="M59.13,96.186h14c3,0,3-4,0-4h-14C56.13,92.186,56.13,96.186,59.13,96.186
		C59.13,96.186,56.13,96.186,59.13,96.186"/>
	<path fill="#f8f9f9" d="M102.601,101.062c-16.202,8.775-32.403,17.55-48.605,26.325l3.078,3.078
		c7.547-14.28,15.093-28.56,22.639-42.839c1.173-2.22,2.223-4.595,3.554-6.725c0.378-0.605-1.372,0.895-0.166,0.293
		c0.985-0.491,1.957-1.011,2.935-1.516c8.265-4.271,16.531-8.542,24.796-12.813l20.365-10.522c-1.026-1.026-2.052-2.052-3.078-3.078
		c-8.775,16.201-17.55,32.403-26.325,48.604c-1.38,2.547,2.504,4.822,3.885,2.271c8.775-16.201,17.55-32.403,26.326-48.604
		c1.095-2.022-1.081-4.111-3.079-3.079c-14.441,7.462-28.882,14.923-43.323,22.385c-1.611,0.833-3.885,1.55-5.281,2.729
		c-1.358,1.147-2.031,3.122-2.846,4.665c-4.479,8.475-8.958,16.95-13.436,25.425c-3.617,6.844-7.234,13.689-10.851,20.533
		c-1.054,1.995,1.067,4.168,3.078,3.078c16.202-8.775,32.404-17.549,48.605-26.324C107.42,103.568,105.15,99.681,102.601,101.062"/>
	<path fill="#f8f9f9" d="M102.407,91.529c-0.723,13.423-20.967,13.545-20.967,0
		C81.44,77.981,101.684,78.097,102.407,91.529c0.155,2.88,4.656,2.899,4.5,0c-0.438-8.127-6.503-14.983-14.983-14.983
		c-8.12,0-15.02,6.838-14.984,14.983c0.035,7.895,6.389,14.588,14.29,14.946c8.749,0.397,15.224-6.535,15.677-14.946
		C107.063,88.635,102.562,88.644,102.407,91.529"/>
	<path fill="#f8f9f9" d="M98.469,91.531c0,3.516-2.85,6.367-6.367,6.367
		c-3.516,0-6.366-2.851-6.366-6.367c0-3.516,2.85-6.367,6.366-6.367C95.619,85.164,98.469,88.015,98.469,91.531"/>
</g>
</svg>
