<?xml version="1.0" encoding="utf-8"?>
<!-- Generator: Adobe Illustrator 17.0.0, SVG Export Plug-In . SVG Version: 6.00 Build 0)  -->
<!DOCTYPE svg PUBLIC "-//W3C//DTD SVG 1.1//EN" "http://www.w3.org/Graphics/SVG/1.1/DTD/svg11.dtd">
<svg version="1.1" id="Слой_1" xmlns="http://www.w3.org/2000/svg" xmlns:xlink="http://www.w3.org/1999/xlink" x="0px" y="0px"
	 width="189.764px" height="186.882px" viewBox="0 0 189.764 186.882" enable-background="new 0 0 189.764 186.882"
	 xml:space="preserve">
<g>
	<path fill="#dfe0e0" d="M62.988,162.268c12.706,0.09,20.341,10.252,20.313,22.364l2.25-2.25H7.606
		c0.75,0.75,1.5,1.5,2.25,2.25c-0.029-12.109,7.607-22.274,20.313-22.364c-0.648-0.371-1.295-0.743-1.943-1.114
		c2.734,3.72,6.7,6.765,11.031,8.357c9.556,3.513,18.475-1.34,25.322-7.902c2.095-2.008-1.09-5.187-3.182-3.182
		c-7.858,7.531-18.034,10.911-26.832,3.014c-2.501-2.245-2.822-3.923-6.501-3.513c-14.316,1.595-22.741,12.573-22.708,26.704
		c0.003,1.217,1.028,2.25,2.25,2.25c25.982,0,51.963,0,77.945,0c1.219,0,2.247-1.031,2.25-2.25
		c0.034-14.559-9.622-26.757-24.813-26.864C60.092,157.748,60.089,162.248,62.988,162.268"/>
	<path fill="#dfe0e0" d="M30.906,162.144l-1.475-4.252c1.142-0.395,2.219-0.607,3.085-0.776
		c0.646-0.127,1.728-0.339,1.903-0.532c0.003-0.004,0.36-0.534-0.092-3.011l4.426-0.809c1.257,6.877-1.824,8.071-5.371,8.767
		C32.579,161.689,31.749,161.851,30.906,162.144"/>
	<path fill="#dfe0e0" d="M61.772,162.478c-0.843-0.292-1.673-0.455-2.475-0.612
		c-3.549-0.696-6.63-1.89-5.372-8.768l4.426,0.811c-0.453,2.475-0.096,3.006-0.092,3.009c0.175,0.193,1.257,0.405,1.904,0.532
		c0.865,0.17,1.942,0.381,3.084,0.776L61.772,162.478z"/>
	<path fill="#dfe0e0" d="M132.782,162.144l-1.475-4.252c1.142-0.395,2.219-0.607,3.085-0.776
		c0.647-0.127,1.729-0.339,1.903-0.532c0.004-0.004,0.361-0.533-0.091-3.011l4.426-0.809c1.257,6.877-1.824,8.071-5.372,8.767
		C134.455,161.689,133.625,161.851,132.782,162.144"/>
	<path fill="#dfe0e0" d="M163.649,162.478c-0.843-0.292-1.673-0.455-2.475-0.612
		c-3.549-0.696-6.63-1.89-5.373-8.767l4.426,0.809c-0.452,2.478-0.095,3.007-0.091,3.01c0.174,0.193,1.256,0.405,1.904,0.532
		c0.865,0.17,1.942,0.381,3.084,0.776L163.649,162.478z"/>
	<path fill="#dfe0e0" d="M45.671,158.576c-5.992,0-11.295-3.014-14.934-8.487
		c-3.184-4.787-4.937-11.097-4.937-17.768c0-7.579,0.421-12.513,6.252-17.119l0.764-0.604l0.964,0.144
		c7.429,1.111,19.315,4.284,27.181,6.383l3.251,0.867l0.459,0.878c1.878,3.591,2.034,7.554,2.034,11.638
		C66.705,148.453,57.859,158.576,45.671,158.576 M34.106,119.349c-3.445,3.067-3.806,6.312-3.806,12.972
		c0,10.546,5.387,21.755,15.371,21.755c9.581,0,16.534-8.23,16.534-19.568c0-3.255-0.092-6.183-1.121-8.693l-1.284-0.342
		C52.38,123.493,41.336,120.544,34.106,119.349"/>
	<path fill="#dfe0e0" d="M30.22,123.937c-0.906-6.17-1.591-17.196,6.822-18.072
		c1.908-0.198,3.78,0.584,5.69,0.225c1.353-0.255,1.871-0.745,2.861-1.578c1.047-0.882-0.678,0.196-0.697,0.198
		c0.314-0.037,0.912-0.09,1.186-0.012c2.683,0.77,5.933,0.629,8.716,1.185c3.192,0.636,6.44,1.369,9.49,2.526
		c4.163,1.579,4.343,3.536,3.092,7.982c-0.784,2.786-2.142,5.488-3.717,7.916c0.847-0.345,1.694-0.689,2.541-1.034
		c-10.748-3.391-21.127-6.179-32.159-8.476c-1.064-0.221-1.926,0.172-2.541,1.034l-5.396,7.569
		c-1.685,2.362,2.216,4.611,3.885,2.271c1.799-2.523,3.598-5.046,5.397-7.568c-0.847,0.344-1.694,0.689-2.541,1.034
		c11.032,2.296,21.41,5.085,32.159,8.475c0.981,0.31,2.01-0.216,2.541-1.034c3.218-4.959,8.548-15.833,2.367-20.411
		c-5.81-4.303-16.467-5.829-23.522-5.955c-1.008-0.018-2.28-0.152-3.205,0.35c-0.434,0.235-0.864,0.864-1.227,1.021
		c-1.229,0.532,0.541-0.023-0.745,0.081c-3.412,0.276-5.926-0.732-9.312,1.18c-7.666,4.327-7.136,14.716-6.024,22.289
		C26.3,127.988,30.637,126.774,30.22,123.937"/>
	<path fill="#dfe0e0" d="M164.951,161.709c12.706,0.09,20.341,10.252,20.313,22.364l2.25-2.25h-77.945
		l2.25,2.25c-0.029-12.109,7.607-22.274,20.313-22.364c-0.648-0.371-1.295-0.743-1.943-1.114c2.734,3.72,6.7,6.765,11.031,8.357
		c9.556,3.513,18.475-1.34,25.322-7.902c2.095-2.008-1.09-5.187-3.182-3.182c-7.858,7.531-18.034,10.911-26.832,3.014
		c-2.501-2.245-2.822-3.923-6.501-3.513c-14.316,1.595-22.741,12.573-22.708,26.704c0.003,1.217,1.028,2.25,2.25,2.25h77.945
		c1.219,0,2.247-1.031,2.25-2.25c0.034-14.559-9.622-26.757-24.813-26.864C162.055,157.189,162.052,161.689,164.951,161.709"/>
	<path fill="#dfe0e0" d="M147.634,158.018c-5.992,0-11.295-3.014-14.934-8.487
		c-3.184-4.787-4.937-11.097-4.937-17.768c0-7.579,0.421-12.513,6.252-17.119l0.764-0.604l0.964,0.144
		c7.426,1.11,19.31,4.283,27.174,6.381l3.259,0.869l0.459,0.878c1.877,3.592,2.033,7.555,2.033,11.638
		C168.668,147.895,159.822,158.018,147.634,158.018 M136.069,118.791c-3.445,3.067-3.806,6.312-3.806,12.972
		c0,10.546,5.387,21.755,15.371,21.755c9.581,0,16.534-8.23,16.534-19.568c0-3.255-0.092-6.183-1.12-8.693l-1.292-0.344
		C154.338,122.933,143.298,119.986,136.069,118.791"/>
	<path fill="#dfe0e0" d="M132.183,123.379c-0.906-6.17-1.591-17.196,6.822-18.072
		c1.908-0.198,3.78,0.584,5.69,0.225c1.353-0.255,1.871-0.745,2.861-1.578c1.047-0.882-0.678,0.196-0.697,0.198
		c0.314-0.037,0.912-0.09,1.186-0.012c2.683,0.77,5.933,0.629,8.716,1.185c3.192,0.636,6.44,1.369,9.49,2.526
		c4.163,1.579,4.343,3.536,3.092,7.982c-0.784,2.786-2.142,5.488-3.717,7.916l2.541-1.034c-10.748-3.391-21.127-6.179-32.159-8.476
		c-1.064-0.221-1.926,0.172-2.541,1.034c-1.799,2.523-3.598,5.046-5.396,7.569c-1.685,2.362,2.216,4.611,3.885,2.271
		c1.799-2.523,3.598-5.046,5.397-7.568c-0.847,0.344-1.694,0.689-2.541,1.034c11.032,2.296,21.411,5.085,32.159,8.475
		c0.981,0.31,2.01-0.216,2.541-1.034c3.218-4.959,8.548-15.833,2.367-20.411c-5.81-4.303-16.467-5.829-23.522-5.955
		c-1.008-0.018-2.28-0.152-3.205,0.35c-0.434,0.235-0.864,0.864-1.227,1.021c-1.229,0.532,0.541-0.023-0.745,0.081
		c-3.412,0.276-5.926-0.732-9.312,1.18c-7.666,4.327-7.136,14.716-6.024,22.289C128.263,127.43,132.6,126.216,132.183,123.379"/>
	<path fill="#dfe0e0" d="M65.898,93.477c-0.292,0-0.587-0.05-0.872-0.155
		c-0.991-0.365-1.657-1.321-1.657-2.377V76.256H13.544C6.076,76.256,0,70.18,0,62.712V13.544C0,6.076,6.076,0,13.544,0h81.785
		c7.468,0,13.544,6.076,13.544,13.544v49.168c0,7.468-6.076,13.544-13.544,13.544H81.8L67.828,92.592
		C67.34,93.164,66.626,93.477,65.898,93.477 M64.409,89.666c-0.001,0.001-0.002,0.001-0.002,0.002L64.409,89.666z M13.544,4.5
		C8.557,4.5,4.5,8.557,4.5,13.544v49.168c0,4.988,4.057,9.044,9.044,9.044h54.325v13.865l11.859-13.865h15.601
		c4.987,0,9.044-4.056,9.044-9.044V13.544c0-4.987-4.057-9.044-9.044-9.044H13.544z"/>
	<path fill="#dfe0e0" d="M123.248,104.205c-0.729,0-1.443-0.314-1.932-0.887l-13.971-16.334H93.816v-4.5
		h15.602l11.858,13.864V82.484h54.325c4.987,0,9.044-4.057,9.044-9.044V24.272c0-4.987-4.057-9.044-9.044-9.044h-60.03v-4.501h60.03
		c7.468,0,13.544,6.076,13.544,13.545V73.44c0,7.468-6.076,13.544-13.544,13.544h-49.825v14.688c0,1.057-0.666,2.012-1.657,2.377
		C123.836,104.155,123.54,104.205,123.248,104.205 M124.734,100.392l0.003,0.002C124.736,100.393,124.735,100.393,124.734,100.392"
		/>
	<path fill="#dfe0e0" d="M16.848,18.051h53.366c2.896,0,2.901-4.5,0-4.5H16.848
		C13.952,13.551,13.948,18.051,16.848,18.051"/>
	<path fill="#dfe0e0" d="M16.892,32.999h76.583c2.895,0,2.9-4.5,0-4.5H16.892
		C13.996,28.499,13.992,32.999,16.892,32.999"/>
	<path fill="#dfe0e0" d="M16.892,46.392h12.09c2.895,0,2.9-4.5,0-4.5h-12.09
		C13.996,41.892,13.992,46.392,16.892,46.392"/>
	<path fill="#dfe0e0" d="M42.488,46.392h50.986c2.896,0,2.901-4.5,0-4.5H42.488
		C39.592,41.892,39.588,46.392,42.488,46.392"/>
	<path fill="#dfe0e0" d="M16.892,61.952h45.266c2.896,0,2.9-4.5,0-4.5H16.892
		C13.996,57.452,13.992,61.952,16.892,61.952"/>
	<path fill="#dfe0e0" d="M78.758,61.952h14.716c2.896,0,2.901-4.5,0-4.5H78.758
		C75.862,57.452,75.858,61.952,78.758,61.952"/>
	<path fill="#dfe0e0" d="M81.298,18.051h9.695c2.895,0,2.9-4.5,0-4.5h-9.695
		C78.402,13.551,78.398,18.051,81.298,18.051"/>
	<path fill="#dfe0e0" d="M177.483,26.328h-44.695c-2.895,0-2.9,4.5,0,4.5h44.695
		C180.379,30.828,180.383,26.328,177.483,26.328"/>
	<path fill="#dfe0e0" d="M177.447,41.277h-58.001c-2.895,0-2.9,4.5,0,4.5h58.001
		C180.343,45.777,180.347,41.277,177.447,41.277"/>
	<path fill="#dfe0e0" d="M177.447,54.669h-10.125c-2.896,0-2.9,4.5,0,4.5h10.125
		C180.343,59.169,180.347,54.669,177.447,54.669"/>
	<path fill="#dfe0e0" d="M156.01,54.669h-36.539c-2.895,0-2.9,4.5,0,4.5h36.539
		C158.906,59.169,158.91,54.669,156.01,54.669"/>
	<path fill="#dfe0e0" d="M177.447,70.229h-37.911c-2.895,0-2.9,4.5,0,4.5h37.911
		C180.343,74.729,180.347,70.229,177.447,70.229"/>
	<path fill="#dfe0e0" d="M130.014,70.249h-10.622c-2.896,0-2.901,4.5,0,4.5h10.622
		C132.91,74.749,132.914,70.249,130.014,70.249"/>
	<path fill="#dfe0e0" d="M123.506,26.617h-4.06c-1.216,0-2.25,1.034-2.25,2.25
		c0,1.22,1.03,2.25,2.25,2.25h4.06c1.216,0,2.25-1.034,2.25-2.25C125.756,27.647,124.726,26.617,123.506,26.617"/>
	<path fill="#dfe0e0" d="M97.808,82.493h-4.06c-1.216,0-2.25,1.034-2.25,2.25
		c0,1.22,1.03,2.25,2.25,2.25h4.06c1.216,0,2.25-1.034,2.25-2.25C100.058,83.523,99.028,82.493,97.808,82.493"/>
	<path fill="#dfe0e0" d="M120.007,10.727h-4.06c-1.216,0-2.25,1.034-2.25,2.25
		c0,1.22,1.03,2.25,2.25,2.25h4.06c1.216,0,2.25-1.034,2.25-2.25C122.257,11.757,121.227,10.727,120.007,10.727"/>
</g>
</svg>
