<?xml version="1.0" encoding="utf-8"?>
<!-- Generator: Adobe Illustrator 17.0.0, SVG Export Plug-In . SVG Version: 6.00 Build 0)  -->
<!DOCTYPE svg PUBLIC "-//W3C//DTD SVG 1.1//EN" "http://www.w3.org/Graphics/SVG/1.1/DTD/svg11.dtd">
<svg version="1.1" id="Слой_1" xmlns="http://www.w3.org/2000/svg" xmlns:xlink="http://www.w3.org/1999/xlink" x="0px" y="0px"
	 width="233.026px" height="165.617px" viewBox="0 0 233.026 165.617" enable-background="new 0 0 233.026 165.617"
	 xml:space="preserve">
<g>
	<path fill="#194596" d="M20.289,54.162c4.466,10.054,8.932,20.108,13.398,30.161
		c7.128,16.046,14.256,32.092,21.384,48.138c1.649,3.712,3.298,7.424,4.946,11.136c0.637,1.433,2.865,0.446,2.227-0.989
		c-4.466-10.054-8.932-20.108-13.398-30.161C41.718,96.4,34.59,80.354,27.463,64.308l-4.947-11.135
		C21.879,51.74,19.651,52.727,20.289,54.162"/>
	<path fill="none" stroke="#194596" stroke-miterlimit="10" d="M20.289,54.162
		c4.466,10.054,8.932,20.108,13.398,30.161c7.128,16.046,14.256,32.092,21.384,48.138c1.649,3.712,3.298,7.424,4.946,11.136
		c0.637,1.433,2.865,0.446,2.227-0.989c-4.466-10.054-8.932-20.108-13.398-30.161C41.718,96.4,34.59,80.354,27.463,64.308
		l-4.947-11.135C21.879,51.74,19.651,52.727,20.289,54.162z"/>
	<path fill="#194596" d="M95.725,57.082c3.276,1.87,6.552,3.741,9.829,5.611
		c1.347,0.77,2.788-1.199,1.423-1.978c-3.276-1.87-6.552-3.741-9.828-5.611C95.801,54.334,94.36,56.303,95.725,57.082"/>
	<path fill="none" stroke="#194596" stroke-miterlimit="10" d="M95.725,57.082
		c3.276,1.87,6.552,3.741,9.829,5.611c1.347,0.77,2.788-1.199,1.423-1.978c-3.276-1.87-6.552-3.741-9.828-5.611
		C95.801,54.334,94.36,56.303,95.725,57.082z"/>
	<path fill="#194596" d="M89.972,60.518c5.464,3.12,10.929,6.239,16.393,9.359
		c1.347,0.769,2.788-1.199,1.423-1.978c-5.464-3.12-10.928-6.24-16.392-9.359C90.048,57.77,88.607,59.739,89.972,60.518"/>
	<path fill="none" stroke="#194596" stroke-miterlimit="10" d="M89.972,60.518
		c5.464,3.12,10.929,6.239,16.393,9.359c1.347,0.769,2.788-1.199,1.423-1.978c-5.464-3.12-10.928-6.24-16.392-9.359
		C90.048,57.77,88.607,59.739,89.972,60.518z"/>
	<path fill="#194596" d="M82.649,62.891c5.666,3.235,11.331,6.469,16.997,9.704
		c1.347,0.769,2.788-1.199,1.423-1.979c-5.665-3.234-11.331-6.469-16.996-9.703C82.725,60.143,81.284,62.112,82.649,62.891"/>
	<path fill="none" stroke="#194596" stroke-miterlimit="10" d="M82.649,62.891
		c5.666,3.235,11.331,6.469,16.997,9.704c1.347,0.769,2.788-1.199,1.423-1.979c-5.665-3.234-11.331-6.469-16.996-9.703
		C82.725,60.143,81.284,62.112,82.649,62.891z"/>
	<path fill="#194596" d="M76.129,66.056c5.577,3.184,11.154,6.368,16.731,9.552
		c1.348,0.77,2.789-1.199,1.424-1.978c-5.577-3.184-11.154-6.368-16.731-9.552C76.205,63.308,74.764,65.277,76.129,66.056"/>
	<path fill="none" stroke="#194596" stroke-miterlimit="10" d="M76.129,66.056
		c5.577,3.184,11.154,6.368,16.731,9.552c1.348,0.77,2.789-1.199,1.424-1.978c-5.577-3.184-11.154-6.368-16.731-9.552
		C76.205,63.308,74.764,65.277,76.129,66.056z"/>
	<path fill="#194596" d="M69.327,68.989c5.437,3.096,10.873,6.192,16.31,9.287
		c1.348,0.768,2.789-1.2,1.424-1.978l-16.31-9.287C69.402,66.243,67.962,68.212,69.327,68.989"/>
	<path fill="none" stroke="#194596" stroke-miterlimit="10" d="M69.327,68.989
		c5.437,3.096,10.873,6.192,16.31,9.287c1.348,0.768,2.789-1.2,1.424-1.978l-16.31-9.287C69.402,66.243,67.962,68.212,69.327,68.989
		z"/>
	<path fill="#194596" d="M63.724,72.541c4.973,2.832,9.946,5.664,14.919,8.495
		c1.348,0.768,2.789-1.2,1.424-1.978c-4.973-2.832-9.946-5.663-14.919-8.495C63.799,69.795,62.359,71.764,63.724,72.541"/>
	<path fill="none" stroke="#194596" stroke-miterlimit="10" d="M63.724,72.541
		c4.973,2.832,9.946,5.664,14.919,8.495c1.348,0.768,2.789-1.2,1.424-1.978c-4.973-2.832-9.946-5.663-14.919-8.495
		C63.799,69.795,62.359,71.764,63.724,72.541z"/>
	<path fill="#194596" d="M56.115,74.947c5.546,3.158,11.091,6.316,16.637,9.474
		c1.348,0.767,2.789-1.201,1.424-1.979c-5.546-3.157-11.092-6.315-16.637-9.473C56.19,72.201,54.75,74.17,56.115,74.947"/>
	<path fill="none" stroke="#194596" stroke-miterlimit="10" d="M56.115,74.947
		c5.546,3.158,11.091,6.316,16.637,9.474c1.348,0.767,2.789-1.201,1.424-1.979c-5.546-3.157-11.092-6.315-16.637-9.473
		C56.19,72.201,54.75,74.17,56.115,74.947z"/>
	<path fill="#194596" d="M50.057,78.314c5.467,3.113,10.934,6.226,16.401,9.339
		c1.348,0.768,2.789-1.201,1.423-1.978c-5.467-3.113-10.933-6.226-16.4-9.339C50.132,75.568,48.692,77.537,50.057,78.314"/>
	<path fill="none" stroke="#194596" stroke-miterlimit="10" d="M50.057,78.314
		c5.467,3.113,10.934,6.226,16.401,9.339c1.348,0.768,2.789-1.201,1.423-1.978c-5.467-3.113-10.933-6.226-16.4-9.339
		C50.132,75.568,48.692,77.537,50.057,78.314z"/>
	<path fill="#194596" d="M42.564,80.697c5.382,3.064,10.763,6.129,16.145,9.193
		c1.348,0.768,2.789-1.2,1.424-1.978c-5.382-3.064-10.764-6.129-16.145-9.193C42.639,77.951,41.199,79.92,42.564,80.697"/>
	<path fill="none" stroke="#194596" stroke-miterlimit="10" d="M42.564,80.697
		c5.382,3.064,10.763,6.129,16.145,9.193c1.348,0.768,2.789-1.2,1.424-1.978c-5.382-3.064-10.764-6.129-16.145-9.193
		C42.639,77.951,41.199,79.92,42.564,80.697z"/>
	<path fill="#194596" d="M36.208,83.79c5.478,3.12,10.957,6.239,16.435,9.359
		c1.349,0.768,2.789-1.201,1.424-1.978c-5.478-3.12-10.957-6.24-16.435-9.359C36.283,81.044,34.843,83.013,36.208,83.79"/>
	<path fill="none" stroke="#194596" stroke-miterlimit="10" d="M36.208,83.79
		c5.478,3.12,10.957,6.239,16.435,9.359c1.349,0.768,2.789-1.201,1.424-1.978c-5.478-3.12-10.957-6.24-16.435-9.359
		C36.283,81.044,34.843,83.013,36.208,83.79z"/>
	<path fill="#194596" d="M36.901,90.75l9.897,5.636c1.348,0.767,2.789-1.201,1.424-1.979
		c-3.299-1.878-6.598-3.757-9.897-5.635C36.976,88.004,35.536,89.973,36.901,90.75"/>
	<path fill="none" stroke="#194596" stroke-miterlimit="10" d="M36.901,90.75l9.897,5.636
		c1.348,0.767,2.789-1.201,1.424-1.979c-3.299-1.878-6.598-3.757-9.897-5.635C36.976,88.004,35.536,89.973,36.901,90.75z"/>
	<path fill="#194596" d="M33.331,79.518l-0.989-2.227l54.729-24.312L81.56,40.573L26.831,64.884
		l-0.99-2.227L81.348,38c0.8-0.355,1.76,0.055,2.142,0.914l6.105,13.745c0.382,0.859,0.042,1.847-0.757,2.202L33.331,79.518z"/>
	<path fill="none" stroke="#194596" stroke-miterlimit="10" d="M33.331,79.518l-0.989-2.227
		l54.729-24.312L81.56,40.573L26.831,64.884l-0.99-2.227L81.348,38c0.8-0.355,1.76,0.055,2.142,0.914l6.105,13.745
		c0.382,0.859,0.042,1.847-0.757,2.202L33.331,79.518z"/>
	<path fill="#194596" d="M42.537,99.004l-0.989-2.227l65.998-29.318l-5.553-12.501L35.994,84.276
		l-0.989-2.227l66.708-29.633c0.837-0.371,1.828,0.025,2.209,0.884l6.148,13.839c0.382,0.859,0.012,1.861-0.825,2.232L42.537,99.004
		z"/>
	<path fill="none" stroke="#194596" stroke-miterlimit="10" d="M42.537,99.004l-0.989-2.227
		l65.998-29.318l-5.553-12.501L35.994,84.276l-0.989-2.227l66.708-29.633c0.837-0.371,1.828,0.025,2.209,0.884l6.148,13.839
		c0.382,0.859,0.012,1.861-0.825,2.232L42.537,99.004z"/>
	<path fill="#194596" d="M51.199,118.505l-0.989-2.227l19.528-8.675l-5.509-12.407l-19.53,8.675
		l-0.99-2.227l20.52-9.115c0.46-0.204,1.384-0.222,1.93,1.008l6.106,13.745c0.546,1.23-0.086,1.904-0.546,2.108L51.199,118.505z"/>
	<path fill="none" stroke="#194596" stroke-miterlimit="10" d="M51.199,118.505l-0.989-2.227
		l19.528-8.675l-5.509-12.407l-19.53,8.675l-0.99-2.227l20.52-9.115c0.46-0.204,1.384-0.222,1.93,1.008l6.106,13.745
		c0.546,1.23-0.086,1.904-0.546,2.108L51.199,118.505z"/>
	<path fill="#194596" d="M59.903,138.1l-0.989-2.227l32.442-14.412l-5.511-12.406l-32.442,14.411
		l-0.99-2.227l33.354-14.816c0.763-0.339,1.607,0.071,2.008,0.974l6.106,13.744c0.401,0.903,0.138,1.804-0.624,2.143L59.903,138.1z"
		/>
	<path fill="none" stroke="#194596" stroke-miterlimit="10" d="M59.903,138.1l-0.989-2.227
		l32.442-14.412l-5.511-12.406l-32.442,14.411l-0.99-2.227l33.354-14.816c0.763-0.339,1.607,0.071,2.008,0.974l6.106,13.744
		c0.401,0.903,0.138,1.804-0.624,2.143L59.903,138.1z"/>
	<path fill="#194596" d="M56.281,165.563c-1.868,0.303-3.78-0.677-4.575-2.487L0.359,46.078
		c-0.942-2.146,0.037-4.657,2.182-5.6L93.953,0.359c1.038-0.455,2.192-0.478,3.251-0.066c1.06,0.413,1.894,1.212,2.349,2.25
		l51.349,116.997c0.455,1.038,0.478,2.193,0.065,3.252c-0.413,1.06-1.213,1.894-2.251,2.348l-91.41,40.12
		C56.971,165.406,56.627,165.507,56.281,165.563 M4.58,44.498l51.148,116.54l90.953-39.918L95.534,4.58L4.58,44.498z"/>
	<path fill="#194596" d="M218.669,151.457c-0.325,0.053-0.662,0.067-1.006,0.038l-99.762-8.531
		c-1.28-0.109-2.421-0.771-3.129-1.816c-0.605-0.893-1.167-2.481-0.408-4.986l4.307,1.305c-0.153,0.505-0.183,0.843-0.176,1.031
		l99.154,8.479L228.493,20.17l-98.969-8.463l-4.451,49.677l-4.481-0.402l4.485-50.066c0.093-1.08,0.606-2.069,1.445-2.776
		c0.838-0.705,1.899-1.043,2.99-0.952l99.761,8.533c1.089,0.092,2.079,0.605,2.785,1.444c0.707,0.839,1.046,1.901,0.952,2.99
		l-10.911,127.603C221.936,149.667,220.481,151.163,218.669,151.457 M129.56,11.308v0.003C129.56,11.31,129.56,11.309,129.56,11.308
		"/>
	<path fill="#194596" d="M138.886,31.393c25.42,2.174,50.839,4.347,76.259,6.521
		c2.886,0.247,3.374-4.228,0.485-4.475c-25.419-2.173-50.839-4.347-76.259-6.521C136.485,26.671,135.998,31.146,138.886,31.393"/>
	<path fill="#194596" d="M166.081,44.769c16.042,1.372,32.084,2.744,48.125,4.115
		c2.886,0.247,3.374-4.228,0.486-4.475c-16.042-1.371-32.084-2.743-48.126-4.115C163.68,40.047,163.193,44.522,166.081,44.769"/>
	<path fill="#194596" d="M137.947,42.364c7.255,0.62,14.51,1.241,21.765,1.861
		c2.886,0.247,3.374-4.228,0.486-4.475c-7.255-0.62-14.51-1.24-21.766-1.861C135.546,37.642,135.059,42.117,137.947,42.364"/>
	<path fill="#194596" d="M137.009,53.334c25.42,2.174,50.839,4.347,76.259,6.521
		c2.886,0.247,3.374-4.228,0.485-4.475c-25.419-2.173-50.839-4.347-76.259-6.521C134.608,48.612,134.121,53.087,137.009,53.334"/>
	<path fill="#194596" d="M136.072,64.3c25.42,2.174,50.839,4.347,76.259,6.521
		c2.886,0.247,3.374-4.228,0.485-4.475c-25.419-2.173-50.839-4.347-76.259-6.521C133.671,59.578,133.184,64.053,136.072,64.3"/>
	<path fill="#194596" d="M135.126,75.352c10.43,0.892,20.86,1.784,31.29,2.676
		c2.886,0.246,3.373-4.228,0.485-4.475c-10.43-0.892-20.86-1.784-31.29-2.676C132.725,70.63,132.238,75.105,135.126,75.352"/>
	<path fill="#194596" d="M173.596,78.642c12.596,1.077,25.193,2.154,37.789,3.231
		c2.886,0.247,3.374-4.227,0.486-4.474c-12.597-1.078-25.193-2.155-37.79-3.232C171.195,73.92,170.708,78.395,173.596,78.642"/>
	<path fill="#194596" d="M134.196,86.233c17.414,1.489,34.829,2.978,52.243,4.467
		c2.886,0.247,3.374-4.227,0.486-4.474c-17.415-1.49-34.829-2.979-52.244-4.468C131.795,81.511,131.308,85.986,134.196,86.233"/>
	<path fill="#194596" d="M193.473,91.303c5.661,0.484,11.321,0.968,16.982,1.452
		c2.886,0.247,3.373-4.228,0.485-4.475c-5.66-0.484-11.321-0.968-16.982-1.452C191.072,86.581,190.585,91.056,193.473,91.303"/>
</g>
</svg>
