<?xml version="1.0" encoding="utf-8"?>
<!-- Generator: Adobe Illustrator 17.0.0, SVG Export Plug-In . SVG Version: 6.00 Build 0)  -->
<!DOCTYPE svg PUBLIC "-//W3C//DTD SVG 1.1//EN" "http://www.w3.org/Graphics/SVG/1.1/DTD/svg11.dtd">
<svg version="1.1" id="Слой_1" xmlns="http://www.w3.org/2000/svg" xmlns:xlink="http://www.w3.org/1999/xlink" x="0px" y="0px"
	 width="190.028px" height="180.838px" viewBox="0 0 190.028 180.838" enable-background="new 0 0 190.028 180.838"
	 xml:space="preserve">
<rect x="45.046" y="114.143" fill="#194596" width="1.5" height="1"/>
<rect x="45.046" y="114.142" fill="none" stroke="#194596" stroke-width="0.75" stroke-miterlimit="10" width="1.5" height="1"/>
<g>
	<path fill="#194596" d="M45.809,175.285h-0.026c-0.407,0-0.737-0.33-0.737-0.737v-0.531
		c0-0.407,0.33-0.737,0.737-0.737h0.026c0.407,0,0.737,0.33,0.737,0.737v0.531C46.546,174.955,46.216,175.285,45.809,175.285
		 M45.809,171.276h-0.026c-0.407,0-0.737-0.33-0.737-0.737v-0.531c0-0.407,0.33-0.737,0.737-0.737h0.026
		c0.407,0,0.737,0.33,0.737,0.737v0.531C46.546,170.946,46.216,171.276,45.809,171.276 M45.809,167.266h-0.026
		c-0.407,0-0.737-0.33-0.737-0.737v-0.531c0-0.407,0.33-0.737,0.737-0.737h0.026c0.407,0,0.737,0.33,0.737,0.737v0.531
		C46.546,166.936,46.216,167.266,45.809,167.266 M45.809,163.256h-0.026c-0.407,0-0.737-0.329-0.737-0.737v-0.53
		c0-0.407,0.33-0.737,0.737-0.737h0.026c0.407,0,0.737,0.33,0.737,0.737v0.53C46.546,162.927,46.216,163.256,45.809,163.256
		 M45.809,159.247h-0.026c-0.407,0-0.737-0.33-0.737-0.737v-0.531c0-0.407,0.33-0.737,0.737-0.737h0.026
		c0.407,0,0.737,0.33,0.737,0.737v0.531C46.546,158.917,46.216,159.247,45.809,159.247 M45.809,155.237h-0.026
		c-0.407,0-0.737-0.33-0.737-0.737v-0.53c0-0.407,0.33-0.737,0.737-0.737h0.026c0.407,0,0.737,0.33,0.737,0.737v0.53
		C46.546,154.907,46.216,155.237,45.809,155.237 M45.809,151.228h-0.026c-0.407,0-0.737-0.33-0.737-0.737v-0.531
		c0-0.407,0.33-0.737,0.737-0.737h0.026c0.407,0,0.737,0.33,0.737,0.737v0.531C46.546,150.898,46.216,151.228,45.809,151.228
		 M45.809,147.218h-0.026c-0.407,0-0.737-0.33-0.737-0.737v-0.53c0-0.408,0.33-0.737,0.737-0.737h0.026
		c0.407,0,0.737,0.329,0.737,0.737v0.53C46.546,146.888,46.216,147.218,45.809,147.218 M45.809,143.209h-0.026
		c-0.407,0-0.737-0.33-0.737-0.737v-0.531c0-0.407,0.33-0.737,0.737-0.737h0.026c0.407,0,0.737,0.33,0.737,0.737v0.531
		C46.546,142.879,46.216,143.209,45.809,143.209 M45.809,139.199h-0.026c-0.407,0-0.737-0.33-0.737-0.737v-0.531
		c0-0.407,0.33-0.737,0.737-0.737h0.026c0.407,0,0.737,0.33,0.737,0.737v0.531C46.546,138.869,46.216,139.199,45.809,139.199
		 M45.809,135.19h-0.026c-0.407,0-0.737-0.33-0.737-0.737v-0.531c0-0.407,0.33-0.737,0.737-0.737h0.026
		c0.407,0,0.737,0.33,0.737,0.737v0.531C46.546,134.86,46.216,135.19,45.809,135.19 M45.809,131.18h-0.026
		c-0.407,0-0.737-0.33-0.737-0.737v-0.531c0-0.407,0.33-0.737,0.737-0.737h0.026c0.407,0,0.737,0.33,0.737,0.737v0.531
		C46.546,130.85,46.216,131.18,45.809,131.18 M45.809,127.171h-0.026c-0.407,0-0.737-0.33-0.737-0.737v-0.531
		c0-0.407,0.33-0.737,0.737-0.737h0.026c0.407,0,0.737,0.33,0.737,0.737v0.531C46.546,126.841,46.216,127.171,45.809,127.171
		 M45.809,123.161h-0.026c-0.407,0-0.737-0.33-0.737-0.737v-0.531c0-0.407,0.33-0.737,0.737-0.737h0.026
		c0.407,0,0.737,0.33,0.737,0.737v0.531C46.546,122.831,46.216,123.161,45.809,123.161 M45.809,119.152h-0.026
		c-0.407,0-0.737-0.33-0.737-0.737v-0.531c0-0.407,0.33-0.737,0.737-0.737h0.026c0.407,0,0.737,0.33,0.737,0.737v0.531
		C46.546,118.822,46.216,119.152,45.809,119.152"/>
	<path fill="none" stroke="#194596" stroke-width="0.75" stroke-miterlimit="10" d="M45.809,175.285
		h-0.026c-0.407,0-0.737-0.33-0.737-0.737v-0.531c0-0.407,0.33-0.737,0.737-0.737h0.026c0.407,0,0.737,0.33,0.737,0.737v0.531
		C46.546,174.955,46.216,175.285,45.809,175.285z M45.809,171.276h-0.026c-0.407,0-0.737-0.33-0.737-0.737v-0.531
		c0-0.407,0.33-0.737,0.737-0.737h0.026c0.407,0,0.737,0.33,0.737,0.737v0.531C46.546,170.946,46.216,171.276,45.809,171.276z
		 M45.809,167.266h-0.026c-0.407,0-0.737-0.33-0.737-0.737v-0.531c0-0.407,0.33-0.737,0.737-0.737h0.026
		c0.407,0,0.737,0.33,0.737,0.737v0.531C46.546,166.936,46.216,167.266,45.809,167.266z M45.809,163.256h-0.026
		c-0.407,0-0.737-0.329-0.737-0.737v-0.53c0-0.407,0.33-0.737,0.737-0.737h0.026c0.407,0,0.737,0.33,0.737,0.737v0.53
		C46.546,162.927,46.216,163.256,45.809,163.256z M45.809,159.247h-0.026c-0.407,0-0.737-0.33-0.737-0.737v-0.531
		c0-0.407,0.33-0.737,0.737-0.737h0.026c0.407,0,0.737,0.33,0.737,0.737v0.531C46.546,158.917,46.216,159.247,45.809,159.247z
		 M45.809,155.237h-0.026c-0.407,0-0.737-0.33-0.737-0.737v-0.53c0-0.407,0.33-0.737,0.737-0.737h0.026
		c0.407,0,0.737,0.33,0.737,0.737v0.53C46.546,154.907,46.216,155.237,45.809,155.237z M45.809,151.228h-0.026
		c-0.407,0-0.737-0.33-0.737-0.737v-0.531c0-0.407,0.33-0.737,0.737-0.737h0.026c0.407,0,0.737,0.33,0.737,0.737v0.531
		C46.546,150.898,46.216,151.228,45.809,151.228z M45.809,147.218h-0.026c-0.407,0-0.737-0.33-0.737-0.737v-0.53
		c0-0.408,0.33-0.737,0.737-0.737h0.026c0.407,0,0.737,0.329,0.737,0.737v0.53C46.546,146.888,46.216,147.218,45.809,147.218z
		 M45.809,143.209h-0.026c-0.407,0-0.737-0.33-0.737-0.737v-0.531c0-0.407,0.33-0.737,0.737-0.737h0.026
		c0.407,0,0.737,0.33,0.737,0.737v0.531C46.546,142.879,46.216,143.209,45.809,143.209z M45.809,139.199h-0.026
		c-0.407,0-0.737-0.33-0.737-0.737v-0.531c0-0.407,0.33-0.737,0.737-0.737h0.026c0.407,0,0.737,0.33,0.737,0.737v0.531
		C46.546,138.869,46.216,139.199,45.809,139.199z M45.809,135.19h-0.026c-0.407,0-0.737-0.33-0.737-0.737v-0.531
		c0-0.407,0.33-0.737,0.737-0.737h0.026c0.407,0,0.737,0.33,0.737,0.737v0.531C46.546,134.86,46.216,135.19,45.809,135.19z
		 M45.809,131.18h-0.026c-0.407,0-0.737-0.33-0.737-0.737v-0.531c0-0.407,0.33-0.737,0.737-0.737h0.026
		c0.407,0,0.737,0.33,0.737,0.737v0.531C46.546,130.85,46.216,131.18,45.809,131.18z M45.809,127.171h-0.026
		c-0.407,0-0.737-0.33-0.737-0.737v-0.531c0-0.407,0.33-0.737,0.737-0.737h0.026c0.407,0,0.737,0.33,0.737,0.737v0.531
		C46.546,126.841,46.216,127.171,45.809,127.171z M45.809,123.161h-0.026c-0.407,0-0.737-0.33-0.737-0.737v-0.531
		c0-0.407,0.33-0.737,0.737-0.737h0.026c0.407,0,0.737,0.33,0.737,0.737v0.531C46.546,122.831,46.216,123.161,45.809,123.161z
		 M45.809,119.152h-0.026c-0.407,0-0.737-0.33-0.737-0.737v-0.531c0-0.407,0.33-0.737,0.737-0.737h0.026
		c0.407,0,0.737,0.33,0.737,0.737v0.531C46.546,118.822,46.216,119.152,45.809,119.152z"/>
	<rect x="45.046" y="177.29" fill="#194596" width="1.5" height="1"/>
	
		<rect x="45.046" y="177.29" fill="none" stroke="#194596" stroke-width="0.75" stroke-miterlimit="10" width="1.5" height="1"/>
	<rect x="79.789" y="103.016" fill="#194596" width="1.5" height="1"/>
	
		<rect x="79.789" y="103.016" fill="none" stroke="#194596" stroke-width="0.75" stroke-miterlimit="10" width="1.5" height="1"/>
	<path fill="#194596" d="M80.551,174.387h-0.026c-0.407,0-0.737-0.33-0.737-0.737v-0.481
		c0-0.407,0.33-0.737,0.737-0.737h0.026c0.407,0,0.737,0.33,0.737,0.737v0.481C81.288,174.057,80.958,174.387,80.551,174.387
		 M80.551,170.477h-0.026c-0.407,0-0.737-0.33-0.737-0.737v-0.48c0-0.407,0.33-0.737,0.737-0.737h0.026
		c0.407,0,0.737,0.33,0.737,0.737v0.48C81.288,170.147,80.958,170.477,80.551,170.477 M80.551,166.568h-0.026
		c-0.407,0-0.737-0.33-0.737-0.737v-0.481c0-0.407,0.33-0.737,0.737-0.737h0.026c0.407,0,0.737,0.33,0.737,0.737v0.481
		C81.288,166.238,80.958,166.568,80.551,166.568 M80.551,162.658h-0.026c-0.407,0-0.737-0.33-0.737-0.737v-0.48
		c0-0.407,0.33-0.737,0.737-0.737h0.026c0.407,0,0.737,0.33,0.737,0.737v0.48C81.288,162.328,80.958,162.658,80.551,162.658
		 M80.551,158.749h-0.026c-0.407,0-0.737-0.33-0.737-0.737v-0.481c0-0.407,0.33-0.737,0.737-0.737h0.026
		c0.407,0,0.737,0.33,0.737,0.737v0.481C81.288,158.419,80.958,158.749,80.551,158.749 M80.551,154.84h-0.026
		c-0.407,0-0.737-0.33-0.737-0.737v-0.482c0-0.407,0.33-0.737,0.737-0.737h0.026c0.407,0,0.737,0.33,0.737,0.737v0.482
		C81.288,154.51,80.958,154.84,80.551,154.84 M80.551,150.93h-0.026c-0.407,0-0.737-0.33-0.737-0.737v-0.481
		c0-0.407,0.33-0.737,0.737-0.737h0.026c0.407,0,0.737,0.33,0.737,0.737v0.481C81.288,150.6,80.958,150.93,80.551,150.93
		 M80.551,147.02h-0.026c-0.407,0-0.737-0.33-0.737-0.737v-0.48c0-0.407,0.33-0.737,0.737-0.737h0.026
		c0.407,0,0.737,0.33,0.737,0.737v0.48C81.288,146.69,80.958,147.02,80.551,147.02 M80.551,143.111h-0.026
		c-0.407,0-0.737-0.33-0.737-0.737v-0.481c0-0.407,0.33-0.737,0.737-0.737h0.026c0.407,0,0.737,0.33,0.737,0.737v0.481
		C81.288,142.781,80.958,143.111,80.551,143.111 M80.551,139.201h-0.026c-0.407,0-0.737-0.33-0.737-0.737v-0.48
		c0-0.407,0.33-0.737,0.737-0.737h0.026c0.407,0,0.737,0.33,0.737,0.737v0.48C81.288,138.871,80.958,139.201,80.551,139.201
		 M80.551,135.292h-0.026c-0.407,0-0.737-0.33-0.737-0.737v-0.481c0-0.407,0.33-0.737,0.737-0.737h0.026
		c0.407,0,0.737,0.33,0.737,0.737v0.481C81.288,134.962,80.958,135.292,80.551,135.292 M80.551,131.383h-0.026
		c-0.407,0-0.737-0.33-0.737-0.737v-0.482c0-0.407,0.33-0.737,0.737-0.737h0.026c0.407,0,0.737,0.33,0.737,0.737v0.482
		C81.288,131.053,80.958,131.383,80.551,131.383 M80.551,127.473h-0.026c-0.407,0-0.737-0.33-0.737-0.737v-0.481
		c0-0.407,0.33-0.737,0.737-0.737h0.026c0.407,0,0.737,0.33,0.737,0.737v0.481C81.288,127.143,80.958,127.473,80.551,127.473
		 M80.551,123.563h-0.026c-0.407,0-0.737-0.33-0.737-0.737v-0.48c0-0.407,0.33-0.737,0.737-0.737h0.026
		c0.407,0,0.737,0.33,0.737,0.737v0.48C81.288,123.233,80.958,123.563,80.551,123.563 M80.551,119.654h-0.026
		c-0.407,0-0.737-0.33-0.737-0.737v-0.481c0-0.407,0.33-0.737,0.737-0.737h0.026c0.407,0,0.737,0.33,0.737,0.737v0.481
		C81.288,119.324,80.958,119.654,80.551,119.654 M80.551,115.744h-0.026c-0.407,0-0.737-0.33-0.737-0.737v-0.481
		c0-0.407,0.33-0.737,0.737-0.737h0.026c0.407,0,0.737,0.33,0.737,0.737v0.481C81.288,115.414,80.958,115.744,80.551,115.744
		 M80.551,111.835h-0.026c-0.407,0-0.737-0.33-0.737-0.737v-0.481c0-0.407,0.33-0.737,0.737-0.737h0.026
		c0.407,0,0.737,0.33,0.737,0.737v0.481C81.288,111.505,80.958,111.835,80.551,111.835 M80.551,107.925h-0.026
		c-0.407,0-0.737-0.33-0.737-0.737v-0.481c0-0.407,0.33-0.737,0.737-0.737h0.026c0.407,0,0.737,0.33,0.737,0.737v0.481
		C81.288,107.595,80.958,107.925,80.551,107.925"/>
	<path fill="none" stroke="#194596" stroke-width="0.75" stroke-miterlimit="10" d="M80.551,174.387
		h-0.026c-0.407,0-0.737-0.33-0.737-0.737v-0.481c0-0.407,0.33-0.737,0.737-0.737h0.026c0.407,0,0.737,0.33,0.737,0.737v0.481
		C81.288,174.057,80.958,174.387,80.551,174.387z M80.551,170.477h-0.026c-0.407,0-0.737-0.33-0.737-0.737v-0.48
		c0-0.407,0.33-0.737,0.737-0.737h0.026c0.407,0,0.737,0.33,0.737,0.737v0.48C81.288,170.147,80.958,170.477,80.551,170.477z
		 M80.551,166.568h-0.026c-0.407,0-0.737-0.33-0.737-0.737v-0.481c0-0.407,0.33-0.737,0.737-0.737h0.026
		c0.407,0,0.737,0.33,0.737,0.737v0.481C81.288,166.238,80.958,166.568,80.551,166.568z M80.551,162.658h-0.026
		c-0.407,0-0.737-0.33-0.737-0.737v-0.48c0-0.407,0.33-0.737,0.737-0.737h0.026c0.407,0,0.737,0.33,0.737,0.737v0.48
		C81.288,162.328,80.958,162.658,80.551,162.658z M80.551,158.749h-0.026c-0.407,0-0.737-0.33-0.737-0.737v-0.481
		c0-0.407,0.33-0.737,0.737-0.737h0.026c0.407,0,0.737,0.33,0.737,0.737v0.481C81.288,158.419,80.958,158.749,80.551,158.749z
		 M80.551,154.84h-0.026c-0.407,0-0.737-0.33-0.737-0.737v-0.482c0-0.407,0.33-0.737,0.737-0.737h0.026
		c0.407,0,0.737,0.33,0.737,0.737v0.482C81.288,154.51,80.958,154.84,80.551,154.84z M80.551,150.93h-0.026
		c-0.407,0-0.737-0.33-0.737-0.737v-0.481c0-0.407,0.33-0.737,0.737-0.737h0.026c0.407,0,0.737,0.33,0.737,0.737v0.481
		C81.288,150.6,80.958,150.93,80.551,150.93z M80.551,147.02h-0.026c-0.407,0-0.737-0.33-0.737-0.737v-0.48
		c0-0.407,0.33-0.737,0.737-0.737h0.026c0.407,0,0.737,0.33,0.737,0.737v0.48C81.288,146.69,80.958,147.02,80.551,147.02z
		 M80.551,143.111h-0.026c-0.407,0-0.737-0.33-0.737-0.737v-0.481c0-0.407,0.33-0.737,0.737-0.737h0.026
		c0.407,0,0.737,0.33,0.737,0.737v0.481C81.288,142.781,80.958,143.111,80.551,143.111z M80.551,139.201h-0.026
		c-0.407,0-0.737-0.33-0.737-0.737v-0.48c0-0.407,0.33-0.737,0.737-0.737h0.026c0.407,0,0.737,0.33,0.737,0.737v0.48
		C81.288,138.871,80.958,139.201,80.551,139.201z M80.551,135.292h-0.026c-0.407,0-0.737-0.33-0.737-0.737v-0.481
		c0-0.407,0.33-0.737,0.737-0.737h0.026c0.407,0,0.737,0.33,0.737,0.737v0.481C81.288,134.962,80.958,135.292,80.551,135.292z
		 M80.551,131.383h-0.026c-0.407,0-0.737-0.33-0.737-0.737v-0.482c0-0.407,0.33-0.737,0.737-0.737h0.026
		c0.407,0,0.737,0.33,0.737,0.737v0.482C81.288,131.053,80.958,131.383,80.551,131.383z M80.551,127.473h-0.026
		c-0.407,0-0.737-0.33-0.737-0.737v-0.481c0-0.407,0.33-0.737,0.737-0.737h0.026c0.407,0,0.737,0.33,0.737,0.737v0.481
		C81.288,127.143,80.958,127.473,80.551,127.473z M80.551,123.563h-0.026c-0.407,0-0.737-0.33-0.737-0.737v-0.48
		c0-0.407,0.33-0.737,0.737-0.737h0.026c0.407,0,0.737,0.33,0.737,0.737v0.48C81.288,123.233,80.958,123.563,80.551,123.563z
		 M80.551,119.654h-0.026c-0.407,0-0.737-0.33-0.737-0.737v-0.481c0-0.407,0.33-0.737,0.737-0.737h0.026
		c0.407,0,0.737,0.33,0.737,0.737v0.481C81.288,119.324,80.958,119.654,80.551,119.654z M80.551,115.744h-0.026
		c-0.407,0-0.737-0.33-0.737-0.737v-0.481c0-0.407,0.33-0.737,0.737-0.737h0.026c0.407,0,0.737,0.33,0.737,0.737v0.481
		C81.288,115.414,80.958,115.744,80.551,115.744z M80.551,111.835h-0.026c-0.407,0-0.737-0.33-0.737-0.737v-0.481
		c0-0.407,0.33-0.737,0.737-0.737h0.026c0.407,0,0.737,0.33,0.737,0.737v0.481C81.288,111.505,80.958,111.835,80.551,111.835z
		 M80.551,107.925h-0.026c-0.407,0-0.737-0.33-0.737-0.737v-0.481c0-0.407,0.33-0.737,0.737-0.737h0.026
		c0.407,0,0.737,0.33,0.737,0.737v0.481C81.288,107.595,80.958,107.925,80.551,107.925z"/>
	<rect x="79.789" y="176.342" fill="#194596" width="1.5" height="1"/>
	
		<rect x="79.789" y="176.342" fill="none" stroke="#194596" stroke-width="0.75" stroke-miterlimit="10" width="1.5" height="1"/>
	<rect x="114.531" y="50.207" fill="#194596" width="1.5" height="1"/>
	
		<rect x="114.531" y="50.207" fill="none" stroke="#194596" stroke-width="0.75" stroke-miterlimit="10" width="1.5" height="1"/>
	<path fill="#194596" d="M115.294,174.356h-0.026c-0.407,0-0.737-0.33-0.737-0.737v-0.513
		c0-0.407,0.33-0.737,0.737-0.737h0.026c0.407,0,0.737,0.33,0.737,0.737v0.513C116.031,174.026,115.701,174.356,115.294,174.356
		 M115.294,170.383h-0.026c-0.407,0-0.737-0.33-0.737-0.737v-0.512c0-0.407,0.33-0.737,0.737-0.737h0.026
		c0.407,0,0.737,0.33,0.737,0.737v0.512C116.031,170.053,115.701,170.383,115.294,170.383 M115.294,166.41h-0.026
		c-0.407,0-0.737-0.33-0.737-0.737v-0.512c0-0.407,0.33-0.737,0.737-0.737h0.026c0.407,0,0.737,0.33,0.737,0.737v0.512
		C116.031,166.08,115.701,166.41,115.294,166.41 M115.294,162.438h-0.026c-0.407,0-0.737-0.33-0.737-0.737v-0.512
		c0-0.407,0.33-0.737,0.737-0.737h0.026c0.407,0,0.737,0.33,0.737,0.737v0.512C116.031,162.108,115.701,162.438,115.294,162.438
		 M115.294,158.466h-0.026c-0.407,0-0.737-0.33-0.737-0.737v-0.513c0-0.407,0.33-0.737,0.737-0.737h0.026
		c0.407,0,0.737,0.33,0.737,0.737v0.513C116.031,158.136,115.701,158.466,115.294,158.466 M115.294,154.493h-0.026
		c-0.407,0-0.737-0.33-0.737-0.737v-0.512c0-0.407,0.33-0.737,0.737-0.737h0.026c0.407,0,0.737,0.33,0.737,0.737v0.512
		C116.031,154.163,115.701,154.493,115.294,154.493 M115.294,150.52h-0.026c-0.407,0-0.737-0.33-0.737-0.737v-0.511
		c0-0.408,0.33-0.738,0.737-0.738h0.026c0.407,0,0.737,0.33,0.737,0.738v0.511C116.031,150.19,115.701,150.52,115.294,150.52
		 M115.294,146.548h-0.026c-0.407,0-0.737-0.33-0.737-0.737v-0.512c0-0.407,0.33-0.737,0.737-0.737h0.026
		c0.407,0,0.737,0.33,0.737,0.737v0.512C116.031,146.218,115.701,146.548,115.294,146.548 M115.294,142.576h-0.026
		c-0.407,0-0.737-0.33-0.737-0.737v-0.513c0-0.407,0.33-0.737,0.737-0.737h0.026c0.407,0,0.737,0.33,0.737,0.737v0.513
		C116.031,142.246,115.701,142.576,115.294,142.576 M115.294,138.603h-0.026c-0.407,0-0.737-0.33-0.737-0.737v-0.512
		c0-0.408,0.33-0.737,0.737-0.737h0.026c0.407,0,0.737,0.329,0.737,0.737v0.512C116.031,138.273,115.701,138.603,115.294,138.603
		 M115.294,134.63h-0.026c-0.407,0-0.737-0.33-0.737-0.737v-0.512c0-0.407,0.33-0.737,0.737-0.737h0.026
		c0.407,0,0.737,0.33,0.737,0.737v0.512C116.031,134.3,115.701,134.63,115.294,134.63 M115.294,130.658h-0.026
		c-0.407,0-0.737-0.33-0.737-0.737v-0.512c0-0.407,0.33-0.737,0.737-0.737h0.026c0.407,0,0.737,0.33,0.737,0.737v0.512
		C116.031,130.328,115.701,130.658,115.294,130.658 M115.294,126.685h-0.026c-0.407,0-0.737-0.33-0.737-0.737v-0.512
		c0-0.407,0.33-0.737,0.737-0.737h0.026c0.407,0,0.737,0.33,0.737,0.737v0.512C116.031,126.355,115.701,126.685,115.294,126.685
		 M115.294,122.713h-0.026c-0.407,0-0.737-0.33-0.737-0.737v-0.513c0-0.407,0.33-0.737,0.737-0.737h0.026
		c0.407,0,0.737,0.33,0.737,0.737v0.513C116.031,122.383,115.701,122.713,115.294,122.713 M115.294,118.741h-0.026
		c-0.407,0-0.737-0.33-0.737-0.737v-0.513c0-0.407,0.33-0.737,0.737-0.737h0.026c0.407,0,0.737,0.33,0.737,0.737v0.513
		C116.031,118.411,115.701,118.741,115.294,118.741 M115.294,114.768h-0.026c-0.407,0-0.737-0.33-0.737-0.737v-0.512
		c0-0.407,0.33-0.737,0.737-0.737h0.026c0.407,0,0.737,0.33,0.737,0.737v0.512C116.031,114.438,115.701,114.768,115.294,114.768
		 M115.294,110.795h-0.026c-0.407,0-0.737-0.33-0.737-0.737v-0.512c0-0.407,0.33-0.737,0.737-0.737h0.026
		c0.407,0,0.737,0.33,0.737,0.737v0.512C116.031,110.465,115.701,110.795,115.294,110.795 M115.294,106.823h-0.026
		c-0.407,0-0.737-0.33-0.737-0.737v-0.512c0-0.407,0.33-0.737,0.737-0.737h0.026c0.407,0,0.737,0.33,0.737,0.737v0.512
		C116.031,106.493,115.701,106.823,115.294,106.823 M115.294,102.85h-0.026c-0.407,0-0.737-0.33-0.737-0.737v-0.512
		c0-0.407,0.33-0.737,0.737-0.737h0.026c0.407,0,0.737,0.33,0.737,0.737v0.512C116.031,102.52,115.701,102.85,115.294,102.85
		 M115.294,98.878h-0.026c-0.407,0-0.737-0.33-0.737-0.737v-0.513c0-0.407,0.33-0.737,0.737-0.737h0.026
		c0.407,0,0.737,0.33,0.737,0.737v0.513C116.031,98.548,115.701,98.878,115.294,98.878 M115.294,94.905h-0.026
		c-0.407,0-0.737-0.33-0.737-0.737v-0.512c0-0.407,0.33-0.737,0.737-0.737h0.026c0.407,0,0.737,0.33,0.737,0.737v0.512
		C116.031,94.575,115.701,94.905,115.294,94.905 M115.294,90.932h-0.026c-0.407,0-0.737-0.33-0.737-0.737v-0.511
		c0-0.407,0.33-0.737,0.737-0.737h0.026c0.407,0,0.737,0.33,0.737,0.737v0.511C116.031,90.602,115.701,90.932,115.294,90.932
		 M115.294,86.96h-0.026c-0.407,0-0.737-0.33-0.737-0.737v-0.512c0-0.407,0.33-0.737,0.737-0.737h0.026
		c0.407,0,0.737,0.33,0.737,0.737v0.512C116.031,86.63,115.701,86.96,115.294,86.96 M115.294,82.988h-0.026
		c-0.407,0-0.737-0.33-0.737-0.737v-0.513c0-0.407,0.33-0.737,0.737-0.737h0.026c0.407,0,0.737,0.33,0.737,0.737v0.513
		C116.031,82.658,115.701,82.988,115.294,82.988 M115.294,79.015h-0.026c-0.407,0-0.737-0.33-0.737-0.737v-0.512
		c0-0.407,0.33-0.737,0.737-0.737h0.026c0.407,0,0.737,0.33,0.737,0.737v0.512C116.031,78.685,115.701,79.015,115.294,79.015
		 M115.294,75.043h-0.026c-0.407,0-0.737-0.33-0.737-0.737v-0.513c0-0.407,0.33-0.737,0.737-0.737h0.026
		c0.407,0,0.737,0.33,0.737,0.737v0.513C116.031,74.713,115.701,75.043,115.294,75.043 M115.294,71.07h-0.026
		c-0.407,0-0.737-0.33-0.737-0.737v-0.512c0-0.407,0.33-0.737,0.737-0.737h0.026c0.407,0,0.737,0.33,0.737,0.737v0.512
		C116.031,70.74,115.701,71.07,115.294,71.07 M115.294,67.097h-0.026c-0.407,0-0.737-0.329-0.737-0.737v-0.512
		c0-0.407,0.33-0.737,0.737-0.737h0.026c0.407,0,0.737,0.33,0.737,0.737v0.512C116.031,66.768,115.701,67.097,115.294,67.097
		 M115.294,63.125h-0.026c-0.407,0-0.737-0.33-0.737-0.737v-0.512c0-0.408,0.33-0.738,0.737-0.738h0.026
		c0.407,0,0.737,0.33,0.737,0.738v0.512C116.031,62.795,115.701,63.125,115.294,63.125 M115.294,59.153h-0.026
		c-0.407,0-0.737-0.33-0.737-0.737v-0.513c0-0.407,0.33-0.737,0.737-0.737h0.026c0.407,0,0.737,0.33,0.737,0.737v0.513
		C116.031,58.823,115.701,59.153,115.294,59.153 M115.294,55.18h-0.026c-0.407,0-0.737-0.33-0.737-0.737v-0.512
		c0-0.407,0.33-0.737,0.737-0.737h0.026c0.407,0,0.737,0.33,0.737,0.737v0.512C116.031,54.85,115.701,55.18,115.294,55.18"/>
	<path fill="none" stroke="#194596" stroke-width="0.75" stroke-miterlimit="10" d="M115.294,174.356
		h-0.026c-0.407,0-0.737-0.33-0.737-0.737v-0.513c0-0.407,0.33-0.737,0.737-0.737h0.026c0.407,0,0.737,0.33,0.737,0.737v0.513
		C116.031,174.026,115.701,174.356,115.294,174.356z M115.294,170.383h-0.026c-0.407,0-0.737-0.33-0.737-0.737v-0.512
		c0-0.407,0.33-0.737,0.737-0.737h0.026c0.407,0,0.737,0.33,0.737,0.737v0.512C116.031,170.053,115.701,170.383,115.294,170.383z
		 M115.294,166.41h-0.026c-0.407,0-0.737-0.33-0.737-0.737v-0.512c0-0.407,0.33-0.737,0.737-0.737h0.026
		c0.407,0,0.737,0.33,0.737,0.737v0.512C116.031,166.08,115.701,166.41,115.294,166.41z M115.294,162.438h-0.026
		c-0.407,0-0.737-0.33-0.737-0.737v-0.512c0-0.407,0.33-0.737,0.737-0.737h0.026c0.407,0,0.737,0.33,0.737,0.737v0.512
		C116.031,162.108,115.701,162.438,115.294,162.438z M115.294,158.466h-0.026c-0.407,0-0.737-0.33-0.737-0.737v-0.513
		c0-0.407,0.33-0.737,0.737-0.737h0.026c0.407,0,0.737,0.33,0.737,0.737v0.513C116.031,158.136,115.701,158.466,115.294,158.466z
		 M115.294,154.493h-0.026c-0.407,0-0.737-0.33-0.737-0.737v-0.512c0-0.407,0.33-0.737,0.737-0.737h0.026
		c0.407,0,0.737,0.33,0.737,0.737v0.512C116.031,154.163,115.701,154.493,115.294,154.493z M115.294,150.52h-0.026
		c-0.407,0-0.737-0.33-0.737-0.737v-0.511c0-0.408,0.33-0.738,0.737-0.738h0.026c0.407,0,0.737,0.33,0.737,0.738v0.511
		C116.031,150.19,115.701,150.52,115.294,150.52z M115.294,146.548h-0.026c-0.407,0-0.737-0.33-0.737-0.737v-0.512
		c0-0.407,0.33-0.737,0.737-0.737h0.026c0.407,0,0.737,0.33,0.737,0.737v0.512C116.031,146.218,115.701,146.548,115.294,146.548z
		 M115.294,142.576h-0.026c-0.407,0-0.737-0.33-0.737-0.737v-0.513c0-0.407,0.33-0.737,0.737-0.737h0.026
		c0.407,0,0.737,0.33,0.737,0.737v0.513C116.031,142.246,115.701,142.576,115.294,142.576z M115.294,138.603h-0.026
		c-0.407,0-0.737-0.33-0.737-0.737v-0.512c0-0.408,0.33-0.737,0.737-0.737h0.026c0.407,0,0.737,0.329,0.737,0.737v0.512
		C116.031,138.273,115.701,138.603,115.294,138.603z M115.294,134.63h-0.026c-0.407,0-0.737-0.33-0.737-0.737v-0.512
		c0-0.407,0.33-0.737,0.737-0.737h0.026c0.407,0,0.737,0.33,0.737,0.737v0.512C116.031,134.3,115.701,134.63,115.294,134.63z
		 M115.294,130.658h-0.026c-0.407,0-0.737-0.33-0.737-0.737v-0.512c0-0.407,0.33-0.737,0.737-0.737h0.026
		c0.407,0,0.737,0.33,0.737,0.737v0.512C116.031,130.328,115.701,130.658,115.294,130.658z M115.294,126.685h-0.026
		c-0.407,0-0.737-0.33-0.737-0.737v-0.512c0-0.407,0.33-0.737,0.737-0.737h0.026c0.407,0,0.737,0.33,0.737,0.737v0.512
		C116.031,126.355,115.701,126.685,115.294,126.685z M115.294,122.713h-0.026c-0.407,0-0.737-0.33-0.737-0.737v-0.513
		c0-0.407,0.33-0.737,0.737-0.737h0.026c0.407,0,0.737,0.33,0.737,0.737v0.513C116.031,122.383,115.701,122.713,115.294,122.713z
		 M115.294,118.741h-0.026c-0.407,0-0.737-0.33-0.737-0.737v-0.513c0-0.407,0.33-0.737,0.737-0.737h0.026
		c0.407,0,0.737,0.33,0.737,0.737v0.513C116.031,118.411,115.701,118.741,115.294,118.741z M115.294,114.768h-0.026
		c-0.407,0-0.737-0.33-0.737-0.737v-0.512c0-0.407,0.33-0.737,0.737-0.737h0.026c0.407,0,0.737,0.33,0.737,0.737v0.512
		C116.031,114.438,115.701,114.768,115.294,114.768z M115.294,110.795h-0.026c-0.407,0-0.737-0.33-0.737-0.737v-0.512
		c0-0.407,0.33-0.737,0.737-0.737h0.026c0.407,0,0.737,0.33,0.737,0.737v0.512C116.031,110.465,115.701,110.795,115.294,110.795z
		 M115.294,106.823h-0.026c-0.407,0-0.737-0.33-0.737-0.737v-0.512c0-0.407,0.33-0.737,0.737-0.737h0.026
		c0.407,0,0.737,0.33,0.737,0.737v0.512C116.031,106.493,115.701,106.823,115.294,106.823z M115.294,102.85h-0.026
		c-0.407,0-0.737-0.33-0.737-0.737v-0.512c0-0.407,0.33-0.737,0.737-0.737h0.026c0.407,0,0.737,0.33,0.737,0.737v0.512
		C116.031,102.52,115.701,102.85,115.294,102.85z M115.294,98.878h-0.026c-0.407,0-0.737-0.33-0.737-0.737v-0.513
		c0-0.407,0.33-0.737,0.737-0.737h0.026c0.407,0,0.737,0.33,0.737,0.737v0.513C116.031,98.548,115.701,98.878,115.294,98.878z
		 M115.294,94.905h-0.026c-0.407,0-0.737-0.33-0.737-0.737v-0.512c0-0.407,0.33-0.737,0.737-0.737h0.026
		c0.407,0,0.737,0.33,0.737,0.737v0.512C116.031,94.575,115.701,94.905,115.294,94.905z M115.294,90.932h-0.026
		c-0.407,0-0.737-0.33-0.737-0.737v-0.511c0-0.407,0.33-0.737,0.737-0.737h0.026c0.407,0,0.737,0.33,0.737,0.737v0.511
		C116.031,90.602,115.701,90.932,115.294,90.932z M115.294,86.96h-0.026c-0.407,0-0.737-0.33-0.737-0.737v-0.512
		c0-0.407,0.33-0.737,0.737-0.737h0.026c0.407,0,0.737,0.33,0.737,0.737v0.512C116.031,86.63,115.701,86.96,115.294,86.96z
		 M115.294,82.988h-0.026c-0.407,0-0.737-0.33-0.737-0.737v-0.513c0-0.407,0.33-0.737,0.737-0.737h0.026
		c0.407,0,0.737,0.33,0.737,0.737v0.513C116.031,82.658,115.701,82.988,115.294,82.988z M115.294,79.015h-0.026
		c-0.407,0-0.737-0.33-0.737-0.737v-0.512c0-0.407,0.33-0.737,0.737-0.737h0.026c0.407,0,0.737,0.33,0.737,0.737v0.512
		C116.031,78.685,115.701,79.015,115.294,79.015z M115.294,75.043h-0.026c-0.407,0-0.737-0.33-0.737-0.737v-0.513
		c0-0.407,0.33-0.737,0.737-0.737h0.026c0.407,0,0.737,0.33,0.737,0.737v0.513C116.031,74.713,115.701,75.043,115.294,75.043z
		 M115.294,71.07h-0.026c-0.407,0-0.737-0.33-0.737-0.737v-0.512c0-0.407,0.33-0.737,0.737-0.737h0.026
		c0.407,0,0.737,0.33,0.737,0.737v0.512C116.031,70.74,115.701,71.07,115.294,71.07z M115.294,67.097h-0.026
		c-0.407,0-0.737-0.329-0.737-0.737v-0.512c0-0.407,0.33-0.737,0.737-0.737h0.026c0.407,0,0.737,0.33,0.737,0.737v0.512
		C116.031,66.768,115.701,67.097,115.294,67.097z M115.294,63.125h-0.026c-0.407,0-0.737-0.33-0.737-0.737v-0.512
		c0-0.408,0.33-0.738,0.737-0.738h0.026c0.407,0,0.737,0.33,0.737,0.738v0.512C116.031,62.795,115.701,63.125,115.294,63.125z
		 M115.294,59.153h-0.026c-0.407,0-0.737-0.33-0.737-0.737v-0.513c0-0.407,0.33-0.737,0.737-0.737h0.026
		c0.407,0,0.737,0.33,0.737,0.737v0.513C116.031,58.823,115.701,59.153,115.294,59.153z M115.294,55.18h-0.026
		c-0.407,0-0.737-0.33-0.737-0.737v-0.512c0-0.407,0.33-0.737,0.737-0.737h0.026c0.407,0,0.737,0.33,0.737,0.737v0.512
		C116.031,54.85,115.701,55.18,115.294,55.18z"/>
	<rect x="114.531" y="176.342" fill="#194596" width="1.5" height="1"/>
	
		<rect x="114.531" y="176.342" fill="none" stroke="#194596" stroke-width="0.75" stroke-miterlimit="10" width="1.5" height="1"/>
	<rect x="149.273" y="34.093" fill="#194596" width="1.5" height="1"/>
	
		<rect x="149.273" y="34.093" fill="none" stroke="#194596" stroke-width="0.75" stroke-miterlimit="10" width="1.5" height="1"/>
	<path fill="#194596" d="M150.036,174.352h-0.026c-0.407,0-0.737-0.33-0.737-0.737V173.1
		c0-0.408,0.33-0.737,0.737-0.737h0.026c0.407,0,0.737,0.329,0.737,0.737v0.515C150.773,174.022,150.443,174.352,150.036,174.352
		 M150.036,170.373h-0.026c-0.407,0-0.737-0.33-0.737-0.737v-0.515c0-0.408,0.33-0.738,0.737-0.738h0.026
		c0.407,0,0.737,0.33,0.737,0.738v0.515C150.773,170.043,150.443,170.373,150.036,170.373 M150.036,166.394h-0.026
		c-0.407,0-0.737-0.33-0.737-0.737v-0.515c0-0.408,0.33-0.738,0.737-0.738h0.026c0.407,0,0.737,0.33,0.737,0.738v0.515
		C150.773,166.064,150.443,166.394,150.036,166.394 M150.036,162.415h-0.026c-0.407,0-0.737-0.33-0.737-0.737v-0.515
		c0-0.407,0.33-0.737,0.737-0.737h0.026c0.407,0,0.737,0.33,0.737,0.737v0.515C150.773,162.085,150.443,162.415,150.036,162.415
		 M150.036,158.436h-0.026c-0.407,0-0.737-0.33-0.737-0.737v-0.515c0-0.407,0.33-0.737,0.737-0.737h0.026
		c0.407,0,0.737,0.33,0.737,0.737v0.515C150.773,158.106,150.443,158.436,150.036,158.436 M150.036,154.458h-0.026
		c-0.407,0-0.737-0.33-0.737-0.737v-0.516c0-0.407,0.33-0.737,0.737-0.737h0.026c0.407,0,0.737,0.33,0.737,0.737v0.516
		C150.773,154.128,150.443,154.458,150.036,154.458 M150.036,150.479h-0.026c-0.407,0-0.737-0.33-0.737-0.737v-0.516
		c0-0.407,0.33-0.737,0.737-0.737h0.026c0.407,0,0.737,0.33,0.737,0.737v0.516C150.773,150.149,150.443,150.479,150.036,150.479
		 M150.036,146.5h-0.026c-0.407,0-0.737-0.33-0.737-0.737v-0.516c0-0.407,0.33-0.737,0.737-0.737h0.026
		c0.407,0,0.737,0.33,0.737,0.737v0.516C150.773,146.17,150.443,146.5,150.036,146.5 M150.036,142.521h-0.026
		c-0.407,0-0.737-0.33-0.737-0.737v-0.516c0-0.407,0.33-0.737,0.737-0.737h0.026c0.407,0,0.737,0.33,0.737,0.737v0.516
		C150.773,142.191,150.443,142.521,150.036,142.521 M150.036,138.542h-0.026c-0.407,0-0.737-0.33-0.737-0.737v-0.515
		c0-0.407,0.33-0.737,0.737-0.737h0.026c0.407,0,0.737,0.33,0.737,0.737v0.515C150.773,138.212,150.443,138.542,150.036,138.542
		 M150.036,134.563h-0.026c-0.407,0-0.737-0.33-0.737-0.737v-0.515c0-0.407,0.33-0.737,0.737-0.737h0.026
		c0.407,0,0.737,0.33,0.737,0.737v0.515C150.773,134.233,150.443,134.563,150.036,134.563 M150.036,130.585h-0.026
		c-0.407,0-0.737-0.33-0.737-0.737v-0.516c0-0.407,0.33-0.737,0.737-0.737h0.026c0.407,0,0.737,0.33,0.737,0.737v0.516
		C150.773,130.255,150.443,130.585,150.036,130.585 M150.036,126.606h-0.026c-0.407,0-0.737-0.33-0.737-0.737v-0.516
		c0-0.407,0.33-0.737,0.737-0.737h0.026c0.407,0,0.737,0.33,0.737,0.737v0.516C150.773,126.276,150.443,126.606,150.036,126.606
		 M150.036,122.627h-0.026c-0.407,0-0.737-0.33-0.737-0.737v-0.516c0-0.407,0.33-0.737,0.737-0.737h0.026
		c0.407,0,0.737,0.33,0.737,0.737v0.516C150.773,122.297,150.443,122.627,150.036,122.627 M150.036,118.648h-0.026
		c-0.407,0-0.737-0.33-0.737-0.737v-0.516c0-0.407,0.33-0.737,0.737-0.737h0.026c0.407,0,0.737,0.33,0.737,0.737v0.516
		C150.773,118.318,150.443,118.648,150.036,118.648 M150.036,114.669h-0.026c-0.407,0-0.737-0.33-0.737-0.737v-0.515
		c0-0.407,0.33-0.737,0.737-0.737h0.026c0.407,0,0.737,0.33,0.737,0.737v0.515C150.773,114.339,150.443,114.669,150.036,114.669
		 M150.036,110.69h-0.026c-0.407,0-0.737-0.33-0.737-0.737v-0.515c0-0.407,0.33-0.737,0.737-0.737h0.026
		c0.407,0,0.737,0.33,0.737,0.737v0.515C150.773,110.36,150.443,110.69,150.036,110.69 M150.036,106.712h-0.026
		c-0.407,0-0.737-0.33-0.737-0.737v-0.516c0-0.407,0.33-0.737,0.737-0.737h0.026c0.407,0,0.737,0.33,0.737,0.737v0.516
		C150.773,106.382,150.443,106.712,150.036,106.712 M150.036,102.733h-0.026c-0.407,0-0.737-0.33-0.737-0.737v-0.516
		c0-0.407,0.33-0.737,0.737-0.737h0.026c0.407,0,0.737,0.33,0.737,0.737v0.516C150.773,102.403,150.443,102.733,150.036,102.733
		 M150.036,98.754h-0.026c-0.407,0-0.737-0.33-0.737-0.737v-0.516c0-0.407,0.33-0.737,0.737-0.737h0.026
		c0.407,0,0.737,0.33,0.737,0.737v0.516C150.773,98.424,150.443,98.754,150.036,98.754 M150.036,94.775h-0.026
		c-0.407,0-0.737-0.33-0.737-0.737v-0.516c0-0.407,0.33-0.737,0.737-0.737h0.026c0.407,0,0.737,0.33,0.737,0.737v0.516
		C150.773,94.445,150.443,94.775,150.036,94.775 M150.036,90.796h-0.026c-0.407,0-0.737-0.33-0.737-0.737v-0.515
		c0-0.407,0.33-0.737,0.737-0.737h0.026c0.407,0,0.737,0.33,0.737,0.737v0.515C150.773,90.466,150.443,90.796,150.036,90.796
		 M150.036,86.817h-0.026c-0.407,0-0.737-0.33-0.737-0.737v-0.515c0-0.407,0.33-0.737,0.737-0.737h0.026
		c0.407,0,0.737,0.33,0.737,0.737v0.515C150.773,86.487,150.443,86.817,150.036,86.817 M150.036,82.839h-0.026
		c-0.407,0-0.737-0.33-0.737-0.737v-0.516c0-0.407,0.33-0.737,0.737-0.737h0.026c0.407,0,0.737,0.33,0.737,0.737v0.516
		C150.773,82.509,150.443,82.839,150.036,82.839 M150.036,78.86h-0.026c-0.407,0-0.737-0.33-0.737-0.737v-0.516
		c0-0.407,0.33-0.737,0.737-0.737h0.026c0.407,0,0.737,0.33,0.737,0.737v0.516C150.773,78.53,150.443,78.86,150.036,78.86
		 M150.036,74.881h-0.026c-0.407,0-0.737-0.33-0.737-0.737v-0.516c0-0.407,0.33-0.737,0.737-0.737h0.026
		c0.407,0,0.737,0.33,0.737,0.737v0.516C150.773,74.551,150.443,74.881,150.036,74.881 M150.036,70.902h-0.026
		c-0.407,0-0.737-0.33-0.737-0.737v-0.516c0-0.407,0.33-0.737,0.737-0.737h0.026c0.407,0,0.737,0.33,0.737,0.737v0.516
		C150.773,70.572,150.443,70.902,150.036,70.902 M150.036,66.923h-0.026c-0.407,0-0.737-0.33-0.737-0.737v-0.515
		c0-0.407,0.33-0.737,0.737-0.737h0.026c0.407,0,0.737,0.33,0.737,0.737v0.515C150.773,66.593,150.443,66.923,150.036,66.923
		 M150.036,62.944h-0.026c-0.407,0-0.737-0.33-0.737-0.737v-0.515c0-0.407,0.33-0.737,0.737-0.737h0.026
		c0.407,0,0.737,0.33,0.737,0.737v0.515C150.773,62.614,150.443,62.944,150.036,62.944 M150.036,58.966h-0.026
		c-0.407,0-0.737-0.33-0.737-0.737v-0.516c0-0.407,0.33-0.737,0.737-0.737h0.026c0.407,0,0.737,0.33,0.737,0.737v0.516
		C150.773,58.636,150.443,58.966,150.036,58.966 M150.036,54.987h-0.026c-0.407,0-0.737-0.33-0.737-0.737v-0.516
		c0-0.407,0.33-0.737,0.737-0.737h0.026c0.407,0,0.737,0.33,0.737,0.737v0.516C150.773,54.657,150.443,54.987,150.036,54.987
		 M150.036,51.008h-0.026c-0.407,0-0.737-0.33-0.737-0.737v-0.516c0-0.407,0.33-0.737,0.737-0.737h0.026
		c0.407,0,0.737,0.33,0.737,0.737v0.516C150.773,50.678,150.443,51.008,150.036,51.008 M150.036,47.029h-0.026
		c-0.407,0-0.737-0.33-0.737-0.737v-0.516c0-0.407,0.33-0.737,0.737-0.737h0.026c0.407,0,0.737,0.33,0.737,0.737v0.516
		C150.773,46.699,150.443,47.029,150.036,47.029 M150.036,43.05h-0.026c-0.407,0-0.737-0.33-0.737-0.737v-0.515
		c0-0.407,0.33-0.737,0.737-0.737h0.026c0.407,0,0.737,0.33,0.737,0.737v0.515C150.773,42.72,150.443,43.05,150.036,43.05
		 M150.036,39.071h-0.026c-0.407,0-0.737-0.33-0.737-0.737v-0.515c0-0.407,0.33-0.737,0.737-0.737h0.026
		c0.407,0,0.737,0.33,0.737,0.737v0.515C150.773,38.741,150.443,39.071,150.036,39.071"/>
	<path fill="none" stroke="#194596" stroke-width="0.75" stroke-miterlimit="10" d="M150.036,174.352
		h-0.026c-0.407,0-0.737-0.33-0.737-0.737V173.1c0-0.408,0.33-0.737,0.737-0.737h0.026c0.407,0,0.737,0.329,0.737,0.737v0.515
		C150.773,174.022,150.443,174.352,150.036,174.352z M150.036,170.373h-0.026c-0.407,0-0.737-0.33-0.737-0.737v-0.515
		c0-0.408,0.33-0.738,0.737-0.738h0.026c0.407,0,0.737,0.33,0.737,0.738v0.515C150.773,170.043,150.443,170.373,150.036,170.373z
		 M150.036,166.394h-0.026c-0.407,0-0.737-0.33-0.737-0.737v-0.515c0-0.408,0.33-0.738,0.737-0.738h0.026
		c0.407,0,0.737,0.33,0.737,0.738v0.515C150.773,166.064,150.443,166.394,150.036,166.394z M150.036,162.415h-0.026
		c-0.407,0-0.737-0.33-0.737-0.737v-0.515c0-0.407,0.33-0.737,0.737-0.737h0.026c0.407,0,0.737,0.33,0.737,0.737v0.515
		C150.773,162.085,150.443,162.415,150.036,162.415z M150.036,158.436h-0.026c-0.407,0-0.737-0.33-0.737-0.737v-0.515
		c0-0.407,0.33-0.737,0.737-0.737h0.026c0.407,0,0.737,0.33,0.737,0.737v0.515C150.773,158.106,150.443,158.436,150.036,158.436z
		 M150.036,154.458h-0.026c-0.407,0-0.737-0.33-0.737-0.737v-0.516c0-0.407,0.33-0.737,0.737-0.737h0.026
		c0.407,0,0.737,0.33,0.737,0.737v0.516C150.773,154.128,150.443,154.458,150.036,154.458z M150.036,150.479h-0.026
		c-0.407,0-0.737-0.33-0.737-0.737v-0.516c0-0.407,0.33-0.737,0.737-0.737h0.026c0.407,0,0.737,0.33,0.737,0.737v0.516
		C150.773,150.149,150.443,150.479,150.036,150.479z M150.036,146.5h-0.026c-0.407,0-0.737-0.33-0.737-0.737v-0.516
		c0-0.407,0.33-0.737,0.737-0.737h0.026c0.407,0,0.737,0.33,0.737,0.737v0.516C150.773,146.17,150.443,146.5,150.036,146.5z
		 M150.036,142.521h-0.026c-0.407,0-0.737-0.33-0.737-0.737v-0.516c0-0.407,0.33-0.737,0.737-0.737h0.026
		c0.407,0,0.737,0.33,0.737,0.737v0.516C150.773,142.191,150.443,142.521,150.036,142.521z M150.036,138.542h-0.026
		c-0.407,0-0.737-0.33-0.737-0.737v-0.515c0-0.407,0.33-0.737,0.737-0.737h0.026c0.407,0,0.737,0.33,0.737,0.737v0.515
		C150.773,138.212,150.443,138.542,150.036,138.542z M150.036,134.563h-0.026c-0.407,0-0.737-0.33-0.737-0.737v-0.515
		c0-0.407,0.33-0.737,0.737-0.737h0.026c0.407,0,0.737,0.33,0.737,0.737v0.515C150.773,134.233,150.443,134.563,150.036,134.563z
		 M150.036,130.585h-0.026c-0.407,0-0.737-0.33-0.737-0.737v-0.516c0-0.407,0.33-0.737,0.737-0.737h0.026
		c0.407,0,0.737,0.33,0.737,0.737v0.516C150.773,130.255,150.443,130.585,150.036,130.585z M150.036,126.606h-0.026
		c-0.407,0-0.737-0.33-0.737-0.737v-0.516c0-0.407,0.33-0.737,0.737-0.737h0.026c0.407,0,0.737,0.33,0.737,0.737v0.516
		C150.773,126.276,150.443,126.606,150.036,126.606z M150.036,122.627h-0.026c-0.407,0-0.737-0.33-0.737-0.737v-0.516
		c0-0.407,0.33-0.737,0.737-0.737h0.026c0.407,0,0.737,0.33,0.737,0.737v0.516C150.773,122.297,150.443,122.627,150.036,122.627z
		 M150.036,118.648h-0.026c-0.407,0-0.737-0.33-0.737-0.737v-0.516c0-0.407,0.33-0.737,0.737-0.737h0.026
		c0.407,0,0.737,0.33,0.737,0.737v0.516C150.773,118.318,150.443,118.648,150.036,118.648z M150.036,114.669h-0.026
		c-0.407,0-0.737-0.33-0.737-0.737v-0.515c0-0.407,0.33-0.737,0.737-0.737h0.026c0.407,0,0.737,0.33,0.737,0.737v0.515
		C150.773,114.339,150.443,114.669,150.036,114.669z M150.036,110.69h-0.026c-0.407,0-0.737-0.33-0.737-0.737v-0.515
		c0-0.407,0.33-0.737,0.737-0.737h0.026c0.407,0,0.737,0.33,0.737,0.737v0.515C150.773,110.36,150.443,110.69,150.036,110.69z
		 M150.036,106.712h-0.026c-0.407,0-0.737-0.33-0.737-0.737v-0.516c0-0.407,0.33-0.737,0.737-0.737h0.026
		c0.407,0,0.737,0.33,0.737,0.737v0.516C150.773,106.382,150.443,106.712,150.036,106.712z M150.036,102.733h-0.026
		c-0.407,0-0.737-0.33-0.737-0.737v-0.516c0-0.407,0.33-0.737,0.737-0.737h0.026c0.407,0,0.737,0.33,0.737,0.737v0.516
		C150.773,102.403,150.443,102.733,150.036,102.733z M150.036,98.754h-0.026c-0.407,0-0.737-0.33-0.737-0.737v-0.516
		c0-0.407,0.33-0.737,0.737-0.737h0.026c0.407,0,0.737,0.33,0.737,0.737v0.516C150.773,98.424,150.443,98.754,150.036,98.754z
		 M150.036,94.775h-0.026c-0.407,0-0.737-0.33-0.737-0.737v-0.516c0-0.407,0.33-0.737,0.737-0.737h0.026
		c0.407,0,0.737,0.33,0.737,0.737v0.516C150.773,94.445,150.443,94.775,150.036,94.775z M150.036,90.796h-0.026
		c-0.407,0-0.737-0.33-0.737-0.737v-0.515c0-0.407,0.33-0.737,0.737-0.737h0.026c0.407,0,0.737,0.33,0.737,0.737v0.515
		C150.773,90.466,150.443,90.796,150.036,90.796z M150.036,86.817h-0.026c-0.407,0-0.737-0.33-0.737-0.737v-0.515
		c0-0.407,0.33-0.737,0.737-0.737h0.026c0.407,0,0.737,0.33,0.737,0.737v0.515C150.773,86.487,150.443,86.817,150.036,86.817z
		 M150.036,82.839h-0.026c-0.407,0-0.737-0.33-0.737-0.737v-0.516c0-0.407,0.33-0.737,0.737-0.737h0.026
		c0.407,0,0.737,0.33,0.737,0.737v0.516C150.773,82.509,150.443,82.839,150.036,82.839z M150.036,78.86h-0.026
		c-0.407,0-0.737-0.33-0.737-0.737v-0.516c0-0.407,0.33-0.737,0.737-0.737h0.026c0.407,0,0.737,0.33,0.737,0.737v0.516
		C150.773,78.53,150.443,78.86,150.036,78.86z M150.036,74.881h-0.026c-0.407,0-0.737-0.33-0.737-0.737v-0.516
		c0-0.407,0.33-0.737,0.737-0.737h0.026c0.407,0,0.737,0.33,0.737,0.737v0.516C150.773,74.551,150.443,74.881,150.036,74.881z
		 M150.036,70.902h-0.026c-0.407,0-0.737-0.33-0.737-0.737v-0.516c0-0.407,0.33-0.737,0.737-0.737h0.026
		c0.407,0,0.737,0.33,0.737,0.737v0.516C150.773,70.572,150.443,70.902,150.036,70.902z M150.036,66.923h-0.026
		c-0.407,0-0.737-0.33-0.737-0.737v-0.515c0-0.407,0.33-0.737,0.737-0.737h0.026c0.407,0,0.737,0.33,0.737,0.737v0.515
		C150.773,66.593,150.443,66.923,150.036,66.923z M150.036,62.944h-0.026c-0.407,0-0.737-0.33-0.737-0.737v-0.515
		c0-0.407,0.33-0.737,0.737-0.737h0.026c0.407,0,0.737,0.33,0.737,0.737v0.515C150.773,62.614,150.443,62.944,150.036,62.944z
		 M150.036,58.966h-0.026c-0.407,0-0.737-0.33-0.737-0.737v-0.516c0-0.407,0.33-0.737,0.737-0.737h0.026
		c0.407,0,0.737,0.33,0.737,0.737v0.516C150.773,58.636,150.443,58.966,150.036,58.966z M150.036,54.987h-0.026
		c-0.407,0-0.737-0.33-0.737-0.737v-0.516c0-0.407,0.33-0.737,0.737-0.737h0.026c0.407,0,0.737,0.33,0.737,0.737v0.516
		C150.773,54.657,150.443,54.987,150.036,54.987z M150.036,51.008h-0.026c-0.407,0-0.737-0.33-0.737-0.737v-0.516
		c0-0.407,0.33-0.737,0.737-0.737h0.026c0.407,0,0.737,0.33,0.737,0.737v0.516C150.773,50.678,150.443,51.008,150.036,51.008z
		 M150.036,47.029h-0.026c-0.407,0-0.737-0.33-0.737-0.737v-0.516c0-0.407,0.33-0.737,0.737-0.737h0.026
		c0.407,0,0.737,0.33,0.737,0.737v0.516C150.773,46.699,150.443,47.029,150.036,47.029z M150.036,43.05h-0.026
		c-0.407,0-0.737-0.33-0.737-0.737v-0.515c0-0.407,0.33-0.737,0.737-0.737h0.026c0.407,0,0.737,0.33,0.737,0.737v0.515
		C150.773,42.72,150.443,43.05,150.036,43.05z M150.036,39.071h-0.026c-0.407,0-0.737-0.33-0.737-0.737v-0.515
		c0-0.407,0.33-0.737,0.737-0.737h0.026c0.407,0,0.737,0.33,0.737,0.737v0.515C150.773,38.741,150.443,39.071,150.036,39.071z"/>
	<rect x="149.273" y="176.342" fill="#194596" width="1.5" height="1"/>
	
		<rect x="149.273" y="176.342" fill="none" stroke="#194596" stroke-width="0.75" stroke-miterlimit="10" width="1.5" height="1"/>
	<path fill="#194596" d="M43.546,171.142v7.148c0,2.895,4.5,2.9,4.5,0v-7.148
		C48.046,168.246,43.546,168.242,43.546,171.142"/>
	<path fill="none" stroke="#194596" stroke-width="0.75" stroke-miterlimit="10" d="M43.546,171.142
		v7.148c0,2.895,4.5,2.9,4.5,0v-7.148C48.046,168.246,43.546,168.242,43.546,171.142z"/>
	<path fill="#194596" d="M78.288,171.142v7.148c0,2.895,4.5,2.9,4.5,0v-7.148
		C82.788,168.246,78.288,168.242,78.288,171.142"/>
	<path fill="none" stroke="#194596" stroke-width="0.75" stroke-miterlimit="10" d="M78.288,171.142
		v7.148c0,2.895,4.5,2.9,4.5,0v-7.148C82.788,168.246,78.288,168.242,78.288,171.142z"/>
	<path fill="#194596" d="M113.031,171.142v7.148c0,2.895,4.5,2.9,4.5,0v-7.148
		C117.531,168.246,113.031,168.242,113.031,171.142"/>
	<path fill="none" stroke="#194596" stroke-width="0.75" stroke-miterlimit="10" d="M113.031,171.142
		v7.148c0,2.895,4.5,2.9,4.5,0v-7.148C117.531,168.246,113.031,168.242,113.031,171.142z"/>
	<path fill="#194596" d="M147.773,171.142v7.148c0,2.895,4.5,2.9,4.5,0v-7.148
		C152.273,168.246,147.773,168.242,147.773,171.142"/>
	<path fill="none" stroke="#194596" stroke-width="0.75" stroke-miterlimit="10" d="M147.773,171.142
		v7.148c0,2.895,4.5,2.9,4.5,0v-7.148C152.273,168.246,147.773,168.242,147.773,171.142z"/>
	<path fill="#194596" d="M2.549,172.581H65.07h99.606h22.804c2.896,0,2.901-4.5,0-4.5h-62.52H25.353
		H2.549C-0.347,168.081-0.351,172.581,2.549,172.581"/>
	<path fill="none" stroke="#194596" stroke-width="0.75" stroke-miterlimit="10" d="M2.549,172.581
		H65.07h99.606h22.804c2.896,0,2.901-4.5,0-4.5h-62.52H25.353H2.549C-0.347,168.081-0.351,172.581,2.549,172.581z"/>
	<path fill="#194596" d="M2.548,137.293h7.161c2.896,0,2.901-4.5,0-4.5H2.548
		C-0.348,132.793-0.352,137.293,2.548,137.293"/>
	<path fill="none" stroke="#194596" stroke-width="0.75" stroke-miterlimit="10" d="M2.548,137.293
		h7.161c2.896,0,2.901-4.5,0-4.5H2.548C-0.348,132.793-0.352,137.293,2.548,137.293z"/>
	<path fill="#194596" d="M10.845,136.986l32.384-18.756c3.19-1.848,4.354-2.607,5.862-5.949
		c2.984-6.61,5.967-13.22,8.95-19.83c2.483-5.5,4.965-11,7.447-16.5h-3.885c5.665,9.4,11.33,18.801,16.995,28.201
		c0.898,1.489,2.974,1.418,3.886,0C87.47,96.4,92.457,88.65,97.443,80.899c6.207-9.648,13.154-19.123,18.749-29.142
		c1.076-1.928,1.464-1.036-0.236-0.602c1.502-0.383,3.051-1.283,4.472-1.881c6.061-2.548,12.122-5.097,18.183-7.646
		c4.101-1.724,8.761-3.11,12.636-5.314c2.579-1.467,4.588-4.122,6.677-6.224c8.572-8.625,17.145-17.25,25.718-25.874
		c-1.28-0.531-2.561-1.061-3.841-1.591v16.609c0,2.895,4.5,2.9,4.5,0V2.626c0-1.944-2.465-2.976-3.841-1.591
		c-7.584,7.629-15.167,15.259-22.751,22.889c-2.817,2.833-5.518,5.903-8.506,8.558c1.748-1.554-0.872,0.217-1.83,0.62
		c-2.738,1.152-5.477,2.303-8.216,3.455c-6.193,2.605-12.387,5.209-18.581,7.814c-2.433,1.023-5.643,1.786-7.411,3.781
		c-2.349,2.649-4.066,6.32-5.977,9.29c-3.651,5.674-7.301,11.349-10.952,17.023c-5.879,9.138-11.758,18.277-17.638,27.416h3.886
		c-5.665-9.401-11.33-18.801-16.996-28.201c-0.799-1.326-3.162-1.602-3.885,0c-2.89,6.403-5.78,12.806-8.671,19.21
		c-2.956,6.551-5.405,13.845-9.048,20.049c0.777-1.323,0.693-0.545-0.462-0.022c-1.353,0.613-2.64,1.529-3.925,2.273
		c-4.15,2.404-8.3,4.808-12.451,7.211c-6.157,3.567-12.315,7.133-18.472,10.699C6.069,134.551,8.332,138.441,10.845,136.986"/>
	<path fill="none" stroke="#194596" stroke-width="0.75" stroke-miterlimit="10" d="M10.845,136.986
		l32.384-18.756c3.19-1.848,4.354-2.607,5.862-5.949c2.984-6.61,5.967-13.22,8.95-19.83c2.483-5.5,4.965-11,7.447-16.5h-3.885
		c5.665,9.4,11.33,18.801,16.995,28.201c0.898,1.489,2.974,1.418,3.886,0C87.47,96.4,92.457,88.65,97.443,80.899
		c6.207-9.648,13.154-19.123,18.749-29.142c1.076-1.928,1.464-1.036-0.236-0.602c1.502-0.383,3.051-1.283,4.472-1.881
		c6.061-2.548,12.122-5.097,18.183-7.646c4.101-1.724,8.761-3.11,12.636-5.314c2.579-1.467,4.588-4.122,6.677-6.224
		c8.572-8.625,17.145-17.25,25.718-25.874c-1.28-0.531-2.561-1.061-3.841-1.591v16.609c0,2.895,4.5,2.9,4.5,0V2.626
		c0-1.944-2.465-2.976-3.841-1.591c-7.584,7.629-15.167,15.259-22.751,22.889c-2.817,2.833-5.518,5.903-8.506,8.558
		c1.748-1.554-0.872,0.217-1.83,0.62c-2.738,1.152-5.477,2.303-8.216,3.455c-6.193,2.605-12.387,5.209-18.581,7.814
		c-2.433,1.023-5.643,1.786-7.411,3.781c-2.349,2.649-4.066,6.32-5.977,9.29c-3.651,5.674-7.301,11.349-10.952,17.023
		c-5.879,9.138-11.758,18.277-17.638,27.416h3.886c-5.665-9.401-11.33-18.801-16.996-28.201c-0.799-1.326-3.162-1.602-3.885,0
		c-2.89,6.403-5.78,12.806-8.671,19.21c-2.956,6.551-5.405,13.845-9.048,20.049c0.777-1.323,0.693-0.545-0.462-0.022
		c-1.353,0.613-2.64,1.529-3.925,2.273c-4.15,2.404-8.3,4.808-12.451,7.211c-6.157,3.567-12.315,7.133-18.472,10.699
		C6.069,134.551,8.332,138.441,10.845,136.986z"/>
	<path fill="#194596" d="M182.051,0.375h-17.533c-2.896,0-2.901,4.5,0,4.5h17.533
		C184.947,4.875,184.951,0.375,182.051,0.375"/>
	<path fill="none" stroke="#194596" stroke-width="0.75" stroke-miterlimit="10" d="M182.051,0.375
		h-17.533c-2.896,0-2.901,4.5,0,4.5h17.533C184.947,4.875,184.951,0.375,182.051,0.375z"/>
</g>
</svg>
