<?xml version="1.0" encoding="utf-8"?>
<!-- Generator: Adobe Illustrator 17.0.0, SVG Export Plug-In . SVG Version: 6.00 Build 0)  -->
<!DOCTYPE svg PUBLIC "-//W3C//DTD SVG 1.1//EN" "http://www.w3.org/Graphics/SVG/1.1/DTD/svg11.dtd">
<svg version="1.1" id="Слой_1" xmlns="http://www.w3.org/2000/svg" xmlns:xlink="http://www.w3.org/1999/xlink" x="0px" y="0px"
	 width="198.963px" height="182.316px" viewBox="0 0 198.963 182.316" enable-background="new 0 0 198.963 182.316"
	 xml:space="preserve">
<g>
	<path fill="#194596" d="M195.713,182.316H3.25c-1.792,0-3.25-1.458-3.25-3.25v-13.391
		c0-1.792,1.458-3.25,3.25-3.25h192.463c1.792,0,3.25,1.458,3.25,3.25v13.391C198.963,180.858,197.505,182.316,195.713,182.316
		 M4.5,177.816h189.963v-10.891H4.5V177.816z"/>
	<path fill="#194596" d="M190.26,166.832H8.026c-1.792,0-3.25-1.458-3.25-3.25v-10.758
		c0-1.792,1.458-3.25,3.25-3.25H190.26c1.792,0,3.25,1.458,3.25,3.25v10.758C193.51,165.374,192.052,166.832,190.26,166.832
		 M9.276,162.332h179.733v-8.258H9.276V162.332z"/>
	<path fill="#194596" d="M35.372,154.074H18.114V62.285h17.258V154.074z M22.614,149.574h8.258V66.785
		h-8.258V149.574z"/>
	<path fill="#194596" d="M71.561,154.074H54.303V62.285h17.258V154.074z M58.803,149.574h8.258V66.785
		h-8.258V149.574z"/>
	<path fill="#194596" d="M108.111,154.074H90.853V62.285h17.258V154.074z M95.353,149.574h8.258V66.785
		h-8.258V149.574z"/>
	<path fill="#194596" d="M143.938,154.074H126.68V62.285h17.258V154.074z M131.181,149.574h8.258V66.785
		h-8.258V149.574z"/>
	<path fill="#194596" d="M180.127,154.074h-17.258V62.285h17.258V154.074z M167.369,149.574h8.258
		V66.785h-8.258V149.574z"/>
	<path fill="#194596" d="M189.219,66.785H8.577c-1.165,0-2.229-0.59-2.846-1.579
		s-0.679-2.205-0.166-3.252l5.181-10.551c0.568-1.157,1.722-1.876,3.011-1.876h169.974c1.256,0,2.396,0.693,2.976,1.807l5.488,10.55
		c0.545,1.047,0.505,2.276-0.108,3.287C191.474,66.181,190.401,66.785,189.219,66.785 M10.416,62.285h176.915l-4.296-8.258H14.471
		L10.416,62.285z"/>
	<path fill="#194596" d="M53.481,32.193l-4.45-0.668C49.078,31.21,54.284,0,99.12,0
		c44.862,0,49.653,31.239,49.696,31.554l-4.459,0.61C144.196,31.042,139.916,4.5,99.12,4.5C58.114,4.5,53.523,31.917,53.481,32.193"
		/>
	<path fill="#194596" d="M164.023,54.027H33.819l4.263-19.528c0.554-2.536,2.839-4.376,5.434-4.376
		h46.929L57.241,49.348h83.76l-33.204-19.225h46.275c2.604,0,4.832,1.771,5.418,4.308L164.023,54.027z M150.29,49.527h8.074
		l-3.258-14.082c-0.112-0.484-0.537-0.822-1.034-0.822H124.55L150.29,49.527z M39.407,49.527h8.545l25.741-14.904H43.516
		c-0.496,0-0.932,0.351-1.038,0.836L39.407,49.527z"/>
	<polygon fill="#194596" points="115.045,34.32 99.12,25.099 83.195,34.32 80.941,30.425 99.12,19.9 
		117.3,30.425 	"/>
	<path fill="#194596" d="M68.708,19.602c5.618-4.274,12.589-7.603,19.669-8.132
		c1.913-0.143,1.929-3.144,0-3c-7.624,0.57-15.123,3.931-21.183,8.542C65.677,18.165,67.17,20.772,68.708,19.602"/>
</g>
</svg>
