<?xml version="1.0" encoding="utf-8"?>
<!-- Generator: Adobe Illustrator 17.0.0, SVG Export Plug-In . SVG Version: 6.00 Build 0)  -->
<!DOCTYPE svg PUBLIC "-//W3C//DTD SVG 1.1//EN" "http://www.w3.org/Graphics/SVG/1.1/DTD/svg11.dtd">
<svg version="1.1" id="Слой_1" xmlns="http://www.w3.org/2000/svg" xmlns:xlink="http://www.w3.org/1999/xlink" x="0px" y="0px"
	 width="178.386px" height="182.338px" viewBox="0 0 178.386 182.338" enable-background="new 0 0 178.386 182.338"
	 xml:space="preserve">
<g>
	<path fill="#dfe0e0" d="M25.446,94.385h45.918c2.895,0,2.9-4.5,0-4.5H25.446
		C22.55,89.885,22.546,94.385,25.446,94.385"/>
	<path fill="#dfe0e0" d="M85.462,94.385h13.399c2.896,0,2.901-4.5,0-4.5H85.462
		C82.566,89.885,82.562,94.385,85.462,94.385"/>
	<path fill="#dfe0e0" d="M136.497,136.141c-0.378,7.01-10.943,7.071-10.943,0
		C125.554,129.067,136.119,129.129,136.497,136.141c0.155,2.88,4.656,2.899,4.5,0c-0.291-5.404-4.332-9.972-9.972-9.972
		c-5.417,0-9.971,4.556-9.971,9.972c0,5.266,4.298,9.731,9.551,9.949c5.803,0.241,10.092-4.371,10.392-9.949
		C141.153,133.247,136.652,133.256,136.497,136.141"/>
	<path fill="#dfe0e0" d="M155.247,182.338H22.455c-7.54,0-13.673-6.133-13.673-13.673V89.944
		c0-7.539,6.133-13.673,13.673-13.673h132.792c7.54,0,13.673,6.134,13.673,13.673v31.241h-57.151c-3.127,0-5.671,2.544-5.671,5.672
		v18.403c0,3.128,2.544,5.672,5.671,5.672h57.151v17.733C168.92,176.205,162.787,182.338,155.247,182.338 M22.455,80.771
		c-5.058,0-9.173,4.115-9.173,9.173v78.721c0,5.058,4.115,9.173,9.173,9.173h132.792c5.058,0,9.173-4.115,9.173-9.173v-13.233
		h-52.651c-5.608,0-10.171-4.563-10.171-10.172v-18.403c0-5.608,4.563-10.172,10.171-10.172h52.651V89.944
		c0-5.058-4.115-9.173-9.173-9.173H22.455z"/>
	<path fill="#dfe0e0" d="M167.986,155.432h-1.316v-4.5h1.316c3.127,0,5.671-2.544,5.671-5.672v-18.403
		c0-3.128-2.544-5.672-5.671-5.672h-1.316v-4.5h1.316c5.608,0,10.171,4.563,10.171,10.172v18.403
		C178.157,150.869,173.594,155.432,167.986,155.432"/>
	<path fill="#dfe0e0" d="M122.983,17.782c-9.492,0-17.138-6.733-17.429-15.372l4.497-0.152
		c0.206,6.118,6.043,11.018,13.018,11.024c0.635-0.003,1.298-0.059,2.087-0.175l0.654,4.453c-0.99,0.145-1.879,0.218-2.718,0.222
		H122.983z"/>
	<path fill="#dfe0e0" d="M67.299,77.387c-6.202-13.752,1.921-30.26,17.117-32.675
		c18.245-2.899,31.815,16.154,24.378,32.675c-1.179,2.619,2.697,4.91,3.886,2.271c8.644-19.203-5.811-41.854-27.519-39.555
		c-19.224,2.036-29.449,22.479-21.748,39.555C64.602,82.294,68.481,80.009,67.299,77.387"/>
	<path fill="#dfe0e0" d="M88.175,25.449c-4.563-0.221-5.04-6.988-0.407-7.446
		C92.739,17.512,93.218,25.167,88.175,25.449c-2.88,0.161-2.898,4.662,0,4.5c4.469-0.25,8.218-3.623,8.207-8.271
		c-0.011-4.615-4.01-8.385-8.598-8.188c-4.35,0.187-7.893,3.892-7.88,8.252c0.013,4.649,3.809,7.991,8.271,8.207
		C91.07,30.089,91.062,25.589,88.175,25.449"/>
	<path fill="#dfe0e0" d="M50.789,78.994L50.115,4.653c-0.012-2.352,1.884-4.269,4.227-4.282L123.4,0
		c1.169,0.001,2.202,0.431,3.01,1.231c0.808,0.799,1.257,1.863,1.263,2.997l0.673,74.334l-4.5,0.041l-0.671-74.102L54.618,4.87
		l0.671,74.083L50.789,78.994z M123.173,4.26v0.001V4.26z"/>
	<path fill="#dfe0e0" d="M52.614,18.161l-0.024-4.5c6.972-0.038,12.758-5.046,12.899-11.164L69.988,2.6
		C69.788,11.274,62.157,18.109,52.614,18.161"/>
	<path fill="#dfe0e0" d="M37.497,77.784c-2.333-11.916,4.389-23.146,15.866-26.957
		c2.735-0.908,1.563-5.255-1.196-4.339C38.258,51.106,30.34,64.589,33.158,78.98C33.714,81.82,38.052,80.618,37.497,77.784"/>
	<path fill="#dfe0e0" d="M43.82,34.119c-1.804,0.68-3.761,0.463-4.902-1.257
		c-1.047-1.578-0.743-3.83,0.784-5.007c4.352-3.353,8.701,3.947,3.581,6.491c-2.594,1.288-0.317,5.171,2.271,3.885
		c4.007-1.99,5.863-6.854,3.907-10.96c-2.024-4.249-7.397-5.961-11.509-3.635c-3.613,2.043-5.105,6.631-3.472,10.419
		c1.749,4.058,6.438,5.947,10.536,4.403C47.701,37.447,46.538,33.095,43.82,34.119"/>
	<path fill="#dfe0e0" d="M22.249,79.88L0.355,30.114c-0.939-2.156,0.049-4.665,2.197-5.6L51.556,3.177
		l1.797,4.125L4.578,28.539l21.79,49.529L22.249,79.88z"/>
	<path fill="#dfe0e0" d="M7.977,41.544l-1.796-4.125c6.393-2.784,9.735-9.668,7.452-15.346l4.175-1.679
		C21.045,28.444,16.726,37.734,7.977,41.544"/>
	<path fill="#dfe0e0" d="M145.227,77.486c2.819-14.395-5.102-27.875-19.009-32.492
		c-2.755-0.915-3.936,3.429-1.196,4.339c11.474,3.81,18.199,15.039,15.866,26.957C140.334,79.119,144.67,80.33,145.227,77.486"/>
	<path fill="#dfe0e0" d="M133.368,36.963c3.996,1.505,8.57-0.245,10.423-4.134
		c1.832-3.845,0.322-8.57-3.358-10.688c-3.97-2.285-9.291-0.703-11.374,3.36c-2.129,4.154-0.364,9.18,3.772,11.235
		c2.585,1.285,4.867-2.595,2.271-3.885c-5.114-2.541-0.774-9.848,3.58-6.491c1.43,1.101,1.807,3.187,0.951,4.746
		c-1.053,1.918-3.174,2.231-5.069,1.518C131.851,31.602,130.679,35.95,133.368,36.963"/>
	<path fill="#dfe0e0" d="M156.135,78.386l-4.119-1.812l21.79-49.53L125.032,5.808l1.796-4.125
		l49.004,21.336c2.15,0.936,3.136,3.445,2.2,5.594L156.135,78.386z"/>
	<path fill="#dfe0e0" d="M170.407,40.049c-8.75-3.81-13.067-13.1-9.831-21.15l4.175,1.678
		c-2.282,5.679,1.06,12.563,7.453,15.347L170.407,40.049z"/>
</g>
</svg>
