<?xml version="1.0" encoding="utf-8"?>
<!-- Generator: Adobe Illustrator 17.0.0, SVG Export Plug-In . SVG Version: 6.00 Build 0)  -->
<!DOCTYPE svg PUBLIC "-//W3C//DTD SVG 1.1//EN" "http://www.w3.org/Graphics/SVG/1.1/DTD/svg11.dtd">
<svg version="1.1" id="Слой_1" xmlns="http://www.w3.org/2000/svg" xmlns:xlink="http://www.w3.org/1999/xlink" x="0px" y="0px"
	 width="186.959px" height="188.212px" viewBox="0 0 186.959 188.212" enable-background="new 0 0 186.959 188.212"
	 xml:space="preserve">
<g>
	<path fill="#194596" d="M182.459,66.409c-0.275,25.757-16.285,49.294-40.641,58.203
		c-24.203,8.852-52.019,1.447-68.66-18.201c-16.976-20.043-19.303-49.549-5.725-72.025c13.389-22.162,40.001-33.913,65.403-28.715
		C161.602,11.557,182.148,37.232,182.459,66.409c0.031,2.894,4.531,2.901,4.5,0c-0.294-27.594-17.372-52.585-43.323-62.316
		c-26.2-9.825-56.802-1.516-74.491,20.129C51.552,45.75,49.13,76.839,63.547,100.703c14.364,23.775,42.593,36.168,69.825,30.918
		c31.018-5.979,53.254-33.934,53.587-65.212C186.99,63.512,182.49,63.51,182.459,66.409"/>
	<path fill="#194596" d="M171.59,66.975c-0.277,21.189-13.501,40.584-33.688,47.661
		c-19.784,6.937-42.208,0.75-55.663-15.304c-13.614-16.245-15.441-40.059-4.588-58.238c10.927-18.305,32.885-28.006,53.779-23.589
		C154.79,22.443,171.281,43.285,171.59,66.975c0.038,2.893,4.538,2.901,4.5,0c-0.298-22.803-14.285-43.438-35.739-51.544
		c-21.667-8.187-47.026-1.378-61.715,16.506c-14.578,17.749-16.678,43.412-4.871,63.19c11.76,19.7,35.007,30.076,57.529,25.921
		c25.921-4.782,44.456-28.015,44.796-54.073C176.128,64.078,171.628,64.077,171.59,66.975"/>
	<path fill="#194596" d="M138.434,30.249c6.134,3.044,11.4,7.343,15.465,12.87
		c1.697,2.309,5.604,0.067,3.885-2.271c-4.527-6.157-10.22-11.081-17.079-14.485C138.118,25.08,135.837,28.96,138.434,30.249"/>
	<path fill="#194596" d="M121.023,26.342c1.995,0.011,3.976,0.146,5.953,0.411
		c1.207,0.161,2.25-1.15,2.25-2.25c0-1.35-1.04-2.089-2.25-2.25c-1.977-0.265-3.959-0.4-5.953-0.411
		C118.127,21.827,118.123,26.327,121.023,26.342"/>
	<path fill="#194596" d="M73.615,110.861c-3.301,3.262-6.603,6.524-9.905,9.787
		c-2.063,2.038,1.12,5.22,3.182,3.182c3.302-3.263,6.603-6.525,9.905-9.787C78.86,112.004,75.678,108.823,73.615,110.861"/>
	<path fill="#194596" d="M7.469,181.923c-5.144-5.144-2.797-9.466,1.306-13.569
		c3.799-3.799,7.597-7.597,11.396-11.396c9.42-9.42,18.839-18.839,28.259-28.259c2.283-2.283,5.145-6.166,8.501-6.815
		c7.144-1.381,11.922,7.768,7.453,12.981c-0.482,0.562-1.06,1.06-1.583,1.583c-8.488,8.488-16.976,16.976-25.464,25.464
		L22.22,177.029C18.236,181.013,13.55,187.172,7.469,181.923c-2.182-1.884-5.379,1.286-3.182,3.182
		c11.619,10.03,23.013-6.792,30.453-14.232c10.502-10.502,21.093-20.921,31.508-31.508c4.736-4.814,6.507-11.366,1.764-17.022
		c-5.047-6.019-12.765-6.58-18.444-1.146c-10.067,9.632-19.728,19.728-29.579,29.58c-5.152,5.151-10.303,10.302-15.455,15.454
		c-5.779,5.779-6.22,12.901-0.247,18.874C6.337,187.155,9.52,183.974,7.469,181.923"/>
	<path fill="#194596" d="M46.358,129.262l12.228,12.228c2.051,2.051,5.234-1.13,3.182-3.182
		L49.54,126.08C47.49,124.03,44.307,127.211,46.358,129.262"/>
</g>
</svg>
