<?xml version="1.0" encoding="utf-8"?>
<!-- Generator: Adobe Illustrator 17.0.0, SVG Export Plug-In . SVG Version: 6.00 Build 0)  -->
<!DOCTYPE svg PUBLIC "-//W3C//DTD SVG 1.1//EN" "http://www.w3.org/Graphics/SVG/1.1/DTD/svg11.dtd">
<svg version="1.1" id="Слой_1" xmlns="http://www.w3.org/2000/svg" xmlns:xlink="http://www.w3.org/1999/xlink" x="0px" y="0px"
	 width="136.969px" height="187.322px" viewBox="0 0 136.969 187.322" enable-background="new 0 0 136.969 187.322"
	 xml:space="preserve">
<g>
	<path fill="#194596" d="M48.31,129.161c-23.329-7.976-40.698-28.866-43.423-53.522
		c-2.553-23.098,7.808-46.348,26.895-59.67c19.501-13.61,45.702-15.324,66.723-4.107c20.271,10.816,33.497,32.139,33.977,55.141
		c0.582,27.954-17.448,53.147-43.795,62.157c-2.725,0.931-1.555,5.28,1.196,4.339c24.621-8.419,42.948-29.915,46.473-55.841
		c3.392-24.947-7.484-50.037-27.809-64.816C87.82-2.229,59.483-4.142,36.8,7.672C14.61,19.23,0.263,42.706,0.004,67.705
		c-0.309,29.77,19.129,56.229,47.11,65.795C49.86,134.439,51.039,130.094,48.31,129.161"/>
	<path fill="#194596" d="M89.89,130.34v20.279c0,8.69,0.281,21.307-11.444,22.047
		c-6.908,0.436-14.072,0.157-20.992,0c-10.779-0.244-12.696-9.955-12.696-18.742V130.34c0-2.896-4.5-2.9-4.5,0v24.309
		c0,9.612,3.022,21.062,14.347,22.41c7.563,0.901,15.802,0.345,23.406,0.107c11.004-0.344,16.313-10.108,16.379-20.147
		c0.058-8.892,0-17.787,0-26.679C94.39,127.444,89.89,127.44,89.89,130.34"/>
	<path fill="#194596" d="M42.648,133.58h48.517c2.896,0,2.901-4.5,0-4.5H42.648
		C39.752,129.08,39.748,133.58,42.648,133.58"/>
	<path fill="#194596" d="M56.159,122.363H77.86c2.895,0,2.9-4.5,0-4.5H56.159
		C53.263,117.863,53.259,122.363,56.159,122.363"/>
	<path fill="#194596" d="M45.591,156.677c14.968-6.658,29.935-13.317,44.903-19.975
		c2.641-1.175,0.354-5.054-2.271-3.886c-14.968,6.659-29.936,13.317-44.903,19.975C40.679,153.966,42.965,157.845,45.591,156.677"/>
	<path fill="#194596" d="M47.329,171.09c14.968-6.658,29.935-13.317,44.903-19.975
		c2.641-1.175,0.354-5.054-2.271-3.886c-14.968,6.659-29.936,13.317-44.903,19.975C42.417,168.379,44.703,172.258,47.329,171.09"/>
	<path fill="#194596" d="M37.746,61.241l16.916,70.685c0.674,2.816,5.014,1.624,4.339-1.196
		c-5.638-23.562-11.277-47.123-16.916-70.685C41.412,57.23,37.071,58.421,37.746,61.241"/>
	<path fill="#194596" d="M92.563,60.045c-5.639,23.562-11.277,47.124-16.916,70.685
		c-0.674,2.815,3.665,4.016,4.339,1.197l16.916-70.686C97.576,58.426,93.238,57.225,92.563,60.045"/>
	<path fill="#194596" d="M76.282,174.917c-0.548,10.169-15.262,10.191-15.811,0
		c-0.155-2.88-4.656-2.899-4.5,0c0.362,6.726,5.396,12.406,12.405,12.406c7.009,0,12.044-5.68,12.406-12.406
		C80.938,172.023,76.437,172.032,76.282,174.917"/>
	<path fill="#194596" d="M64.142,12.28c7.526,0.114,14.703,1.673,21.54,4.832
		c2.611,1.207,4.9-2.67,2.271-3.885c-7.562-3.495-15.48-5.321-23.811-5.447C61.245,7.736,61.244,12.236,64.142,12.28"/>
	<path fill="#194596" d="M42.851,72.012c3.722,0.453,8.249,1.648,11.857,3.297
		c2.761,1.262,4.854,2.854,6.873,5.078c1.913,2.105,3.737,4.124,6.77,4.308c5.13,0.311,7.698-4.785,10.868-7.833
		c3.403-3.272,8.062-5.654,12.593-6.936c2.782-0.787,1.599-5.13-1.197-4.339c-3.464,0.98-6.902,2.562-9.927,4.493
		c-2.454,1.566-4.574,3.427-6.493,5.609c-2.758,3.137-4.924,6.357-8.845,2.218c-6.051-6.385-13.807-9.337-22.499-10.395
		C39.983,67.163,40.008,71.666,42.851,72.012"/>
</g>
</svg>
