<?xml version="1.0" encoding="UTF-8"?> <svg xmlns="http://www.w3.org/2000/svg" width="228" height="38" viewBox="0 0 228 38" fill="none"> <g filter="url(#filter0_d)"> <rect x="4" width="220" height="30" rx="2" fill="#212225"></rect> </g> <path d="M50.5116 20.1955C48.9316 20.1955 47.6216 19.6755 46.5816 18.6355C45.5416 17.5855 45.0216 16.2905 45.0216 14.7505C45.0216 13.2105 45.5416 11.9205 46.5816 10.8805C47.6216 9.83047 48.9316 9.30547 50.5116 9.30547C51.4616 9.30547 52.3366 9.53047 53.1366 9.98047C53.9466 10.4305 54.5766 11.0405 55.0266 11.8105L53.5266 12.6805C53.2466 12.1605 52.8366 11.7505 52.2966 11.4505C51.7666 11.1405 51.1716 10.9855 50.5116 10.9855C49.3916 10.9855 48.4816 11.3405 47.7816 12.0505C47.0916 12.7605 46.7466 13.6605 46.7466 14.7505C46.7466 15.8405 47.0916 16.7405 47.7816 17.4505C48.4816 18.1605 49.3916 18.5155 50.5116 18.5155C51.1716 18.5155 51.7716 18.3655 52.3116 18.0655C52.8516 17.7555 53.2566 17.3405 53.5266 16.8205L55.0266 17.6755C54.5866 18.4455 53.9616 19.0605 53.1516 19.5205C52.3516 19.9705 51.4716 20.1955 50.5116 20.1955Z" fill="white"></path> <path d="M62.28 12.5005H63.9V20.0005H62.28V18.9205C61.67 19.7705 60.795 20.1955 59.655 20.1955C58.625 20.1955 57.745 19.8155 57.015 19.0555C56.285 18.2855 55.92 17.3505 55.92 16.2505C55.92 15.1405 56.285 14.2055 57.015 13.4455C57.745 12.6855 58.625 12.3055 59.655 12.3055C60.795 12.3055 61.67 12.7255 62.28 13.5655V12.5005ZM58.215 17.9755C58.665 18.4255 59.23 18.6505 59.91 18.6505C60.59 18.6505 61.155 18.4255 61.605 17.9755C62.055 17.5155 62.28 16.9405 62.28 16.2505C62.28 15.5605 62.055 14.9905 61.605 14.5405C61.155 14.0805 60.59 13.8505 59.91 13.8505C59.23 13.8505 58.665 14.0805 58.215 14.5405C57.765 14.9905 57.54 15.5605 57.54 16.2505C57.54 16.9405 57.765 17.5155 58.215 17.9755Z" fill="white"></path> <path d="M67.0183 11.4505V10.0405H71.2183V11.4505H67.0183ZM71.2183 12.5005H72.4633V20.0005H70.8733V15.2305L67.0333 20.0005H65.7883V12.5005H67.3783V17.2555L71.2183 12.5005Z" fill="white"></path> <path d="M80.073 12.5005V14.0605H77.628V20.0005H76.008V14.0605H73.548V12.5005H80.073Z" fill="white"></path> <path d="M89.1641 12.3055C90.1941 12.3055 91.0741 12.6905 91.8041 13.4605C92.5341 14.2205 92.8991 15.1505 92.8991 16.2505C92.8991 17.3605 92.5341 18.2955 91.8041 19.0555C91.0741 19.8155 90.1941 20.1955 89.1641 20.1955C88.0241 20.1955 87.1491 19.7755 86.5391 18.9355V23.0005H84.9191V12.5005H86.5391V13.5805C87.1491 12.7305 88.0241 12.3055 89.1641 12.3055ZM87.2141 17.9755C87.6641 18.4255 88.2291 18.6505 88.9091 18.6505C89.5891 18.6505 90.1541 18.4255 90.6041 17.9755C91.0541 17.5155 91.2791 16.9405 91.2791 16.2505C91.2791 15.5605 91.0541 14.9905 90.6041 14.5405C90.1541 14.0805 89.5891 13.8505 88.9091 13.8505C88.2291 13.8505 87.6641 14.0805 87.2141 14.5405C86.7641 14.9905 86.5391 15.5605 86.5391 16.2505C86.5391 16.9405 86.7641 17.5155 87.2141 17.9755Z" fill="white"></path> <path d="M100.307 12.5005H101.927V20.0005H100.307V18.9205C99.6974 19.7705 98.8224 20.1955 97.6824 20.1955C96.6524 20.1955 95.7724 19.8155 95.0424 19.0555C94.3124 18.2855 93.9474 17.3505 93.9474 16.2505C93.9474 15.1405 94.3124 14.2055 95.0424 13.4455C95.7724 12.6855 96.6524 12.3055 97.6824 12.3055C98.8224 12.3055 99.6974 12.7255 100.307 13.5655V12.5005ZM96.2424 17.9755C96.6924 18.4255 97.2574 18.6505 97.9374 18.6505C98.6174 18.6505 99.1824 18.4255 99.6324 17.9755C100.082 17.5155 100.307 16.9405 100.307 16.2505C100.307 15.5605 100.082 14.9905 99.6324 14.5405C99.1824 14.0805 98.6174 13.8505 97.9374 13.8505C97.2574 13.8505 96.6924 14.0805 96.2424 14.5405C95.7924 14.9905 95.5674 15.5605 95.5674 16.2505C95.5674 16.9405 95.7924 17.5155 96.2424 17.9755Z" fill="white"></path> <path d="M108.031 16.1605C108.831 16.5205 109.231 17.1155 109.231 17.9455C109.231 18.5855 108.971 19.1205 108.451 19.5505C107.931 19.9805 107.206 20.1955 106.276 20.1955C104.766 20.1955 103.746 19.5955 103.216 18.3955L104.536 17.6155C104.806 18.3655 105.391 18.7405 106.291 18.7405C106.711 18.7405 107.041 18.6555 107.281 18.4855C107.521 18.3055 107.641 18.0705 107.641 17.7805C107.641 17.5205 107.546 17.3155 107.356 17.1655C107.166 17.0055 106.901 16.9255 106.561 16.9255H105.496V15.5005H106.291C106.621 15.5005 106.876 15.4255 107.056 15.2755C107.246 15.1155 107.341 14.9005 107.341 14.6305C107.341 14.3705 107.236 14.1605 107.026 14.0005C106.816 13.8305 106.536 13.7455 106.186 13.7455C105.436 13.7455 104.916 14.0755 104.626 14.7355L103.306 13.9855C103.866 12.8655 104.816 12.3055 106.156 12.3055C106.996 12.3055 107.661 12.5205 108.151 12.9505C108.651 13.3705 108.901 13.8855 108.901 14.4955C108.901 15.2455 108.611 15.8005 108.031 16.1605Z" fill="white"></path> <path d="M114.799 12.3055C115.829 12.3055 116.709 12.6905 117.439 13.4605C118.169 14.2205 118.534 15.1505 118.534 16.2505C118.534 17.3605 118.169 18.2955 117.439 19.0555C116.709 19.8155 115.829 20.1955 114.799 20.1955C113.659 20.1955 112.784 19.7755 112.174 18.9355V23.0005H110.554V12.5005H112.174V13.5805C112.784 12.7305 113.659 12.3055 114.799 12.3055ZM112.849 17.9755C113.299 18.4255 113.864 18.6505 114.544 18.6505C115.224 18.6505 115.789 18.4255 116.239 17.9755C116.689 17.5155 116.914 16.9405 116.914 16.2505C116.914 15.5605 116.689 14.9905 116.239 14.5405C115.789 14.0805 115.224 13.8505 114.544 13.8505C113.864 13.8505 113.299 14.0805 112.849 14.5405C112.399 14.9905 112.174 15.5605 112.174 16.2505C112.174 16.9405 112.399 17.5155 112.849 17.9755Z" fill="white"></path> <path d="M125.942 12.5005H127.562V20.0005H125.942V18.9205C125.332 19.7705 124.457 20.1955 123.317 20.1955C122.287 20.1955 121.407 19.8155 120.677 19.0555C119.947 18.2855 119.582 17.3505 119.582 16.2505C119.582 15.1405 119.947 14.2055 120.677 13.4455C121.407 12.6855 122.287 12.3055 123.317 12.3055C124.457 12.3055 125.332 12.7255 125.942 13.5655V12.5005ZM121.877 17.9755C122.327 18.4255 122.892 18.6505 123.572 18.6505C124.252 18.6505 124.817 18.4255 125.267 17.9755C125.717 17.5155 125.942 16.9405 125.942 16.2505C125.942 15.5605 125.717 14.9905 125.267 14.5405C124.817 14.0805 124.252 13.8505 123.572 13.8505C122.892 13.8505 122.327 14.0805 121.877 14.5405C121.427 14.9905 121.202 15.5605 121.202 16.2505C121.202 16.9405 121.427 17.5155 121.877 17.9755Z" fill="white"></path> <path d="M132.93 20.1955C131.78 20.1955 130.84 19.8255 130.11 19.0855C129.39 18.3355 129.03 17.3805 129.03 16.2205C129.03 14.9505 129.22 13.9705 129.6 13.2805C129.98 12.5805 130.75 11.9455 131.91 11.3755C132.1 11.2855 132.38 11.1555 132.75 10.9855C133.13 10.8155 133.39 10.6955 133.53 10.6255C133.67 10.5455 133.845 10.4355 134.055 10.2955C134.265 10.1455 134.42 9.99047 134.52 9.83047C134.62 9.66047 134.7 9.46047 134.76 9.23047L136.08 9.99547C136.04 10.2155 135.975 10.4205 135.885 10.6105C135.795 10.7905 135.665 10.9605 135.495 11.1205C135.325 11.2805 135.175 11.4105 135.045 11.5105C134.925 11.6105 134.72 11.7305 134.43 11.8705C134.14 12.0105 133.925 12.1105 133.785 12.1705C133.655 12.2305 133.405 12.3355 133.035 12.4855C132.375 12.7455 131.89 13.0155 131.58 13.2955C131.28 13.5655 131.07 13.9055 130.95 14.3155C131.55 13.6355 132.365 13.2955 133.395 13.2955C134.275 13.2955 135.04 13.6105 135.69 14.2405C136.35 14.8705 136.68 15.6855 136.68 16.6855C136.68 17.7055 136.33 18.5455 135.63 19.2055C134.94 19.8655 134.04 20.1955 132.93 20.1955ZM132.915 18.6805C133.545 18.6805 134.06 18.4955 134.46 18.1255C134.86 17.7455 135.06 17.2655 135.06 16.6855C135.06 16.0955 134.86 15.6105 134.46 15.2305C134.07 14.8505 133.56 14.6605 132.93 14.6605C132.37 14.6605 131.865 14.8405 131.415 15.2005C130.965 15.5505 130.74 16.0205 130.74 16.6105C130.74 17.2105 130.95 17.7055 131.37 18.0955C131.79 18.4855 132.305 18.6805 132.915 18.6805Z" fill="white"></path> <path d="M141.501 20.1955C140.401 20.1955 139.466 19.8155 138.696 19.0555C137.926 18.2955 137.541 17.3605 137.541 16.2505C137.541 15.1405 137.926 14.2055 138.696 13.4455C139.466 12.6855 140.401 12.3055 141.501 12.3055C142.611 12.3055 143.546 12.6855 144.306 13.4455C145.076 14.2055 145.461 15.1405 145.461 16.2505C145.461 17.3605 145.076 18.2955 144.306 19.0555C143.546 19.8155 142.611 20.1955 141.501 20.1955ZM139.836 17.9455C140.286 18.3955 140.841 18.6205 141.501 18.6205C142.161 18.6205 142.716 18.3955 143.166 17.9455C143.616 17.4955 143.841 16.9305 143.841 16.2505C143.841 15.5705 143.616 15.0055 143.166 14.5555C142.716 14.1055 142.161 13.8805 141.501 13.8805C140.841 13.8805 140.286 14.1055 139.836 14.5555C139.386 15.0055 139.161 15.5705 139.161 16.2505C139.161 16.9305 139.386 17.4955 139.836 17.9455Z" fill="white"></path> <path d="M152.363 12.5005V14.0605H149.918V20.0005H148.298V14.0605H145.838V12.5005H152.363Z" fill="white"></path> <path d="M159.106 12.5005H160.726V20.0005H159.106V18.9205C158.496 19.7705 157.621 20.1955 156.481 20.1955C155.451 20.1955 154.571 19.8155 153.841 19.0555C153.111 18.2855 152.746 17.3505 152.746 16.2505C152.746 15.1405 153.111 14.2055 153.841 13.4455C154.571 12.6855 155.451 12.3055 156.481 12.3055C157.621 12.3055 158.496 12.7255 159.106 13.5655V12.5005ZM155.041 17.9755C155.491 18.4255 156.056 18.6505 156.736 18.6505C157.416 18.6505 157.981 18.4255 158.431 17.9755C158.881 17.5155 159.106 16.9405 159.106 16.2505C159.106 15.5605 158.881 14.9905 158.431 14.5405C157.981 14.0805 157.416 13.8505 156.736 13.8505C156.056 13.8505 155.491 14.0805 155.041 14.5405C154.591 14.9905 154.366 15.5605 154.366 16.2505C154.366 16.9405 154.591 17.5155 155.041 17.9755Z" fill="white"></path> <path d="M167.669 12.5005H169.289V20.0005H167.669V17.0155H164.234V20.0005H162.614V12.5005H164.234V15.4855H167.669V12.5005Z" fill="white"></path> <path d="M184.459 20.0005L182.344 16.3555H180.769V20.0005H178.699V9.50047H182.899C183.869 9.50047 184.694 9.84047 185.374 10.5205C186.054 11.2005 186.394 12.0205 186.394 12.9805C186.394 13.6305 186.209 14.2355 185.839 14.7955C185.469 15.3455 184.979 15.7605 184.369 16.0405L186.694 20.0005H184.459ZM180.769 11.4355V14.5405H182.899C183.289 14.5405 183.624 14.3905 183.904 14.0905C184.184 13.7805 184.324 13.4105 184.324 12.9805C184.324 12.5505 184.184 12.1855 183.904 11.8855C183.624 11.5855 183.289 11.4355 182.899 11.4355H180.769Z" fill="white"></path> <path d="M194.663 20.0005L194.033 18.1105H189.848L189.218 20.0005H186.983L190.658 9.50047H193.223L196.913 20.0005H194.663ZM190.508 16.1755H193.388L191.948 11.8855L190.508 16.1755Z" fill="white"></path> <path d="M204.203 11.4805H200.003V13.9705H204.083V15.9505H200.003V20.0005H197.933V9.50047H204.203V11.4805Z" fill="white"></path> <path d="M212.656 9.50047V11.4805H209.821V20.0005H207.751V11.4805H204.931V9.50047H212.656Z" fill="white"></path> <path d="M177.724 23.0005H212.836V23.7505H177.724V23.0005Z" fill="white"></path> <path d="M15 24.9909V18.6636V12.336L21.3133 6.01074H27.519L15 18.6636H21.3153L27.5211 12.336H33.8364L27.5211 18.6636H21.3153L15 24.9909Z" fill="#CF242A"></path> <defs> <filter id="filter0_d" x="0" y="0" width="228" height="38" filterUnits="userSpaceOnUse" color-interpolation-filters="sRGB"> <feFlood flood-opacity="0" result="BackgroundImageFix"></feFlood> <feColorMatrix in="SourceAlpha" type="matrix" values="0 0 0 0 0 0 0 0 0 0 0 0 0 0 0 0 0 0 127 0"></feColorMatrix> <feOffset dy="4"></feOffset> <feGaussianBlur stdDeviation="2"></feGaussianBlur> <feColorMatrix type="matrix" values="0 0 0 0 0 0 0 0 0 0 0 0 0 0 0 0 0 0 0.25 0"></feColorMatrix> <feBlend mode="normal" in2="BackgroundImageFix" result="effect1_dropShadow"></feBlend> <feBlend mode="normal" in="SourceGraphic" in2="effect1_dropShadow" result="shape"></feBlend> </filter> </defs> </svg> 