<?xml version="1.0" encoding="UTF-8"?> <svg xmlns="http://www.w3.org/2000/svg" width="45" height="45" viewBox="0 0 45 45" fill="none"> <g clip-path="url(#clip0)"> <path d="M4.04297 26.543H1.31836C0.589658 26.543 0 27.1326 0 27.8613V43.6816C0 44.4103 0.589658 45 1.31836 45H4.04297C6.22389 45 7.99805 43.2258 7.99805 41.0449V30.498C7.99805 28.3171 6.22389 26.543 4.04297 26.543Z" fill="#0084DF"></path> <path d="M30.498 0C22.5087 0 15.9961 6.51261 15.9961 14.502C15.9961 17.9824 17.2353 21.1728 19.292 23.6776C20.9531 24.1523 22.5087 24.996 23.8271 26.1562C24.075 26.3422 24.215 26.34 24.4862 26.3672H29.1797C30.999 26.3672 32.6074 27.2636 33.5304 28.6875C40.0693 27.29 45 21.4629 45 14.502C45 6.51261 38.4874 0 30.498 0ZM31.8428 20.8564H31.8164V22.4121C31.8164 23.1503 31.2364 23.7305 30.498 23.7305C29.7597 23.7305 29.1797 23.1503 29.1797 22.4121V20.8564C28.3096 20.5663 27.4922 20.0126 26.7804 19.1426C26.3057 18.5888 26.3849 17.7714 26.9386 17.2969C27.4922 16.8223 28.3359 16.9014 28.7842 17.4551C29.4962 18.2988 30.2871 18.6152 30.9463 18.3778C31.4736 18.1933 31.8164 17.6923 31.8164 17.1387C31.8164 16.4003 31.2364 15.8203 30.498 15.8203C28.3096 15.8203 26.543 14.0536 26.543 11.8652C26.543 10.2831 27.4922 8.83292 28.9688 8.22656C29.0216 8.2002 29.1006 8.2002 29.1797 8.17374V6.5918C29.1797 5.85343 29.7597 5.27344 30.498 5.27344C31.2364 5.27344 31.8164 5.85343 31.8164 6.5918V8.17374C32.502 8.41113 33.1611 8.75391 33.7676 9.3339C34.2949 9.83487 34.2949 10.6786 33.7939 11.2061C33.293 11.7335 32.4492 11.7334 31.9218 11.2324C31.289 10.6259 30.5772 10.3887 29.9971 10.6523C29.4961 10.8633 29.1797 11.3379 29.1797 11.8652C29.1797 12.6034 29.7597 13.1836 30.498 13.1836C32.6865 13.1836 34.4531 14.9502 34.4531 17.1387C34.4531 18.7998 33.3983 20.2764 31.8428 20.8564Z" fill="#0084DF"></path> <path d="M44.6045 29.1006C44.4462 28.837 44.2354 28.626 43.998 28.4414C43.0273 27.5921 41.3917 27.6725 40.4386 28.7052L34.4531 35.6134L34.2686 35.8242C33.5304 36.6416 32.4756 37.0899 31.3682 37.0899H21.0498C20.3114 37.0899 19.7314 36.5097 19.7314 35.7715C19.7314 35.0332 20.3114 34.4532 21.0498 34.4532H29.1797C30.6299 34.4532 31.8164 33.2666 31.8164 31.8164V31.7901C31.79 30.3399 30.6299 29.1797 29.1797 29.1797H24.3193C23.5287 29.1797 22.6813 28.8894 21.999 28.3096C18.7823 25.4883 14.0889 25.3037 10.6348 27.7032V43.919C13.2451 44.631 15.9346 45.0001 18.6503 45.0001H30.498C33.3983 45.0001 36.1406 43.6289 37.8809 41.3086L44.2091 32.8711C45.1324 31.6592 45.202 29.9972 44.6045 29.1006Z" fill="#0084DF"></path> </g> <defs> <clipPath id="clip0"> <rect width="45" height="45" fill="white"></rect> </clipPath> </defs> </svg> 