<?xml version="1.0" encoding="UTF-8"?> <svg xmlns="http://www.w3.org/2000/svg" width="45" height="45" viewBox="0 0 45 45" fill="none"> <path d="M39.1992 5.44922H29.9707V3.95508C29.9707 1.77425 28.1965 0 26.0156 0H18.9844C16.8035 0 15.0293 1.77425 15.0293 3.95508V5.44922H5.80078C3.61995 5.44922 1.8457 7.22347 1.8457 9.4043V13.3594H12.2976C14.862 10.6545 18.4873 8.96484 22.5 8.96484C26.5127 8.96484 30.1379 10.6545 32.7024 13.3594H43.1543V9.4043C43.1543 7.22347 41.3801 5.44922 39.1992 5.44922ZM17.666 5.44922V3.95508C17.666 3.22813 18.2574 2.63672 18.9844 2.63672H26.0156C26.7426 2.63672 27.334 3.22813 27.334 3.95508V5.44922H17.666Z" fill="black"></path> <path d="M36.5626 23.0273C36.5626 26.7919 35.0905 30.328 32.4176 32.9845C31.9696 33.4297 31.6113 33.9261 31.3506 34.4531H39.1993C41.3802 34.4531 43.1544 32.6789 43.1544 30.498V15.9961H34.6749C35.8748 18.0657 36.5626 20.4677 36.5626 23.0273Z" fill="black"></path> <path d="M8.4375 23.0273C8.4375 20.4677 9.12533 18.0657 10.3252 15.9961H1.8457V30.498C1.8457 32.6789 3.61995 34.4531 5.80078 34.4531H13.6495C13.3888 33.926 13.0304 33.4296 12.5824 32.9844C9.90958 30.328 8.4375 26.7919 8.4375 23.0273Z" fill="black"></path> <path d="M16.7871 41.0449C16.7871 43.2258 18.5614 45 20.7422 45H24.2578C26.4386 45 28.2129 43.2258 28.2129 41.0449V38.8477H16.7871V41.0449Z" fill="black"></path> <path d="M23.3388 25.1113C23.3287 25.1078 23.3195 25.1043 23.3096 25.1008V28.7162C24.0238 28.4004 24.446 27.7268 24.5529 27.0905C24.6106 26.7474 24.6936 25.5902 23.3388 25.1113Z" fill="black"></path> <path d="M20.7692 20.9937C20.6803 21.4651 20.8 21.9085 21.074 22.1234C21.2131 22.2325 21.3749 22.3382 21.5518 22.4408V19.8894C21.0879 20.1283 20.8438 20.5974 20.7692 20.9937Z" fill="black"></path> <path d="M22.5 11.6016C16.1997 11.6016 11.0742 16.7272 11.0742 23.0273C11.0742 26.0844 12.2699 28.9564 14.4411 31.1142C15.8694 32.5335 16.6909 34.3322 16.7784 36.2109H28.2216C28.3092 34.3322 29.1307 32.5335 30.5588 31.1142C32.7301 28.9564 33.9258 26.0844 33.9258 23.0273C33.9258 16.7272 28.8003 11.6016 22.5 11.6016ZM26.2864 27.3821C26.0531 28.7702 24.9804 30.1777 23.3096 30.5575V31.377C23.3096 31.8624 22.916 32.2559 22.4307 32.2559C21.9453 32.2559 21.5517 31.8624 21.5517 31.377V30.6367C20.7077 30.5781 20.0321 30.3732 19.0586 29.7363C18.6524 29.4705 18.5386 28.9259 18.8043 28.5196C19.0699 28.1134 19.6147 27.9996 20.021 28.2653C20.6343 28.6665 21.0068 28.82 21.5517 28.8741V24.4098C20.8831 24.1082 20.3895 23.8205 19.9891 23.5064C19.1927 22.8817 18.8296 21.7942 19.0418 20.6682C19.2738 19.4369 20.1295 18.4577 21.2752 18.1126C21.3688 18.0844 21.4607 18.0602 21.5517 18.0378V17.3145C21.5517 16.829 21.9453 16.4355 22.4307 16.4355C22.916 16.4355 23.3096 16.829 23.3096 17.3145V17.9358C24.3057 18.0809 25.0061 18.5622 25.3387 18.944C25.6576 19.31 25.6194 19.8651 25.2534 20.1841C24.8888 20.5019 24.336 20.4651 24.0166 20.1024C24.0001 20.0856 23.7669 19.8552 23.3096 19.7305V23.2307C23.5158 23.3081 23.7224 23.3826 23.9246 23.4541C25.6575 24.0666 26.5846 25.6084 26.2864 27.3821Z" fill="black"></path> </svg> 