<?xml version="1.0" encoding="UTF-8"?> <svg xmlns="http://www.w3.org/2000/svg" width="110" height="110" viewBox="0 0 110 110" fill="none"> <g filter="url(#filter0_d)"> <rect x="20" y="10" width="70" height="70" rx="10" fill="url(#paint0_linear)"></rect> <g clip-path="url(#clip0)"> <path d="M35.4319 49.2222V45.8192C35.4319 45.0915 36.0225 44.5009 36.7502 44.5009H40.1532C40.1532 47.1041 38.0351 49.2222 35.4319 49.2222Z" fill="#212129"></path> <path d="M40.1532 67H36.7502C36.0225 67 35.4319 66.4094 35.4319 65.6817V62.2787C38.0351 62.2787 40.1532 64.3968 40.1532 67Z" fill="#212129"></path> <path d="M73.568 45.8192V49.2222C70.9648 49.2222 68.8467 47.1041 68.8467 44.5009H72.2497C72.9774 44.5009 73.568 45.0915 73.568 45.8192Z" fill="#212129"></path> <path d="M54.4999 51.5898C52.2061 51.5898 50.3393 53.4566 50.3393 55.7504C50.3393 58.0443 52.2061 59.911 54.4999 59.911C56.7938 59.911 58.6605 58.0443 58.6605 55.7504C58.6605 53.4566 56.7938 51.5898 54.4999 51.5898ZM54.4999 51.5898C52.2061 51.5898 50.3393 53.4566 50.3393 55.7504C50.3393 58.0443 52.2061 59.911 54.4999 59.911C56.7938 59.911 58.6605 58.0443 58.6605 55.7504C58.6605 53.4566 56.7938 51.5898 54.4999 51.5898ZM66.21 44.5009H42.7898C42.7898 48.5577 39.4888 51.8588 35.4319 51.8588V59.6421C39.4888 59.6421 42.7898 62.9431 42.7898 67H66.21C66.21 62.9431 69.5111 59.6421 73.568 59.6421V51.8588C69.5111 51.8588 66.21 48.5577 66.21 44.5009ZM44.6267 57.0687H41.1446C40.416 57.0687 39.8263 56.4781 39.8263 55.7504C39.8263 55.0227 40.416 54.4321 41.1446 54.4321H44.6267C45.3544 54.4321 45.945 55.0227 45.945 55.7504C45.945 56.4781 45.3544 57.0687 44.6267 57.0687ZM54.4999 62.5476C50.7515 62.5476 47.7027 59.4988 47.7027 55.7504C47.7027 52.002 50.7515 48.9532 54.4999 48.9532C58.2483 48.9532 61.2971 52.002 61.2971 55.7504C61.2971 59.4988 58.2483 62.5476 54.4999 62.5476ZM67.8553 57.0687H64.3732C63.6455 57.0687 63.0549 56.4781 63.0549 55.7504C63.0549 55.0227 63.6455 54.4321 64.3732 54.4321H67.8553C68.5839 54.4321 69.1736 55.0227 69.1736 55.7504C69.1736 56.4781 68.5839 57.0687 67.8553 57.0687ZM54.4999 51.5898C52.2061 51.5898 50.3393 53.4566 50.3393 55.7504C50.3393 58.0443 52.2061 59.911 54.4999 59.911C56.7938 59.911 58.6605 58.0443 58.6605 55.7504C58.6605 53.4566 56.7938 51.5898 54.4999 51.5898Z" fill="#212129"></path> <path d="M73.568 62.2787V65.6817C73.568 66.4094 72.9774 67 72.2497 67H68.8467C68.8467 64.3968 70.9648 62.2787 73.568 62.2787Z" fill="#212129"></path> <path d="M52.3862 27.3733C52.0663 27.6941 51.7578 28.0307 51.4643 28.3832C50.0326 30.097 49.0026 32.0982 48.4304 34.2286C47.6746 33.7223 46.7658 33.427 45.7894 33.427H45.756V35.6242C45.756 36.7063 44.5171 37.3296 43.6476 36.6797L35.4292 30.5276C34.7256 30.0008 34.7255 28.9435 35.4292 28.4166L43.6476 22.2645C44.5185 21.6136 45.756 22.2395 45.756 23.32V25.5172H45.7894C48.1484 25.5172 50.4228 26.171 52.3862 27.3733Z" fill="#212129"></path> <path d="M73.5705 30.5276L65.3522 36.6797C64.4813 37.3305 63.2438 36.7047 63.2438 35.6242V33.427H63.2104C60.5878 33.427 58.4548 35.56 58.4548 38.1826V41.8642H50.5449V38.1826C50.5449 35.2252 51.5899 32.346 53.4883 30.0732C55.9061 27.1782 59.4497 25.5171 63.2104 25.5171H63.2438V23.3199C63.2438 22.2379 64.4826 21.6146 65.3522 22.2644L73.5705 28.4165C74.2742 28.9433 74.2743 30.0007 73.5705 30.5276Z" fill="#212129"></path> </g> </g> <defs> <filter id="filter0_d" x="0" y="0" width="110" height="110" filterUnits="userSpaceOnUse" color-interpolation-filters="sRGB"> <feFlood flood-opacity="0" result="BackgroundImageFix"></feFlood> <feColorMatrix in="SourceAlpha" type="matrix" values="0 0 0 0 0 0 0 0 0 0 0 0 0 0 0 0 0 0 127 0"></feColorMatrix> <feOffset dy="10"></feOffset> <feGaussianBlur stdDeviation="10"></feGaussianBlur> <feColorMatrix type="matrix" values="0 0 0 0 0 0 0 0 0 0.517647 0 0 0 0 0.87451 0 0 0 0.3 0"></feColorMatrix> <feBlend mode="normal" in2="BackgroundImageFix" result="effect1_dropShadow"></feBlend> <feBlend mode="normal" in="SourceGraphic" in2="effect1_dropShadow" result="shape"></feBlend> </filter> <linearGradient id="paint0_linear" x1="90" y1="10" x2="20" y2="80" gradientUnits="userSpaceOnUse"> <stop stop-color="#1696EE"></stop> <stop offset="1" stop-color="#086AAE"></stop> </linearGradient> <clipPath id="clip0"> <rect width="45" height="45" fill="white" transform="translate(32 22)"></rect> </clipPath> </defs> </svg> 