<?xml version="1.0" encoding="UTF-8"?> <svg xmlns="http://www.w3.org/2000/svg" width="1400" height="705" viewBox="0 0 1400 705" fill="none"> <g opacity="0.25"> <mask id="mask0" mask-type="alpha" maskUnits="userSpaceOnUse" x="0" y="0" width="1400" height="705"> <rect width="1400" height="705" fill="url(#paint0_radial)"></rect> </mask> <g mask="url(#mask0)"> <line y1="-0.5" x2="965.018" y2="-0.5" transform="matrix(-0.682853 0.730556 -0.682853 -0.730556 241.379 -26.4612)" stroke="#F2F2F2"></line> <line y1="-0.5" x2="965.018" y2="-0.5" transform="matrix(-0.682853 0.730556 -0.682853 -0.730556 1013.79 -26.4612)" stroke="#F2F2F2"></line> <line y1="-0.5" x2="965.018" y2="-0.5" transform="matrix(-0.682853 0.730556 -0.682853 -0.730556 627.586 -26.4612)" stroke="#F2F2F2"></line> <line y1="-0.5" x2="965.018" y2="-0.5" transform="matrix(-0.682853 0.730556 -0.682853 -0.730556 1400 -26.4612)" stroke="#F2F2F2"></line> <line y1="-0.5" x2="965.018" y2="-0.5" transform="matrix(-0.682853 0.730556 -0.682853 -0.730556 260.69 -26.4612)" stroke="#F2F2F2"></line> <line y1="-0.5" x2="965.018" y2="-0.5" transform="matrix(-0.682853 0.730556 -0.682853 -0.730556 1033.1 -26.4612)" stroke="#F2F2F2"></line> <line y1="-0.5" x2="965.018" y2="-0.5" transform="matrix(-0.682853 0.730556 -0.682853 -0.730556 646.897 -26.4612)" stroke="#F2F2F2"></line> <line y1="-0.5" x2="965.018" y2="-0.5" transform="matrix(-0.682853 0.730556 -0.682853 -0.730556 1419.31 -26.4612)" stroke="#F2F2F2"></line> <line y1="-0.5" x2="965.018" y2="-0.5" transform="matrix(-0.682853 0.730556 -0.682853 -0.730556 280 -26.4612)" stroke="#F2F2F2"></line> <line y1="-0.5" x2="965.018" y2="-0.5" transform="matrix(-0.682853 0.730556 -0.682853 -0.730556 1052.41 -26.4612)" stroke="#F2F2F2"></line> <line y1="-0.5" x2="965.018" y2="-0.5" transform="matrix(-0.682853 0.730556 -0.682853 -0.730556 666.207 -26.4612)" stroke="#F2F2F2"></line> <line y1="-0.5" x2="965.018" y2="-0.5" transform="matrix(-0.682853 0.730556 -0.682853 -0.730556 1438.62 -26.4612)" stroke="#F2F2F2"></line> <line y1="-0.5" x2="965.018" y2="-0.5" transform="matrix(-0.682853 0.730556 -0.682853 -0.730556 299.31 -26.4612)" stroke="#F2F2F2"></line> <line y1="-0.5" x2="965.018" y2="-0.5" transform="matrix(-0.682853 0.730556 -0.682853 -0.730556 1071.72 -26.4612)" stroke="#F2F2F2"></line> <line y1="-0.5" x2="965.018" y2="-0.5" transform="matrix(-0.682853 0.730556 -0.682853 -0.730556 685.517 -26.4612)" stroke="#F2F2F2"></line> <line y1="-0.5" x2="965.018" y2="-0.5" transform="matrix(-0.682853 0.730556 -0.682853 -0.730556 1457.93 -26.4612)" stroke="#F2F2F2"></line> <line y1="-0.5" x2="965.018" y2="-0.5" transform="matrix(-0.682853 0.730556 -0.682853 -0.730556 318.621 -26.4612)" stroke="#F2F2F2"></line> <line y1="-0.5" x2="965.018" y2="-0.5" transform="matrix(-0.682853 0.730556 -0.682853 -0.730556 1091.03 -26.4612)" stroke="#F2F2F2"></line> <line y1="-0.5" x2="965.018" y2="-0.5" transform="matrix(-0.682853 0.730556 -0.682853 -0.730556 704.828 -26.4612)" stroke="#F2F2F2"></line> <line y1="-0.5" x2="965.018" y2="-0.5" transform="matrix(-0.682853 0.730556 -0.682853 -0.730556 1477.24 -26.4612)" stroke="#F2F2F2"></line> <line y1="-0.5" x2="965.018" y2="-0.5" transform="matrix(-0.682853 0.730556 -0.682853 -0.730556 337.931 -26.4612)" stroke="#F2F2F2"></line> <line y1="-0.5" x2="965.018" y2="-0.5" transform="matrix(-0.682853 0.730556 -0.682853 -0.730556 1110.34 -26.4612)" stroke="#F2F2F2"></line> <line y1="-0.5" x2="965.018" y2="-0.5" transform="matrix(-0.682853 0.730556 -0.682853 -0.730556 724.138 -26.4612)" stroke="#F2F2F2"></line> <line y1="-0.5" x2="965.018" y2="-0.5" transform="matrix(-0.682853 0.730556 -0.682853 -0.730556 1496.55 -26.4612)" stroke="#F2F2F2"></line> <line y1="-0.5" x2="965.018" y2="-0.5" transform="matrix(-0.682853 0.730556 -0.682853 -0.730556 357.241 -26.4612)" stroke="#F2F2F2"></line> <line y1="-0.5" x2="965.018" y2="-0.5" transform="matrix(-0.682853 0.730556 -0.682853 -0.730556 1129.66 -26.4612)" stroke="#F2F2F2"></line> <line y1="-0.5" x2="965.018" y2="-0.5" transform="matrix(-0.682853 0.730556 -0.682853 -0.730556 743.448 -26.4612)" stroke="#F2F2F2"></line> <line y1="-0.5" x2="965.018" y2="-0.5" transform="matrix(-0.682853 0.730556 -0.682853 -0.730556 1515.86 -26.4612)" stroke="#F2F2F2"></line> <line y1="-0.5" x2="965.018" y2="-0.5" transform="matrix(-0.682853 0.730556 -0.682853 -0.730556 376.552 -26.4612)" stroke="#F2F2F2"></line> <line y1="-0.5" x2="965.018" y2="-0.5" transform="matrix(-0.682853 0.730556 -0.682853 -0.730556 1148.97 -26.4612)" stroke="#F2F2F2"></line> <line y1="-0.5" x2="965.018" y2="-0.5" transform="matrix(-0.682853 0.730556 -0.682853 -0.730556 762.759 -26.4612)" stroke="#F2F2F2"></line> <line y1="-0.5" x2="965.018" y2="-0.5" transform="matrix(-0.682853 0.730556 -0.682853 -0.730556 1535.17 -26.4612)" stroke="#F2F2F2"></line> <line y1="-0.5" x2="965.018" y2="-0.5" transform="matrix(-0.682853 0.730556 -0.682853 -0.730556 395.862 -26.4612)" stroke="#F2F2F2"></line> <line y1="-0.5" x2="965.018" y2="-0.5" transform="matrix(-0.682853 0.730556 -0.682853 -0.730556 1168.28 -26.4612)" stroke="#F2F2F2"></line> <line y1="-0.5" x2="965.018" y2="-0.5" transform="matrix(-0.682853 0.730556 -0.682853 -0.730556 782.069 -26.4612)" stroke="#F2F2F2"></line> <line y1="-0.5" x2="965.018" y2="-0.5" transform="matrix(-0.682853 0.730556 -0.682853 -0.730556 1554.48 -26.4612)" stroke="#F2F2F2"></line> <line y1="-0.5" x2="965.018" y2="-0.5" transform="matrix(-0.682853 0.730556 -0.682853 -0.730556 415.172 -26.4612)" stroke="#F2F2F2"></line> <line y1="-0.5" x2="965.018" y2="-0.5" transform="matrix(-0.682853 0.730556 -0.682853 -0.730556 1187.59 -26.4612)" stroke="#F2F2F2"></line> <line y1="-0.5" x2="965.018" y2="-0.5" transform="matrix(-0.682853 0.730556 -0.682853 -0.730556 801.379 -26.4612)" stroke="#F2F2F2"></line> <line y1="-0.5" x2="965.018" y2="-0.5" transform="matrix(-0.682853 0.730556 -0.682853 -0.730556 1573.79 -26.4612)" stroke="#F2F2F2"></line> <line y1="-0.5" x2="965.018" y2="-0.5" transform="matrix(-0.682853 0.730556 -0.682853 -0.730556 434.483 -26.4612)" stroke="#F2F2F2"></line> <line y1="-0.5" x2="965.018" y2="-0.5" transform="matrix(-0.682853 0.730556 -0.682853 -0.730556 1206.9 -26.4612)" stroke="#F2F2F2"></line> <line y1="-0.5" x2="965.018" y2="-0.5" transform="matrix(-0.682853 0.730556 -0.682853 -0.730556 820.69 -26.4612)" stroke="#F2F2F2"></line> <line y1="-0.5" x2="965.018" y2="-0.5" transform="matrix(-0.682853 0.730556 -0.682853 -0.730556 1593.1 -26.4612)" stroke="#F2F2F2"></line> <line y1="-0.5" x2="965.018" y2="-0.5" transform="matrix(-0.682853 0.730556 -0.682853 -0.730556 453.793 -26.4612)" stroke="#F2F2F2"></line> <line y1="-0.5" x2="965.018" y2="-0.5" transform="matrix(-0.682853 0.730556 -0.682853 -0.730556 1226.21 -26.4612)" stroke="#F2F2F2"></line> <line y1="-0.5" x2="965.018" y2="-0.5" transform="matrix(-0.682853 0.730556 -0.682853 -0.730556 840 -26.4612)" stroke="#F2F2F2"></line> <line y1="-0.5" x2="965.018" y2="-0.5" transform="matrix(-0.682853 0.730556 -0.682853 -0.730556 1612.41 -26.4612)" stroke="#F2F2F2"></line> <line y1="-0.5" x2="965.018" y2="-0.5" transform="matrix(-0.682853 0.730556 -0.682853 -0.730556 473.104 -26.4612)" stroke="#F2F2F2"></line> <line y1="-0.5" x2="965.018" y2="-0.5" transform="matrix(-0.682853 0.730556 -0.682853 -0.730556 1245.52 -26.4612)" stroke="#F2F2F2"></line> <line y1="-0.5" x2="965.018" y2="-0.5" transform="matrix(-0.682853 0.730556 -0.682853 -0.730556 859.31 -26.4612)" stroke="#F2F2F2"></line> <line y1="-0.5" x2="965.018" y2="-0.5" transform="matrix(-0.682853 0.730556 -0.682853 -0.730556 1631.72 -26.4612)" stroke="#F2F2F2"></line> <line y1="-0.5" x2="965.018" y2="-0.5" transform="matrix(-0.682853 0.730556 -0.682853 -0.730556 492.414 -26.4612)" stroke="#F2F2F2"></line> <line y1="-0.5" x2="965.018" y2="-0.5" transform="matrix(-0.682853 0.730556 -0.682853 -0.730556 1264.83 -26.4612)" stroke="#F2F2F2"></line> <line y1="-0.5" x2="965.018" y2="-0.5" transform="matrix(-0.682853 0.730556 -0.682853 -0.730556 878.621 -26.4612)" stroke="#F2F2F2"></line> <line y1="-0.5" x2="965.018" y2="-0.5" transform="matrix(-0.682853 0.730556 -0.682853 -0.730556 1651.03 -26.4612)" stroke="#F2F2F2"></line> <line y1="-0.5" x2="965.018" y2="-0.5" transform="matrix(-0.682853 0.730556 -0.682853 -0.730556 511.724 -26.4612)" stroke="#F2F2F2"></line> <line y1="-0.5" x2="965.018" y2="-0.5" transform="matrix(-0.682853 0.730556 -0.682853 -0.730556 1284.14 -26.4612)" stroke="#F2F2F2"></line> <line y1="-0.5" x2="965.018" y2="-0.5" transform="matrix(-0.682853 0.730556 -0.682853 -0.730556 897.931 -26.4612)" stroke="#F2F2F2"></line> <line y1="-0.5" x2="965.018" y2="-0.5" transform="matrix(-0.682853 0.730556 -0.682853 -0.730556 1670.34 -26.4612)" stroke="#F2F2F2"></line> <line y1="-0.5" x2="965.018" y2="-0.5" transform="matrix(-0.682853 0.730556 -0.682853 -0.730556 531.034 -26.4612)" stroke="#F2F2F2"></line> <line y1="-0.5" x2="965.018" y2="-0.5" transform="matrix(-0.682853 0.730556 -0.682853 -0.730556 1303.45 -26.4612)" stroke="#F2F2F2"></line> <line y1="-0.5" x2="965.018" y2="-0.5" transform="matrix(-0.682853 0.730556 -0.682853 -0.730556 917.241 -26.4612)" stroke="#F2F2F2"></line> <line y1="-0.5" x2="965.018" y2="-0.5" transform="matrix(-0.682853 0.730556 -0.682853 -0.730556 1689.66 -26.4612)" stroke="#F2F2F2"></line> <line y1="-0.5" x2="965.018" y2="-0.5" transform="matrix(-0.682853 0.730556 -0.682853 -0.730556 550.345 -26.4612)" stroke="#F2F2F2"></line> <line y1="-0.5" x2="965.018" y2="-0.5" transform="matrix(-0.682853 0.730556 -0.682853 -0.730556 1322.76 -26.4612)" stroke="#F2F2F2"></line> <line y1="-0.5" x2="965.018" y2="-0.5" transform="matrix(-0.682853 0.730556 -0.682853 -0.730556 936.552 -26.4612)" stroke="#F2F2F2"></line> <line y1="-0.5" x2="965.018" y2="-0.5" transform="matrix(-0.682853 0.730556 -0.682853 -0.730556 1708.97 -26.4612)" stroke="#F2F2F2"></line> <line y1="-0.5" x2="965.018" y2="-0.5" transform="matrix(-0.682853 0.730556 -0.682853 -0.730556 588.966 -26.4612)" stroke="#F2F2F2"></line> <line y1="-0.5" x2="965.018" y2="-0.5" transform="matrix(-0.682853 0.730556 -0.682853 -0.730556 1361.38 -26.4612)" stroke="#F2F2F2"></line> <line y1="-0.5" x2="965.018" y2="-0.5" transform="matrix(-0.682853 0.730556 -0.682853 -0.730556 975.172 -26.4612)" stroke="#F2F2F2"></line> <line y1="-0.5" x2="965.018" y2="-0.5" transform="matrix(-0.682853 0.730556 -0.682853 -0.730556 1747.59 -26.4612)" stroke="#F2F2F2"></line> <line y1="-0.5" x2="965.018" y2="-0.5" transform="matrix(-0.682853 0.730556 -0.682853 -0.730556 569.655 -26.4612)" stroke="#F2F2F2"></line> <line y1="-0.5" x2="965.018" y2="-0.5" transform="matrix(-0.682853 0.730556 -0.682853 -0.730556 1342.07 -26.4612)" stroke="#F2F2F2"></line> <line y1="-0.5" x2="965.018" y2="-0.5" transform="matrix(-0.682853 0.730556 -0.682853 -0.730556 955.862 -26.4612)" stroke="#F2F2F2"></line> <line y1="-0.5" x2="965.018" y2="-0.5" transform="matrix(-0.682853 0.730556 -0.682853 -0.730556 1728.28 -26.4612)" stroke="#F2F2F2"></line> <line y1="-0.5" x2="965.018" y2="-0.5" transform="matrix(-0.682853 0.730556 -0.682853 -0.730556 608.276 -26.4612)" stroke="#F2F2F2"></line> <line y1="-0.5" x2="965.018" y2="-0.5" transform="matrix(-0.682853 0.730556 -0.682853 -0.730556 1380.69 -26.4612)" stroke="#F2F2F2"></line> <line y1="-0.5" x2="965.018" y2="-0.5" transform="matrix(-0.682853 0.730556 -0.682853 -0.730556 994.483 -26.4612)" stroke="#F2F2F2"></line> <line y1="-0.5" x2="965.018" y2="-0.5" transform="matrix(-0.682853 0.730556 -0.682853 -0.730556 1766.9 -26.4612)" stroke="#F2F2F2"></line> </g> </g> <defs> <radialGradient id="paint0_radial" cx="0" cy="0" r="1" gradientUnits="userSpaceOnUse" gradientTransform="translate(700 352.5) rotate(90) scale(352.5 700)"> <stop stop-color="#C4C4C4"></stop> <stop offset="1" stop-color="#C4C4C4" stop-opacity="0"></stop> </radialGradient> </defs> </svg> 