<?xml version="1.0" encoding="UTF-8"?> <svg xmlns="http://www.w3.org/2000/svg" width="1920" height="900" viewBox="0 0 1920 900" fill="none"> <g clip-path="url(#clip0)"> <rect width="1920" height="900" fill="#212129"></rect> <g opacity="0.25"> <mask id="mask0" mask-type="alpha" maskUnits="userSpaceOnUse" x="-832" y="295" width="1400" height="705"> <rect x="-832" y="295" width="1400" height="705" fill="url(#paint0_radial)"></rect> </mask> <g mask="url(#mask0)"> <line y1="-0.5" x2="965.018" y2="-0.5" transform="matrix(-0.682853 0.730556 -0.682853 -0.730556 181.793 268.539)" stroke="#F2F2F2"></line> <line y1="-0.5" x2="965.018" y2="-0.5" transform="matrix(-0.682853 0.730556 -0.682853 -0.730556 568 268.539)" stroke="#F2F2F2"></line> <line y1="-0.5" x2="965.018" y2="-0.5" transform="matrix(-0.682853 0.730556 -0.682853 -0.730556 201.103 268.539)" stroke="#F2F2F2"></line> <line y1="-0.5" x2="965.018" y2="-0.5" transform="matrix(-0.682853 0.730556 -0.682853 -0.730556 587.31 268.539)" stroke="#F2F2F2"></line> <line y1="-0.5" x2="965.018" y2="-0.5" transform="matrix(-0.682853 0.730556 -0.682853 -0.730556 220.414 268.539)" stroke="#F2F2F2"></line> <line y1="-0.5" x2="965.018" y2="-0.5" transform="matrix(-0.682853 0.730556 -0.682853 -0.730556 606.621 268.539)" stroke="#F2F2F2"></line> <line y1="-0.5" x2="965.018" y2="-0.5" transform="matrix(-0.682853 0.730556 -0.682853 -0.730556 239.724 268.539)" stroke="#F2F2F2"></line> <line y1="-0.5" x2="965.018" y2="-0.5" transform="matrix(-0.682853 0.730556 -0.682853 -0.730556 625.931 268.539)" stroke="#F2F2F2"></line> <line y1="-0.5" x2="965.018" y2="-0.5" transform="matrix(-0.682853 0.730556 -0.682853 -0.730556 259.034 268.539)" stroke="#F2F2F2"></line> <line y1="-0.5" x2="965.018" y2="-0.5" transform="matrix(-0.682853 0.730556 -0.682853 -0.730556 645.241 268.539)" stroke="#F2F2F2"></line> <line y1="-0.5" x2="965.018" y2="-0.5" transform="matrix(-0.682853 0.730556 -0.682853 -0.730556 278.345 268.539)" stroke="#F2F2F2"></line> <line y1="-0.5" x2="965.018" y2="-0.5" transform="matrix(-0.682853 0.730556 -0.682853 -0.730556 664.552 268.539)" stroke="#F2F2F2"></line> <line y1="-0.5" x2="965.018" y2="-0.5" transform="matrix(-0.682853 0.730556 -0.682853 -0.730556 297.655 268.539)" stroke="#F2F2F2"></line> <line y1="-0.5" x2="965.018" y2="-0.5" transform="matrix(-0.682853 0.730556 -0.682853 -0.730556 683.862 268.539)" stroke="#F2F2F2"></line> <line y1="-0.5" x2="965.018" y2="-0.5" transform="matrix(-0.682853 0.730556 -0.682853 -0.730556 316.966 268.539)" stroke="#F2F2F2"></line> <line y1="-0.5" x2="965.018" y2="-0.5" transform="matrix(-0.682853 0.730556 -0.682853 -0.730556 703.172 268.539)" stroke="#F2F2F2"></line> <line y1="-0.5" x2="965.018" y2="-0.5" transform="matrix(-0.682853 0.730556 -0.682853 -0.730556 336.276 268.539)" stroke="#F2F2F2"></line> <line y1="-0.5" x2="965.018" y2="-0.5" transform="matrix(-0.682853 0.730556 -0.682853 -0.730556 722.483 268.539)" stroke="#F2F2F2"></line> <line y1="-0.5" x2="965.018" y2="-0.5" transform="matrix(-0.682853 0.730556 -0.682853 -0.730556 355.586 268.539)" stroke="#F2F2F2"></line> <line y1="-0.5" x2="965.018" y2="-0.5" transform="matrix(-0.682853 0.730556 -0.682853 -0.730556 741.793 268.539)" stroke="#F2F2F2"></line> <line y1="-0.5" x2="965.018" y2="-0.5" transform="matrix(-0.682853 0.730556 -0.682853 -0.730556 374.897 268.539)" stroke="#F2F2F2"></line> <line y1="-0.5" x2="965.018" y2="-0.5" transform="matrix(-0.682853 0.730556 -0.682853 -0.730556 761.103 268.539)" stroke="#F2F2F2"></line> <line y1="-0.5" x2="965.018" y2="-0.5" transform="matrix(-0.682853 0.730556 -0.682853 -0.730556 394.207 268.539)" stroke="#F2F2F2"></line> <line y1="-0.5" x2="965.018" y2="-0.5" transform="matrix(-0.682853 0.730556 -0.682853 -0.730556 8 268.539)" stroke="#F2F2F2"></line> <line y1="-0.5" x2="965.018" y2="-0.5" transform="matrix(-0.682853 0.730556 -0.682853 -0.730556 780.414 268.539)" stroke="#F2F2F2"></line> <line y1="-0.5" x2="965.018" y2="-0.5" transform="matrix(-0.682853 0.730556 -0.682853 -0.730556 413.517 268.539)" stroke="#F2F2F2"></line> <line y1="-0.5" x2="965.018" y2="-0.5" transform="matrix(-0.682853 0.730556 -0.682853 -0.730556 27.3103 268.539)" stroke="#F2F2F2"></line> <line y1="-0.5" x2="965.018" y2="-0.5" transform="matrix(-0.682853 0.730556 -0.682853 -0.730556 799.724 268.539)" stroke="#F2F2F2"></line> <line y1="-0.5" x2="965.018" y2="-0.5" transform="matrix(-0.682853 0.730556 -0.682853 -0.730556 432.828 268.539)" stroke="#F2F2F2"></line> <line y1="-0.5" x2="965.018" y2="-0.5" transform="matrix(-0.682853 0.730556 -0.682853 -0.730556 46.6207 268.539)" stroke="#F2F2F2"></line> <line y1="-0.5" x2="965.018" y2="-0.5" transform="matrix(-0.682853 0.730556 -0.682853 -0.730556 819.034 268.539)" stroke="#F2F2F2"></line> <line y1="-0.5" x2="965.018" y2="-0.5" transform="matrix(-0.682853 0.730556 -0.682853 -0.730556 452.138 268.539)" stroke="#F2F2F2"></line> <line y1="-0.5" x2="965.018" y2="-0.5" transform="matrix(-0.682853 0.730556 -0.682853 -0.730556 65.931 268.539)" stroke="#F2F2F2"></line> <line y1="-0.5" x2="965.018" y2="-0.5" transform="matrix(-0.682853 0.730556 -0.682853 -0.730556 838.345 268.539)" stroke="#F2F2F2"></line> <line y1="-0.5" x2="965.018" y2="-0.5" transform="matrix(-0.682853 0.730556 -0.682853 -0.730556 471.448 268.539)" stroke="#F2F2F2"></line> <line y1="-0.5" x2="965.018" y2="-0.5" transform="matrix(-0.682853 0.730556 -0.682853 -0.730556 85.2413 268.539)" stroke="#F2F2F2"></line> <line y1="-0.5" x2="965.018" y2="-0.5" transform="matrix(-0.682853 0.730556 -0.682853 -0.730556 857.655 268.539)" stroke="#F2F2F2"></line> <line y1="-0.5" x2="965.018" y2="-0.5" transform="matrix(-0.682853 0.730556 -0.682853 -0.730556 490.759 268.539)" stroke="#F2F2F2"></line> <line y1="-0.5" x2="965.018" y2="-0.5" transform="matrix(-0.682853 0.730556 -0.682853 -0.730556 104.552 268.539)" stroke="#F2F2F2"></line> <line y1="-0.5" x2="965.018" y2="-0.5" transform="matrix(-0.682853 0.730556 -0.682853 -0.730556 876.966 268.539)" stroke="#F2F2F2"></line> <line y1="-0.5" x2="965.018" y2="-0.5" transform="matrix(-0.682853 0.730556 -0.682853 -0.730556 529.379 268.539)" stroke="#F2F2F2"></line> <line y1="-0.5" x2="965.018" y2="-0.5" transform="matrix(-0.682853 0.730556 -0.682853 -0.730556 143.172 268.539)" stroke="#F2F2F2"></line> <line y1="-0.5" x2="965.018" y2="-0.5" transform="matrix(-0.682853 0.730556 -0.682853 -0.730556 915.586 268.539)" stroke="#F2F2F2"></line> <line y1="-0.5" x2="965.018" y2="-0.5" transform="matrix(-0.682853 0.730556 -0.682853 -0.730556 510.069 268.539)" stroke="#F2F2F2"></line> <line y1="-0.5" x2="965.018" y2="-0.5" transform="matrix(-0.682853 0.730556 -0.682853 -0.730556 123.862 268.539)" stroke="#F2F2F2"></line> <line y1="-0.5" x2="965.018" y2="-0.5" transform="matrix(-0.682853 0.730556 -0.682853 -0.730556 896.276 268.539)" stroke="#F2F2F2"></line> <line y1="-0.5" x2="965.018" y2="-0.5" transform="matrix(-0.682853 0.730556 -0.682853 -0.730556 548.69 268.539)" stroke="#F2F2F2"></line> <line y1="-0.5" x2="965.018" y2="-0.5" transform="matrix(-0.682853 0.730556 -0.682853 -0.730556 162.483 268.539)" stroke="#F2F2F2"></line> <line y1="-0.5" x2="965.018" y2="-0.5" transform="matrix(-0.682853 0.730556 -0.682853 -0.730556 934.896 268.539)" stroke="#F2F2F2"></line> </g> </g> <g filter="url(#filter0_f)"> <circle cx="450" cy="1119" r="178" fill="#1AC67A"></circle> </g> <g opacity="0.5" filter="url(#filter1_f)"> <circle cx="1430" cy="731" r="314" fill="#0084DF"></circle> </g> <g filter="url(#filter2_f)"> <circle cx="46" cy="17" r="178" fill="#0084DF"></circle> </g> <g filter="url(#filter3_f)"> <circle cx="1938" cy="17" r="178" fill="#1AC67A"></circle> </g> <g opacity="0.25"> <mask id="mask1" mask-type="alpha" maskUnits="userSpaceOnUse" x="1665" y="-352" width="1400" height="705"> <rect x="1665" y="-352" width="1400" height="705" fill="url(#paint1_radial)"></rect> </mask> <g mask="url(#mask1)"> <line y1="-0.5" x2="965.018" y2="-0.5" transform="matrix(-0.682853 0.730556 -0.682853 -0.730556 1906.38 -378.461)" stroke="#F2F2F2"></line> <line y1="-0.5" x2="965.018" y2="-0.5" transform="matrix(-0.682853 0.730556 -0.682853 -0.730556 2292.59 -378.461)" stroke="#F2F2F2"></line> <line y1="-0.5" x2="965.018" y2="-0.5" transform="matrix(-0.682853 0.730556 -0.682853 -0.730556 1925.69 -378.461)" stroke="#F2F2F2"></line> <line y1="-0.5" x2="965.018" y2="-0.5" transform="matrix(-0.682853 0.730556 -0.682853 -0.730556 2311.9 -378.461)" stroke="#F2F2F2"></line> <line y1="-0.5" x2="965.018" y2="-0.5" transform="matrix(-0.682853 0.730556 -0.682853 -0.730556 1945 -378.461)" stroke="#F2F2F2"></line> <line y1="-0.5" x2="965.018" y2="-0.5" transform="matrix(-0.682853 0.730556 -0.682853 -0.730556 2331.21 -378.461)" stroke="#F2F2F2"></line> <line y1="-0.5" x2="965.018" y2="-0.5" transform="matrix(-0.682853 0.730556 -0.682853 -0.730556 1964.31 -378.461)" stroke="#F2F2F2"></line> <line y1="-0.5" x2="965.018" y2="-0.5" transform="matrix(-0.682853 0.730556 -0.682853 -0.730556 2350.52 -378.461)" stroke="#F2F2F2"></line> <line y1="-0.5" x2="965.018" y2="-0.5" transform="matrix(-0.682853 0.730556 -0.682853 -0.730556 1983.62 -378.461)" stroke="#F2F2F2"></line> <line y1="-0.5" x2="965.018" y2="-0.5" transform="matrix(-0.682853 0.730556 -0.682853 -0.730556 2369.83 -378.461)" stroke="#F2F2F2"></line> <line y1="-0.5" x2="965.018" y2="-0.5" transform="matrix(-0.682853 0.730556 -0.682853 -0.730556 2002.93 -378.461)" stroke="#F2F2F2"></line> <line y1="-0.5" x2="965.018" y2="-0.5" transform="matrix(-0.682853 0.730556 -0.682853 -0.730556 2389.14 -378.461)" stroke="#F2F2F2"></line> <line y1="-0.5" x2="965.018" y2="-0.5" transform="matrix(-0.682853 0.730556 -0.682853 -0.730556 2022.24 -378.461)" stroke="#F2F2F2"></line> <line y1="-0.5" x2="965.018" y2="-0.5" transform="matrix(-0.682853 0.730556 -0.682853 -0.730556 2408.45 -378.461)" stroke="#F2F2F2"></line> <line y1="-0.5" x2="965.018" y2="-0.5" transform="matrix(-0.682853 0.730556 -0.682853 -0.730556 2041.55 -378.461)" stroke="#F2F2F2"></line> <line y1="-0.5" x2="965.018" y2="-0.5" transform="matrix(-0.682853 0.730556 -0.682853 -0.730556 2427.76 -378.461)" stroke="#F2F2F2"></line> <line y1="-0.5" x2="965.018" y2="-0.5" transform="matrix(-0.682853 0.730556 -0.682853 -0.730556 2060.86 -378.461)" stroke="#F2F2F2"></line> <line y1="-0.5" x2="965.018" y2="-0.5" transform="matrix(-0.682853 0.730556 -0.682853 -0.730556 2447.07 -378.461)" stroke="#F2F2F2"></line> <line y1="-0.5" x2="965.018" y2="-0.5" transform="matrix(-0.682853 0.730556 -0.682853 -0.730556 2080.17 -378.461)" stroke="#F2F2F2"></line> <line y1="-0.5" x2="965.018" y2="-0.5" transform="matrix(-0.682853 0.730556 -0.682853 -0.730556 2466.38 -378.461)" stroke="#F2F2F2"></line> <line y1="-0.5" x2="965.018" y2="-0.5" transform="matrix(-0.682853 0.730556 -0.682853 -0.730556 2099.48 -378.461)" stroke="#F2F2F2"></line> <line y1="-0.5" x2="965.018" y2="-0.5" transform="matrix(-0.682853 0.730556 -0.682853 -0.730556 2485.69 -378.461)" stroke="#F2F2F2"></line> <line y1="-0.5" x2="965.018" y2="-0.5" transform="matrix(-0.682853 0.730556 -0.682853 -0.730556 2118.79 -378.461)" stroke="#F2F2F2"></line> <line y1="-0.5" x2="965.018" y2="-0.5" transform="matrix(-0.682853 0.730556 -0.682853 -0.730556 2505 -378.461)" stroke="#F2F2F2"></line> <line y1="-0.5" x2="965.018" y2="-0.5" transform="matrix(-0.682853 0.730556 -0.682853 -0.730556 2138.1 -378.461)" stroke="#F2F2F2"></line> <line y1="-0.5" x2="965.018" y2="-0.5" transform="matrix(-0.682853 0.730556 -0.682853 -0.730556 2524.31 -378.461)" stroke="#F2F2F2"></line> <line y1="-0.5" x2="965.018" y2="-0.5" transform="matrix(-0.682853 0.730556 -0.682853 -0.730556 2157.41 -378.461)" stroke="#F2F2F2"></line> <line y1="-0.5" x2="965.018" y2="-0.5" transform="matrix(-0.682853 0.730556 -0.682853 -0.730556 2543.62 -378.461)" stroke="#F2F2F2"></line> <line y1="-0.5" x2="965.018" y2="-0.5" transform="matrix(-0.682853 0.730556 -0.682853 -0.730556 2176.72 -378.461)" stroke="#F2F2F2"></line> <line y1="-0.5" x2="965.018" y2="-0.5" transform="matrix(-0.682853 0.730556 -0.682853 -0.730556 2562.93 -378.461)" stroke="#F2F2F2"></line> <line y1="-0.5" x2="965.018" y2="-0.5" transform="matrix(-0.682853 0.730556 -0.682853 -0.730556 2196.03 -378.461)" stroke="#F2F2F2"></line> <line y1="-0.5" x2="965.018" y2="-0.5" transform="matrix(-0.682853 0.730556 -0.682853 -0.730556 2215.34 -378.461)" stroke="#F2F2F2"></line> <line y1="-0.5" x2="965.018" y2="-0.5" transform="matrix(-0.682853 0.730556 -0.682853 -0.730556 2253.97 -378.461)" stroke="#F2F2F2"></line> <line y1="-0.5" x2="965.018" y2="-0.5" transform="matrix(-0.682853 0.730556 -0.682853 -0.730556 2234.66 -378.461)" stroke="#F2F2F2"></line> <line y1="-0.5" x2="965.018" y2="-0.5" transform="matrix(-0.682853 0.730556 -0.682853 -0.730556 2273.28 -378.461)" stroke="#F2F2F2"></line> </g> </g> </g> <defs> <filter id="filter0_f" x="-428" y="241" width="1756" height="1756" filterUnits="userSpaceOnUse" color-interpolation-filters="sRGB"> <feFlood flood-opacity="0" result="BackgroundImageFix"></feFlood> <feBlend mode="normal" in="SourceGraphic" in2="BackgroundImageFix" result="shape"></feBlend> <feGaussianBlur stdDeviation="350" result="effect1_foregroundBlur"></feGaussianBlur> </filter> <filter id="filter1_f" x="616" y="-83" width="1628" height="1628" filterUnits="userSpaceOnUse" color-interpolation-filters="sRGB"> <feFlood flood-opacity="0" result="BackgroundImageFix"></feFlood> <feBlend mode="normal" in="SourceGraphic" in2="BackgroundImageFix" result="shape"></feBlend> <feGaussianBlur stdDeviation="250" result="effect1_foregroundBlur"></feGaussianBlur> </filter> <filter id="filter2_f" x="-632" y="-661" width="1356" height="1356" filterUnits="userSpaceOnUse" color-interpolation-filters="sRGB"> <feFlood flood-opacity="0" result="BackgroundImageFix"></feFlood> <feBlend mode="normal" in="SourceGraphic" in2="BackgroundImageFix" result="shape"></feBlend> <feGaussianBlur stdDeviation="250" result="effect1_foregroundBlur"></feGaussianBlur> </filter> <filter id="filter3_f" x="1060" y="-861" width="1756" height="1756" filterUnits="userSpaceOnUse" color-interpolation-filters="sRGB"> <feFlood flood-opacity="0" result="BackgroundImageFix"></feFlood> <feBlend mode="normal" in="SourceGraphic" in2="BackgroundImageFix" result="shape"></feBlend> <feGaussianBlur stdDeviation="350" result="effect1_foregroundBlur"></feGaussianBlur> </filter> <radialGradient id="paint0_radial" cx="0" cy="0" r="1" gradientUnits="userSpaceOnUse" gradientTransform="translate(-132 647.5) rotate(90) scale(352.5 700)"> <stop stop-color="#C4C4C4"></stop> <stop offset="1" stop-color="#C4C4C4" stop-opacity="0"></stop> </radialGradient> <radialGradient id="paint1_radial" cx="0" cy="0" r="1" gradientUnits="userSpaceOnUse" gradientTransform="translate(2365 0.5) rotate(90) scale(352.5 700)"> <stop stop-color="#C4C4C4"></stop> <stop offset="1" stop-color="#C4C4C4" stop-opacity="0"></stop> </radialGradient> <clipPath id="clip0"> <rect width="1920" height="900" fill="white"></rect> </clipPath> </defs> </svg> 