<?xml version="1.0" encoding="UTF-8"?> <svg xmlns="http://www.w3.org/2000/svg" width="40" height="40" viewBox="0 0 40 40" fill="none"> <path d="M39.658 19.1094L27.6587 5.77678C27.4027 5.49413 27.0454 5.33414 26.6667 5.33414H18.6672C18.1419 5.33414 17.6645 5.64345 17.4486 6.12343C17.2352 6.60607 17.3232 7.1687 17.6752 7.55802L28.8719 20L17.6752 32.4393C17.3232 32.8313 17.2326 33.394 17.4486 33.8739C17.6645 34.3566 18.1419 34.6659 18.6672 34.6659H26.6667C27.0454 34.6659 27.4027 34.5032 27.6587 34.2259L39.658 20.8933C40.114 20.3867 40.114 19.6134 39.658 19.1094Z" fill="#0084DF"></path> <path d="M22.3256 19.1094L10.3263 5.77678C10.0703 5.49413 9.71297 5.33414 9.33433 5.33414H1.33476C0.809456 5.33414 0.332148 5.64345 0.11616 6.12343C-0.097162 6.60607 -0.00916678 7.1687 0.342814 7.55802L11.5395 20L0.342814 32.4393C-0.00916678 32.8313 -0.0998285 33.394 0.11616 33.8739C0.332148 34.3566 0.809456 34.6659 1.33476 34.6659H9.33433C9.71297 34.6659 10.0703 34.5032 10.3263 34.2259L22.3256 20.8933C22.7816 20.3867 22.7816 19.6134 22.3256 19.1094Z" fill="#0084DF"></path> </svg> 