<?xml version="1.0" encoding="UTF-8"?> <svg xmlns="http://www.w3.org/2000/svg" width="50" height="50" viewBox="0 0 50 50" fill="none"> <g clip-path="url(#clip0)"> <path d="M49.6499 13.048L38.9794 0.520508C38.7008 0.193359 38.2928 0.00488281 37.863 0.00488281C37.4332 0.00488281 37.0252 0.193359 36.7466 0.520508L26.0762 13.048C25.7054 13.4834 25.6214 14.0947 25.8611 14.6139C26.101 15.1331 26.6207 15.4655 27.1926 15.4655H30.1175V21.5186H35.708C38.0774 21.5186 40.0049 23.4461 40.0049 25.8154V48.4817C40.0049 49.0143 39.9069 49.5241 39.7289 49.9951C41.8986 49.9921 43.7395 49.9895 43.7395 49.9895C44.5481 49.9876 45.2027 49.3315 45.2027 48.523V15.4656H48.5333C49.1052 15.4656 49.6249 15.1332 49.8648 14.614C50.1046 14.0947 50.0207 13.4835 49.6499 13.048V13.048Z" fill="#0084DF"></path> <path d="M15.5717 19.2864H21.8423V21.5185H24.772V17.8215C24.772 17.0125 24.1161 16.3567 23.3071 16.3567H14.1068C13.2979 16.3567 12.642 17.0125 12.642 17.8215V21.5185H15.5717V19.2864Z" fill="#0084DF"></path> <path d="M7.67178 33.9047V31.8043C7.67178 30.9953 8.32764 30.3395 9.13662 30.3395C9.94561 30.3395 10.6015 30.9953 10.6015 31.8043V33.9047H26.6012V31.8043C26.6012 30.9953 27.257 30.3395 28.066 30.3395C28.875 30.3395 29.5309 30.9953 29.5309 31.8043V33.9047H37.173V25.8154C37.173 25.0064 36.5171 24.3506 35.7081 24.3506H1.46484C0.655859 24.3506 0 25.0064 0 25.8154V33.9047H7.67178Z" fill="#0084DF"></path> <path d="M35.708 49.9466C36.517 49.9466 37.1729 49.2907 37.1729 48.4817V36.8345H29.5308V38.2625C29.5308 39.0715 28.8749 39.7273 28.0659 39.7273C27.2569 39.7273 26.6011 39.0715 26.6011 38.2625V36.8345H20.066V38.2625C20.066 39.0715 19.4102 39.7273 18.6012 39.7273C17.7922 39.7273 17.1363 39.0715 17.1363 38.2625V36.8345H10.6014V38.2625C10.6014 39.0715 9.94551 39.7273 9.13652 39.7273C8.32754 39.7273 7.67168 39.0715 7.67168 38.2625V36.8345H0V48.4818C0 49.2908 0.655859 49.9467 1.46484 49.9467H35.708V49.9466Z" fill="#0084DF"></path> </g> <defs> <clipPath id="clip0"> <rect width="50" height="50" fill="white"></rect> </clipPath> </defs> </svg> 