<?xml version="1.0" encoding="UTF-8"?> <svg xmlns="http://www.w3.org/2000/svg" width="40" height="40" viewBox="0 0 40 40" fill="none"> <g clip-path="url(#clip0)"> <path d="M6.52954 13.0669H1.30594C0.587814 13.0669 0 13.6517 0 14.3728V37.8791C0 38.5998 0.585235 39.1848 1.30594 39.1848H6.52954C7.25025 39.1848 7.83548 38.5998 7.83548 37.8791V14.3728C7.83548 13.6517 7.24759 13.0669 6.52954 13.0669Z" fill="#0084DF"></path> <path d="M36.7396 13.0667C36.5293 13.0311 26.6819 13.0667 26.6819 13.0667L28.0573 9.31422C29.0064 6.72249 28.3919 2.76522 25.7586 1.35834C24.9011 0.900217 23.7032 0.670138 22.7373 0.913264C22.1834 1.05264 21.6966 1.41936 21.4064 1.91069C21.0728 2.47577 21.1072 3.13538 20.9884 3.76194C20.6871 5.35116 19.9361 6.86218 18.7732 7.99633C16.7457 9.97375 10.4474 15.6785 10.4474 15.6785V36.573H32.2125C35.1494 36.5747 37.0741 33.295 35.6255 30.7332C37.3522 29.6274 37.9427 27.2981 36.9315 25.5096C38.6582 24.4038 39.2487 22.0745 38.2374 20.286C41.2166 18.378 40.2206 13.6555 36.7396 13.0667Z" fill="#0084DF"></path> </g> <defs> <clipPath id="clip0"> <rect width="40" height="40" fill="white"></rect> </clipPath> </defs> </svg> 