<?xml version="1.0" encoding="UTF-8"?> <svg xmlns="http://www.w3.org/2000/svg" width="50" height="50" viewBox="0 0 50 50" fill="none"> <g clip-path="url(#clip0)"> <path d="M16.6666 0C10.3479 0 5.20831 5.13958 5.20831 11.4583V17.1875C5.20831 19.1979 6.84373 20.8333 8.85415 20.8333H16.6666C12.6312 20.8333 9.37498 17.5771 9.37498 13.5417C14.2354 13.5417 16.6666 9.89583 16.6666 6.25C16.6666 9.89583 19.0979 13.5417 23.9583 13.5417C23.9583 17.5771 20.7021 20.8333 16.6666 20.8333H24.4791C26.4896 20.8333 28.125 19.1979 28.125 17.1875V11.4583C28.125 5.13958 22.9854 0 16.6666 0Z" fill="#0084DF"></path> <path d="M48.525 32.0707L40.7437 31.6312L37.9229 23.9437C37.4229 22.5832 35.4875 22.5832 34.9896 23.9437L32.1687 31.6312L24.3875 32.0707C22.9812 32.152 22.3937 33.9103 23.4604 34.8187L29.5687 40.0332L27.5375 48.0541C27.1854 49.4416 28.7396 50.5353 29.9312 49.7291L36.4562 45.2895L42.9812 49.7291C44.1625 50.5312 45.7291 49.4499 45.375 48.0541L43.3437 40.0332L49.4521 34.8187C50.5187 33.9082 49.9312 32.1499 48.525 32.0707V32.0707Z" fill="#0084DF"></path> <path d="M26.0646 41.1479C21.8646 37.5604 18.775 35.8833 20.0354 32.1333C21.3271 28.3167 25.0958 28.8979 29.9437 28.6229L30.575 26.9021C29.2083 25.7333 27.4583 25 25.5208 25H7.8125C3.50417 25 0 28.5042 0 32.8125V40.1042C0 40.9667 0.7 41.6667 1.5625 41.6667H25.9333L26.0646 41.1479Z" fill="#0084DF"></path> </g> <defs> <clipPath id="clip0"> <rect width="50" height="50" fill="white"></rect> </clipPath> </defs> </svg> 