<?xml version="1.0" encoding="UTF-8"?> <svg xmlns="http://www.w3.org/2000/svg" width="944" height="820" viewBox="0 0 944 820" fill="none"> <g opacity="0.25"> <mask id="mask0" mask-type="alpha" maskUnits="userSpaceOnUse" x="-954" y="305" width="1400" height="705"> <rect x="-954" y="305" width="1400" height="705" fill="url(#paint0_radial)"></rect> </mask> <g mask="url(#mask0)"> <line y1="-0.5" x2="965.018" y2="-0.5" transform="matrix(-0.682853 0.730556 -0.682853 -0.730556 59.7931 278.539)" stroke="#F2F2F2"></line> <line y1="-0.5" x2="965.018" y2="-0.5" transform="matrix(-0.682853 0.730556 -0.682853 -0.730556 446 278.539)" stroke="#F2F2F2"></line> <line y1="-0.5" x2="965.018" y2="-0.5" transform="matrix(-0.682853 0.730556 -0.682853 -0.730556 79.1034 278.539)" stroke="#F2F2F2"></line> <line y1="-0.5" x2="965.018" y2="-0.5" transform="matrix(-0.682853 0.730556 -0.682853 -0.730556 465.31 278.539)" stroke="#F2F2F2"></line> <line y1="-0.5" x2="965.018" y2="-0.5" transform="matrix(-0.682853 0.730556 -0.682853 -0.730556 98.4138 278.539)" stroke="#F2F2F2"></line> <line y1="-0.5" x2="965.018" y2="-0.5" transform="matrix(-0.682853 0.730556 -0.682853 -0.730556 484.621 278.539)" stroke="#F2F2F2"></line> <line y1="-0.5" x2="965.018" y2="-0.5" transform="matrix(-0.682853 0.730556 -0.682853 -0.730556 117.724 278.539)" stroke="#F2F2F2"></line> <line y1="-0.5" x2="965.018" y2="-0.5" transform="matrix(-0.682853 0.730556 -0.682853 -0.730556 503.931 278.539)" stroke="#F2F2F2"></line> <line y1="-0.5" x2="965.018" y2="-0.5" transform="matrix(-0.682853 0.730556 -0.682853 -0.730556 137.034 278.539)" stroke="#F2F2F2"></line> <line y1="-0.5" x2="965.018" y2="-0.5" transform="matrix(-0.682853 0.730556 -0.682853 -0.730556 523.241 278.539)" stroke="#F2F2F2"></line> <line y1="-0.5" x2="965.018" y2="-0.5" transform="matrix(-0.682853 0.730556 -0.682853 -0.730556 156.345 278.539)" stroke="#F2F2F2"></line> <line y1="-0.5" x2="965.018" y2="-0.5" transform="matrix(-0.682853 0.730556 -0.682853 -0.730556 542.552 278.539)" stroke="#F2F2F2"></line> <line y1="-0.5" x2="965.018" y2="-0.5" transform="matrix(-0.682853 0.730556 -0.682853 -0.730556 175.655 278.539)" stroke="#F2F2F2"></line> <line y1="-0.5" x2="965.018" y2="-0.5" transform="matrix(-0.682853 0.730556 -0.682853 -0.730556 561.862 278.539)" stroke="#F2F2F2"></line> <line y1="-0.5" x2="965.018" y2="-0.5" transform="matrix(-0.682853 0.730556 -0.682853 -0.730556 194.966 278.539)" stroke="#F2F2F2"></line> <line y1="-0.5" x2="965.018" y2="-0.5" transform="matrix(-0.682853 0.730556 -0.682853 -0.730556 581.172 278.539)" stroke="#F2F2F2"></line> <line y1="-0.5" x2="965.018" y2="-0.5" transform="matrix(-0.682853 0.730556 -0.682853 -0.730556 214.276 278.539)" stroke="#F2F2F2"></line> <line y1="-0.5" x2="965.018" y2="-0.5" transform="matrix(-0.682853 0.730556 -0.682853 -0.730556 600.483 278.539)" stroke="#F2F2F2"></line> <line y1="-0.5" x2="965.018" y2="-0.5" transform="matrix(-0.682853 0.730556 -0.682853 -0.730556 233.586 278.539)" stroke="#F2F2F2"></line> <line y1="-0.5" x2="965.018" y2="-0.5" transform="matrix(-0.682853 0.730556 -0.682853 -0.730556 619.793 278.539)" stroke="#F2F2F2"></line> <line y1="-0.5" x2="965.018" y2="-0.5" transform="matrix(-0.682853 0.730556 -0.682853 -0.730556 252.897 278.539)" stroke="#F2F2F2"></line> <line y1="-0.5" x2="965.018" y2="-0.5" transform="matrix(-0.682853 0.730556 -0.682853 -0.730556 639.103 278.539)" stroke="#F2F2F2"></line> <line y1="-0.5" x2="965.018" y2="-0.5" transform="matrix(-0.682853 0.730556 -0.682853 -0.730556 272.207 278.539)" stroke="#F2F2F2"></line> <line y1="-0.5" x2="965.018" y2="-0.5" transform="matrix(-0.682853 0.730556 -0.682853 -0.730556 658.414 278.539)" stroke="#F2F2F2"></line> <line y1="-0.5" x2="965.018" y2="-0.5" transform="matrix(-0.682853 0.730556 -0.682853 -0.730556 291.517 278.539)" stroke="#F2F2F2"></line> <line y1="-0.5" x2="965.018" y2="-0.5" transform="matrix(-0.682853 0.730556 -0.682853 -0.730556 677.724 278.539)" stroke="#F2F2F2"></line> <line y1="-0.5" x2="965.018" y2="-0.5" transform="matrix(-0.682853 0.730556 -0.682853 -0.730556 310.828 278.539)" stroke="#F2F2F2"></line> <line y1="-0.5" x2="965.018" y2="-0.5" transform="matrix(-0.682853 0.730556 -0.682853 -0.730556 697.034 278.539)" stroke="#F2F2F2"></line> <line y1="-0.5" x2="965.018" y2="-0.5" transform="matrix(-0.682853 0.730556 -0.682853 -0.730556 330.138 278.539)" stroke="#F2F2F2"></line> <line y1="-0.5" x2="965.018" y2="-0.5" transform="matrix(-0.682853 0.730556 -0.682853 -0.730556 716.345 278.539)" stroke="#F2F2F2"></line> <line y1="-0.5" x2="965.018" y2="-0.5" transform="matrix(-0.682853 0.730556 -0.682853 -0.730556 349.448 278.539)" stroke="#F2F2F2"></line> <line y1="-0.5" x2="965.018" y2="-0.5" transform="matrix(-0.682853 0.730556 -0.682853 -0.730556 735.655 278.539)" stroke="#F2F2F2"></line> <line y1="-0.5" x2="965.018" y2="-0.5" transform="matrix(-0.682853 0.730556 -0.682853 -0.730556 368.759 278.539)" stroke="#F2F2F2"></line> <line y1="-0.5" x2="965.018" y2="-0.5" transform="matrix(-0.682853 0.730556 -0.682853 -0.730556 754.966 278.539)" stroke="#F2F2F2"></line> <line y1="-0.5" x2="965.018" y2="-0.5" transform="matrix(-0.682853 0.730556 -0.682853 -0.730556 407.379 278.539)" stroke="#F2F2F2"></line> <line y1="-0.5" x2="965.018" y2="-0.5" transform="matrix(-0.682853 0.730556 -0.682853 -0.730556 21.1724 278.539)" stroke="#F2F2F2"></line> <line y1="-0.5" x2="965.018" y2="-0.5" transform="matrix(-0.682853 0.730556 -0.682853 -0.730556 793.586 278.539)" stroke="#F2F2F2"></line> <line y1="-0.5" x2="965.018" y2="-0.5" transform="matrix(-0.682853 0.730556 -0.682853 -0.730556 388.069 278.539)" stroke="#F2F2F2"></line> <line y1="-0.5" x2="965.018" y2="-0.5" transform="matrix(-0.682853 0.730556 -0.682853 -0.730556 1.86206 278.539)" stroke="#F2F2F2"></line> <line y1="-0.5" x2="965.018" y2="-0.5" transform="matrix(-0.682853 0.730556 -0.682853 -0.730556 774.276 278.539)" stroke="#F2F2F2"></line> <line y1="-0.5" x2="965.018" y2="-0.5" transform="matrix(-0.682853 0.730556 -0.682853 -0.730556 426.69 278.539)" stroke="#F2F2F2"></line> <line y1="-0.5" x2="965.018" y2="-0.5" transform="matrix(-0.682853 0.730556 -0.682853 -0.730556 40.4828 278.539)" stroke="#F2F2F2"></line> <line y1="-0.5" x2="965.018" y2="-0.5" transform="matrix(-0.682853 0.730556 -0.682853 -0.730556 812.896 278.539)" stroke="#F2F2F2"></line> </g> </g> <g filter="url(#filter0_f)"> <circle cx="-34" cy="858" r="178" fill="#1AC67A"></circle> </g> <defs> <filter id="filter0_f" x="-1012" y="-120" width="1956" height="1956" filterUnits="userSpaceOnUse" color-interpolation-filters="sRGB"> <feFlood flood-opacity="0" result="BackgroundImageFix"></feFlood> <feBlend mode="normal" in="SourceGraphic" in2="BackgroundImageFix" result="shape"></feBlend> <feGaussianBlur stdDeviation="400" result="effect1_foregroundBlur"></feGaussianBlur> </filter> <radialGradient id="paint0_radial" cx="0" cy="0" r="1" gradientUnits="userSpaceOnUse" gradientTransform="translate(-254 657.5) rotate(90) scale(352.5 700)"> <stop stop-color="#C4C4C4"></stop> <stop offset="1" stop-color="#C4C4C4" stop-opacity="0"></stop> </radialGradient> </defs> </svg> 