<?xml version="1.0" encoding="UTF-8"?> <svg xmlns="http://www.w3.org/2000/svg" width="110" height="110" viewBox="0 0 110 110" fill="none"> <g filter="url(#filter0_d)"> <rect x="20" y="10" width="70" height="70" rx="10" fill="url(#paint0_linear)"></rect> <g clip-path="url(#clip0)"> <path d="M72.5201 63.4315V69.9999H37.3131V63.429C37.3131 60.9921 39.4154 57.9874 41.9856 56.7709L47.7041 54.052L51.6728 62.3214L53.7033 56.8132C54.1033 56.8914 54.5019 56.9913 54.9173 56.9913C55.3339 56.9913 55.7313 56.8914 56.1325 56.8132L58.0592 62.0522L61.9471 53.961L67.8477 56.767C70.4178 57.9874 72.5201 60.9921 72.5201 63.4315ZM54.9185 53.9597C59.9423 53.9597 64.0148 47.7079 64.0148 41.9779C64.0148 36.2427 59.9435 33.2008 54.9185 33.2008C49.8948 33.2008 45.8248 36.2427 45.8248 41.9779C45.8223 47.7079 49.8948 53.9597 54.9185 53.9597ZM68.5078 39.4628L66.5465 38.7873C66.7529 38.1886 66.9337 37.7502 67.0875 37.4682C67.2413 37.1849 67.4798 36.9606 67.7989 36.7952C68.1194 36.6247 68.5758 36.5209 69.1744 36.4773C69.4526 36.4696 69.691 36.4619 69.8948 36.4555C70.0935 36.4465 70.273 36.4286 70.4281 36.3991C70.5832 36.3696 70.7204 36.3145 70.8306 36.2376C71.1254 36.0492 71.3613 35.7018 71.5331 35.1993C71.7548 34.5583 71.7971 34.1007 71.6626 33.8264C71.592 33.6341 71.4498 33.4751 71.2306 33.3521C71.0101 33.229 70.6755 33.0906 70.2256 32.9367C69.7166 32.7778 69.3346 32.6842 69.0795 32.6496C68.8309 32.615 68.6206 32.6483 68.4527 32.7547C68.2732 32.888 68.0938 33.1636 67.9066 33.5867C67.9092 33.6443 67.8925 33.7251 67.8566 33.8276L67.6964 34.2891L65.7364 33.6161C66.0479 32.7111 66.3619 32.0484 66.6799 31.6279C67.0003 31.2088 67.358 30.9537 67.7566 30.8588C68.2143 30.7486 68.6873 30.7421 69.1706 30.8396C69.6525 30.937 70.232 31.1024 70.9075 31.3344C72.4176 31.8548 73.3239 32.4829 73.6277 33.2252C73.8994 33.8776 73.8405 34.7647 73.4521 35.894C73.1816 36.676 72.8893 37.2157 72.5701 37.5105C72.2509 37.8028 71.8561 37.9951 71.3857 38.0848C71.2357 38.1156 70.9857 38.1425 70.6306 38.1591C70.2807 38.1758 70.0166 38.1899 69.8423 38.2091C69.6667 38.2258 69.491 38.2758 69.3077 38.3501C69.0808 38.4181 68.9308 38.5232 68.8539 38.6629C68.7681 38.7744 68.6514 39.0398 68.5078 39.4628ZM66.0069 40.3486L67.9682 41.0229L67.24 43.1393L65.28 42.465L66.0069 40.3486ZM42.0381 39.0513L40.3781 39.7794C40.1551 39.2718 40.0102 38.8834 39.941 38.6104C39.8743 38.3373 39.8923 38.0502 39.9974 37.7541C40.1025 37.458 40.3358 37.1182 40.6922 36.735C40.8665 36.5632 41.0165 36.4171 41.1421 36.294C41.2652 36.1697 41.3703 36.053 41.4523 35.9415C41.5331 35.8287 41.5869 35.7133 41.6151 35.5979C41.6933 35.3005 41.6382 34.9365 41.4523 34.5147C41.2126 33.9699 40.969 33.6495 40.7178 33.5546C40.5601 33.4713 40.373 33.4559 40.1589 33.5072C39.9448 33.5572 39.6487 33.6674 39.2667 33.8353C38.845 34.0379 38.5437 34.2045 38.3617 34.3314C38.1797 34.4596 38.0656 34.6045 38.0194 34.7724C37.9848 34.9621 38.0322 35.2505 38.1643 35.6313C38.2015 35.6659 38.2386 35.7287 38.2771 35.8171L38.4489 36.2107L36.7888 36.9401C36.453 36.1735 36.262 35.562 36.2184 35.1006C36.1735 34.6416 36.2517 34.2648 36.4517 33.9661C36.6824 33.6238 36.9811 33.3418 37.3503 33.1175C37.7182 32.8944 38.1886 32.6586 38.7616 32.4035C40.0397 31.842 40.996 31.7087 41.6318 32.0035C42.192 32.2599 42.6817 32.8675 43.1008 33.8225C43.3931 34.4878 43.5238 35.007 43.4918 35.3851C43.4598 35.762 43.3213 36.1184 43.0726 36.4568C42.9931 36.5683 42.847 36.735 42.6304 36.9529C42.4137 37.1708 42.2561 37.3387 42.1522 37.4541C42.0497 37.5695 41.9651 37.7066 41.8933 37.8643C41.7882 38.0399 41.7536 38.195 41.7869 38.3309C41.7984 38.4553 41.8805 38.6937 42.0381 39.0513ZM40.9562 41.1036L42.6176 40.373L43.4059 42.1663L41.7446 42.8931L40.9562 41.1036ZM53.188 28.6719L51.3203 27.7579C51.5985 27.1875 51.8318 26.7709 52.0202 26.5081C52.2074 26.2478 52.474 26.053 52.8111 25.9248C53.1495 25.7941 53.6187 25.7466 54.2186 25.7787C54.4981 25.8056 54.7378 25.8274 54.9378 25.8479C55.1377 25.8646 55.3185 25.8684 55.4774 25.8556C55.6364 25.8453 55.7761 25.8056 55.8992 25.7479C56.2184 25.5928 56.4953 25.2787 56.7273 24.8019C57.0247 24.1904 57.1272 23.7392 57.0221 23.4469C56.9785 23.2482 56.8529 23.0713 56.6504 22.9214C56.4478 22.7739 56.1312 22.5932 55.7018 22.383C55.2147 22.1625 54.8455 22.0253 54.5994 21.9561C54.3545 21.8933 54.1417 21.8984 53.961 21.983C53.7674 22.0945 53.5533 22.3483 53.3162 22.7496C53.3136 22.8073 53.2867 22.8829 53.238 22.9842L53.0214 23.4251L51.1524 22.5124C51.5741 21.6497 51.9702 21.0293 52.3368 20.6524C52.7086 20.2717 53.0957 20.0615 53.5033 20.0192C53.9738 19.9666 54.4442 20.0192 54.9121 20.173C55.38 20.3307 55.9364 20.5678 56.5824 20.8806C58.0207 21.5869 58.8462 22.3253 59.0603 23.0983C59.2475 23.7764 59.0834 24.6557 58.5553 25.7351C58.1899 26.4786 57.8323 26.9798 57.4772 27.2323C57.1247 27.4836 56.7081 27.6284 56.2273 27.6605C56.071 27.6733 55.8184 27.6682 55.4646 27.6387C55.1121 27.6105 54.8493 27.5951 54.6737 27.59C54.4968 27.5836 54.3135 27.6156 54.1225 27.6707C53.8918 27.7041 53.7277 27.7925 53.6328 27.9233C53.5341 28.0169 53.388 28.2694 53.188 28.6719ZM50.5922 29.2449L52.4625 30.1576L51.4754 32.1753L49.6051 31.26L50.5922 29.2449Z" fill="#212129"></path> </g> </g> <defs> <filter id="filter0_d" x="0" y="0" width="110" height="110" filterUnits="userSpaceOnUse" color-interpolation-filters="sRGB"> <feFlood flood-opacity="0" result="BackgroundImageFix"></feFlood> <feColorMatrix in="SourceAlpha" type="matrix" values="0 0 0 0 0 0 0 0 0 0 0 0 0 0 0 0 0 0 127 0"></feColorMatrix> <feOffset dy="10"></feOffset> <feGaussianBlur stdDeviation="10"></feGaussianBlur> <feColorMatrix type="matrix" values="0 0 0 0 0 0 0 0 0 0.517647 0 0 0 0 0.87451 0 0 0 0.3 0"></feColorMatrix> <feBlend mode="normal" in2="BackgroundImageFix" result="effect1_dropShadow"></feBlend> <feBlend mode="normal" in="SourceGraphic" in2="effect1_dropShadow" result="shape"></feBlend> </filter> <linearGradient id="paint0_linear" x1="85" y1="1.5" x2="27" y2="85" gradientUnits="userSpaceOnUse"> <stop stop-color="#1696EE"></stop> <stop offset="1" stop-color="#086AAE"></stop> </linearGradient> <clipPath id="clip0"> <rect width="50" height="50" fill="white" transform="translate(30 20)"></rect> </clipPath> </defs> </svg> 