<?xml version="1.0" encoding="UTF-8"?> <svg xmlns="http://www.w3.org/2000/svg" width="40" height="40" viewBox="0 0 40 40" fill="none"> <g clip-path="url(#clip0)"> <path d="M12.2468 24.3688C13.7072 24.3688 14.9931 23.4892 15.5226 22.1281L15.5698 22.0068L15.6888 22.0592C16.1372 22.2566 16.6136 22.3569 17.1041 22.3569C18.0432 22.357 18.926 21.9912 19.59 21.3272L21.3305 19.5867C22.3633 18.5539 22.6505 17.0227 22.0624 15.6858L22.0101 15.567L22.1312 15.5199C23.4927 14.9904 24.3723 13.7045 24.3723 12.2438V9.78232C24.3723 8.32172 23.4927 7.03586 22.1315 6.50642L22.0103 6.45924L22.0627 6.3402C22.6473 5.01192 22.3671 3.49181 21.3502 2.45926C21.9305 2.38286 22.5191 2.34326 23.1135 2.34326C26.6857 2.34326 30.053 3.7434 32.5953 6.28568C35.1376 8.82796 36.5377 12.1953 36.5377 15.7675V18.5129L39.8588 24.7463C40.0523 25.1093 40.041 25.5474 39.8293 25.9001C39.6176 26.2529 39.2362 26.4688 38.8247 26.4688H36.5377V29.1234C36.5377 32.9753 33.4041 36.1088 29.5523 36.1088H25.4994V38.8283C25.4994 39.4753 24.9748 39.9999 24.3277 39.9999H10.861C10.2139 39.9999 9.68934 39.4753 9.68934 38.8283V24.367C9.72129 24.3678 9.75316 24.3688 9.78526 24.3688H12.2468Z" fill="#0084DF"></path> <path d="M11.0163 9.88791C11.6623 9.88791 12.188 10.4135 12.188 11.0595C12.188 11.7055 11.6623 12.2312 11.0163 12.2312C10.3702 12.2312 9.84462 11.7055 9.84462 11.0595C9.84462 10.4134 10.3702 9.88791 11.0163 9.88791Z" fill="#0084DF"></path> <path d="M0.750671 8.68961L3.15313 7.7554L2.11511 5.39591C1.92054 4.95364 2.01747 4.43733 2.35913 4.09567L4.09968 2.35505C4.44133 2.01331 4.95773 1.91637 5.39999 2.1111L7.75949 3.14928L8.69385 0.746975C8.86905 0.296665 9.30264 0 9.78584 0H12.2473C12.7306 0 13.1642 0.296665 13.3393 0.746975L14.2735 3.14943L16.633 2.11142C17.0755 1.91692 17.5917 2.01378 17.9334 2.35544L19.6739 4.09598C20.0156 4.43764 20.1125 4.95403 19.9178 5.3963L18.8797 7.75579L21.282 8.69024C21.7324 8.86536 22.029 9.29903 22.029 9.78215V12.2437C22.029 12.7269 21.7324 13.1605 21.282 13.3357L18.8795 14.2699L19.9175 16.6294C20.1121 17.0716 20.0152 17.5879 19.6735 17.9296L17.933 19.6701C17.5912 20.0119 17.0748 20.1088 16.6327 19.9141L14.2731 18.8759L13.3387 21.2783C13.1635 21.7286 12.7299 22.0253 12.2467 22.0253H9.78521C9.30194 22.0253 8.86835 21.7286 8.69322 21.2783L7.75894 18.8757L5.39944 19.9138C4.95726 20.1084 4.44079 20.0115 4.09913 19.6698L2.35858 17.9293C2.01685 17.5876 1.91999 17.0712 2.11465 16.629L3.15289 14.2695L0.750515 13.335C0.300205 13.1599 0.00354004 12.7262 0.00354004 12.2431V9.7816C0.00361824 9.29841 0.300283 8.86474 0.750671 8.68961ZM11.0163 14.5745C12.9545 14.5745 14.5313 12.9977 14.5313 11.0595C14.5313 9.12133 12.9545 7.54458 11.0163 7.54458C9.07815 7.54458 7.50133 9.12141 7.50133 11.0595C7.50133 12.9977 9.07815 14.5745 11.0163 14.5745Z" fill="#0084DF"></path> </g> <defs> <clipPath id="clip0"> <rect width="40" height="40" fill="white" transform="matrix(-1 0 0 1 40 0)"></rect> </clipPath> </defs> </svg> 