<?xml version="1.0" encoding="UTF-8"?> <svg xmlns="http://www.w3.org/2000/svg" width="1010" height="820" viewBox="0 0 1010 820" fill="none"> <g opacity="0.25"> <mask id="mask0" mask-type="alpha" maskUnits="userSpaceOnUse" x="329" y="-207" width="1400" height="705"> <rect x="329" y="-207" width="1400" height="705" fill="url(#paint0_radial)"></rect> </mask> <g mask="url(#mask0)"> <line y1="-0.5" x2="965.018" y2="-0.5" transform="matrix(-0.682853 0.730556 -0.682853 -0.730556 570.379 -233.461)" stroke="#F2F2F2"></line> <line y1="-0.5" x2="965.018" y2="-0.5" transform="matrix(-0.682853 0.730556 -0.682853 -0.730556 1342.79 -233.461)" stroke="#F2F2F2"></line> <line y1="-0.5" x2="965.018" y2="-0.5" transform="matrix(-0.682853 0.730556 -0.682853 -0.730556 956.586 -233.461)" stroke="#F2F2F2"></line> <line y1="-0.5" x2="965.018" y2="-0.5" transform="matrix(-0.682853 0.730556 -0.682853 -0.730556 589.69 -233.461)" stroke="#F2F2F2"></line> <line y1="-0.5" x2="965.018" y2="-0.5" transform="matrix(-0.682853 0.730556 -0.682853 -0.730556 1362.1 -233.461)" stroke="#F2F2F2"></line> <line y1="-0.5" x2="965.018" y2="-0.5" transform="matrix(-0.682853 0.730556 -0.682853 -0.730556 975.897 -233.461)" stroke="#F2F2F2"></line> <line y1="-0.5" x2="965.018" y2="-0.5" transform="matrix(-0.682853 0.730556 -0.682853 -0.730556 609 -233.461)" stroke="#F2F2F2"></line> <line y1="-0.5" x2="965.018" y2="-0.5" transform="matrix(-0.682853 0.730556 -0.682853 -0.730556 1381.41 -233.461)" stroke="#F2F2F2"></line> <line y1="-0.5" x2="965.018" y2="-0.5" transform="matrix(-0.682853 0.730556 -0.682853 -0.730556 995.207 -233.461)" stroke="#F2F2F2"></line> <line y1="-0.5" x2="965.018" y2="-0.5" transform="matrix(-0.682853 0.730556 -0.682853 -0.730556 628.31 -233.461)" stroke="#F2F2F2"></line> <line y1="-0.5" x2="965.018" y2="-0.5" transform="matrix(-0.682853 0.730556 -0.682853 -0.730556 1400.72 -233.461)" stroke="#F2F2F2"></line> <line y1="-0.5" x2="965.018" y2="-0.5" transform="matrix(-0.682853 0.730556 -0.682853 -0.730556 1014.52 -233.461)" stroke="#F2F2F2"></line> <line y1="-0.5" x2="965.018" y2="-0.5" transform="matrix(-0.682853 0.730556 -0.682853 -0.730556 647.621 -233.461)" stroke="#F2F2F2"></line> <line y1="-0.5" x2="965.018" y2="-0.5" transform="matrix(-0.682853 0.730556 -0.682853 -0.730556 1420.03 -233.461)" stroke="#F2F2F2"></line> <line y1="-0.5" x2="965.018" y2="-0.5" transform="matrix(-0.682853 0.730556 -0.682853 -0.730556 1033.83 -233.461)" stroke="#F2F2F2"></line> <line y1="-0.5" x2="965.018" y2="-0.5" transform="matrix(-0.682853 0.730556 -0.682853 -0.730556 666.931 -233.461)" stroke="#F2F2F2"></line> <line y1="-0.5" x2="965.018" y2="-0.5" transform="matrix(-0.682853 0.730556 -0.682853 -0.730556 1439.34 -233.461)" stroke="#F2F2F2"></line> <line y1="-0.5" x2="965.018" y2="-0.5" transform="matrix(-0.682853 0.730556 -0.682853 -0.730556 1053.14 -233.461)" stroke="#F2F2F2"></line> <line y1="-0.5" x2="965.018" y2="-0.5" transform="matrix(-0.682853 0.730556 -0.682853 -0.730556 686.241 -233.461)" stroke="#F2F2F2"></line> <line y1="-0.5" x2="965.018" y2="-0.5" transform="matrix(-0.682853 0.730556 -0.682853 -0.730556 1458.66 -233.461)" stroke="#F2F2F2"></line> <line y1="-0.5" x2="965.018" y2="-0.5" transform="matrix(-0.682853 0.730556 -0.682853 -0.730556 1072.45 -233.461)" stroke="#F2F2F2"></line> <line y1="-0.5" x2="965.018" y2="-0.5" transform="matrix(-0.682853 0.730556 -0.682853 -0.730556 705.552 -233.461)" stroke="#F2F2F2"></line> <line y1="-0.5" x2="965.018" y2="-0.5" transform="matrix(-0.682853 0.730556 -0.682853 -0.730556 1477.97 -233.461)" stroke="#F2F2F2"></line> <line y1="-0.5" x2="965.018" y2="-0.5" transform="matrix(-0.682853 0.730556 -0.682853 -0.730556 1091.76 -233.461)" stroke="#F2F2F2"></line> <line y1="-0.5" x2="965.018" y2="-0.5" transform="matrix(-0.682853 0.730556 -0.682853 -0.730556 724.862 -233.461)" stroke="#F2F2F2"></line> <line y1="-0.5" x2="965.018" y2="-0.5" transform="matrix(-0.682853 0.730556 -0.682853 -0.730556 1497.28 -233.461)" stroke="#F2F2F2"></line> <line y1="-0.5" x2="965.018" y2="-0.5" transform="matrix(-0.682853 0.730556 -0.682853 -0.730556 1111.07 -233.461)" stroke="#F2F2F2"></line> <line y1="-0.5" x2="965.018" y2="-0.5" transform="matrix(-0.682853 0.730556 -0.682853 -0.730556 744.172 -233.461)" stroke="#F2F2F2"></line> <line y1="-0.5" x2="965.018" y2="-0.5" transform="matrix(-0.682853 0.730556 -0.682853 -0.730556 1516.59 -233.461)" stroke="#F2F2F2"></line> <line y1="-0.5" x2="965.018" y2="-0.5" transform="matrix(-0.682853 0.730556 -0.682853 -0.730556 1130.38 -233.461)" stroke="#F2F2F2"></line> <line y1="-0.5" x2="965.018" y2="-0.5" transform="matrix(-0.682853 0.730556 -0.682853 -0.730556 763.483 -233.461)" stroke="#F2F2F2"></line> <line y1="-0.5" x2="965.018" y2="-0.5" transform="matrix(-0.682853 0.730556 -0.682853 -0.730556 1535.9 -233.461)" stroke="#F2F2F2"></line> <line y1="-0.5" x2="965.018" y2="-0.5" transform="matrix(-0.682853 0.730556 -0.682853 -0.730556 1149.69 -233.461)" stroke="#F2F2F2"></line> <line y1="-0.5" x2="965.018" y2="-0.5" transform="matrix(-0.682853 0.730556 -0.682853 -0.730556 782.793 -233.461)" stroke="#F2F2F2"></line> <line y1="-0.5" x2="965.018" y2="-0.5" transform="matrix(-0.682853 0.730556 -0.682853 -0.730556 1555.21 -233.461)" stroke="#F2F2F2"></line> <line y1="-0.5" x2="965.018" y2="-0.5" transform="matrix(-0.682853 0.730556 -0.682853 -0.730556 1169 -233.461)" stroke="#F2F2F2"></line> <line y1="-0.5" x2="965.018" y2="-0.5" transform="matrix(-0.682853 0.730556 -0.682853 -0.730556 802.104 -233.461)" stroke="#F2F2F2"></line> <line y1="-0.5" x2="965.018" y2="-0.5" transform="matrix(-0.682853 0.730556 -0.682853 -0.730556 1574.52 -233.461)" stroke="#F2F2F2"></line> <line y1="-0.5" x2="965.018" y2="-0.5" transform="matrix(-0.682853 0.730556 -0.682853 -0.730556 1188.31 -233.461)" stroke="#F2F2F2"></line> <line y1="-0.5" x2="965.018" y2="-0.5" transform="matrix(-0.682853 0.730556 -0.682853 -0.730556 821.414 -233.461)" stroke="#F2F2F2"></line> <line y1="-0.5" x2="965.018" y2="-0.5" transform="matrix(-0.682853 0.730556 -0.682853 -0.730556 1593.83 -233.461)" stroke="#F2F2F2"></line> <line y1="-0.5" x2="965.018" y2="-0.5" transform="matrix(-0.682853 0.730556 -0.682853 -0.730556 1207.62 -233.461)" stroke="#F2F2F2"></line> <line y1="-0.5" x2="965.018" y2="-0.5" transform="matrix(-0.682853 0.730556 -0.682853 -0.730556 840.724 -233.461)" stroke="#F2F2F2"></line> <line y1="-0.5" x2="965.018" y2="-0.5" transform="matrix(-0.682853 0.730556 -0.682853 -0.730556 1613.14 -233.461)" stroke="#F2F2F2"></line> <line y1="-0.5" x2="965.018" y2="-0.5" transform="matrix(-0.682853 0.730556 -0.682853 -0.730556 1226.93 -233.461)" stroke="#F2F2F2"></line> <line y1="-0.5" x2="965.018" y2="-0.5" transform="matrix(-0.682853 0.730556 -0.682853 -0.730556 860.034 -233.461)" stroke="#F2F2F2"></line> <line y1="-0.5" x2="965.018" y2="-0.5" transform="matrix(-0.682853 0.730556 -0.682853 -0.730556 1632.45 -233.461)" stroke="#F2F2F2"></line> <line y1="-0.5" x2="965.018" y2="-0.5" transform="matrix(-0.682853 0.730556 -0.682853 -0.730556 1246.24 -233.461)" stroke="#F2F2F2"></line> <line y1="-0.5" x2="965.018" y2="-0.5" transform="matrix(-0.682853 0.730556 -0.682853 -0.730556 879.345 -233.461)" stroke="#F2F2F2"></line> <line y1="-0.5" x2="965.018" y2="-0.5" transform="matrix(-0.682853 0.730556 -0.682853 -0.730556 1651.76 -233.461)" stroke="#F2F2F2"></line> <line y1="-0.5" x2="965.018" y2="-0.5" transform="matrix(-0.682853 0.730556 -0.682853 -0.730556 1265.55 -233.461)" stroke="#F2F2F2"></line> <line y1="-0.5" x2="965.018" y2="-0.5" transform="matrix(-0.682853 0.730556 -0.682853 -0.730556 917.966 -233.461)" stroke="#F2F2F2"></line> <line y1="-0.5" x2="965.018" y2="-0.5" transform="matrix(-0.682853 0.730556 -0.682853 -0.730556 1304.17 -233.461)" stroke="#F2F2F2"></line> <line y1="-0.5" x2="965.018" y2="-0.5" transform="matrix(-0.682853 0.730556 -0.682853 -0.730556 898.655 -233.461)" stroke="#F2F2F2"></line> <line y1="-0.5" x2="965.018" y2="-0.5" transform="matrix(-0.682853 0.730556 -0.682853 -0.730556 1284.86 -233.461)" stroke="#F2F2F2"></line> <line y1="-0.5" x2="965.018" y2="-0.5" transform="matrix(-0.682853 0.730556 -0.682853 -0.730556 937.276 -233.461)" stroke="#F2F2F2"></line> <line y1="-0.5" x2="965.018" y2="-0.5" transform="matrix(-0.682853 0.730556 -0.682853 -0.730556 1323.48 -233.461)" stroke="#F2F2F2"></line> </g> </g> <g filter="url(#filter0_f)"> <circle cx="978" r="178" fill="#1AC67A"></circle> </g> <defs> <filter id="filter0_f" x="0" y="-978" width="1956" height="1956" filterUnits="userSpaceOnUse" color-interpolation-filters="sRGB"> <feFlood flood-opacity="0" result="BackgroundImageFix"></feFlood> <feBlend mode="normal" in="SourceGraphic" in2="BackgroundImageFix" result="shape"></feBlend> <feGaussianBlur stdDeviation="400" result="effect1_foregroundBlur"></feGaussianBlur> </filter> <radialGradient id="paint0_radial" cx="0" cy="0" r="1" gradientUnits="userSpaceOnUse" gradientTransform="translate(1029 145.5) rotate(90) scale(352.5 700)"> <stop stop-color="#C4C4C4"></stop> <stop offset="1" stop-color="#C4C4C4" stop-opacity="0"></stop> </radialGradient> </defs> </svg> 