<?xml version="1.0" encoding="UTF-8"?> <svg xmlns="http://www.w3.org/2000/svg" width="40" height="40" viewBox="0 0 40 40" fill="none"> <g clip-path="url(#clip0)"> <path d="M0.545344 20.0519C0.115359 20.2102 -0.106274 20.6869 0.050361 21.1185L0.573702 22.5584L4.55848 18.5736L0.545344 20.0519Z" fill="#0084DF"></path> <path d="M4.31686 32.8514L6.71678 39.4512C6.79177 39.6596 6.94841 39.8296 7.1484 39.9212C7.26004 39.9728 7.38003 39.9996 7.50003 39.9996C7.59839 39.9996 7.69502 39.9829 7.78838 39.9479L10.4366 38.9713L4.31686 32.8514Z" fill="#0084DF"></path> <path d="M39.9489 27.2166L37.2024 19.6653L30.611 26.2567L33.8775 25.0533C34.3058 24.89 34.7891 25.1133 34.9475 25.5467C35.1075 25.9783 34.8858 26.4583 34.4541 26.6166L30.3043 28.1466C30.2093 28.1816 30.1126 28.1982 30.0159 28.1982C29.6776 28.1982 29.3576 27.9899 29.2343 27.6533C29.2327 27.6483 29.2343 27.6433 29.2327 27.6383L22.2479 34.623L39.4539 28.2832C39.8856 28.125 40.1072 27.6483 39.9489 27.2166Z" fill="#0084DF"></path> <path d="M39.7555 13.5771L26.4226 0.244199C26.0976 -0.0807893 25.5693 -0.0807893 25.2443 0.244199L0.245176 25.2433C-0.0798128 25.5683 -0.0798128 26.0966 0.245176 26.4216L13.5781 39.7545C13.7397 39.9179 13.9531 39.9995 14.1664 39.9995C14.3798 39.9995 14.593 39.9179 14.7564 39.7562L39.7555 14.757C40.0805 14.4304 40.0805 13.9037 39.7555 13.5771ZM9.75656 23.0901L6.42332 26.4233C6.25996 26.5849 6.04669 26.6666 5.83334 26.6666C5.61999 26.6666 5.40671 26.585 5.24336 26.4233C4.91837 26.0983 4.91837 25.5699 5.24336 25.245L8.5766 21.9117C8.90159 21.5867 9.42993 21.5867 9.75492 21.9117C10.0799 22.2368 10.0815 22.7634 9.75656 23.0901ZM24.1477 24.1483C23.5577 24.7383 22.7561 25.0217 21.8644 25.0217C20.3911 25.0217 18.6695 24.2501 17.2296 22.8084C16.1763 21.7551 15.4363 20.4951 15.148 19.2619C14.828 17.8869 15.0914 16.6903 15.8896 15.8904C16.688 15.0904 17.8846 14.827 19.2611 15.1487C20.4945 15.4371 21.7544 16.1754 22.8077 17.2303C25.1227 19.5435 25.7126 22.5834 24.1477 24.1483ZM34.7557 14.757L31.4224 18.0903C31.2591 18.2519 31.0458 18.3336 30.8325 18.3336C30.6191 18.3336 30.4058 18.252 30.2425 18.0903C29.9175 17.7653 29.9175 17.237 30.2425 16.912L33.5757 13.5787C33.9007 13.2537 34.4291 13.2537 34.754 13.5787C35.079 13.9037 35.0807 14.4304 34.7557 14.757Z" fill="#0084DF"></path> </g> <defs> <clipPath id="clip0"> <rect width="40" height="40" fill="white"></rect> </clipPath> </defs> </svg> 