<?xml version="1.0" encoding="UTF-8"?> <svg xmlns="http://www.w3.org/2000/svg" width="110" height="110" viewBox="0 0 110 110" fill="none"> <g filter="url(#filter0_d)"> <rect x="20" y="10" width="70" height="70" rx="10" fill="url(#paint0_linear)"></rect> <g clip-path="url(#clip0)"> <path d="M56.7167 28.1168L38.4 25.3334C37.55 25.2001 36.6833 25.4334 36.0333 25.9834C35.3833 26.5501 35 27.3668 35 28.2168V63.3334C35 64.2501 35.75 65.0001 36.6667 65.0001H42.0833V56.2501C42.0833 54.6334 43.3833 53.3334 45 53.3334H49.1667C50.7833 53.3334 52.0833 54.6334 52.0833 56.2501V65.0001H59.1667V31.0001C59.1667 29.5668 58.1333 28.3501 56.7167 28.1168ZM44.1667 49.5834H41.6667C40.9767 49.5834 40.4167 49.0234 40.4167 48.3334C40.4167 47.6434 40.9767 47.0834 41.6667 47.0834H44.1667C44.8567 47.0834 45.4167 47.6434 45.4167 48.3334C45.4167 49.0234 44.8567 49.5834 44.1667 49.5834ZM44.1667 44.5834H41.6667C40.9767 44.5834 40.4167 44.0234 40.4167 43.3334C40.4167 42.6434 40.9767 42.0834 41.6667 42.0834H44.1667C44.8567 42.0834 45.4167 42.6434 45.4167 43.3334C45.4167 44.0234 44.8567 44.5834 44.1667 44.5834ZM44.1667 39.5834H41.6667C40.9767 39.5834 40.4167 39.0234 40.4167 38.3334C40.4167 37.6434 40.9767 37.0834 41.6667 37.0834H44.1667C44.8567 37.0834 45.4167 37.6434 45.4167 38.3334C45.4167 39.0234 44.8567 39.5834 44.1667 39.5834ZM44.1667 34.5834H41.6667C40.9767 34.5834 40.4167 34.0234 40.4167 33.3334C40.4167 32.6434 40.9767 32.0834 41.6667 32.0834H44.1667C44.8567 32.0834 45.4167 32.6434 45.4167 33.3334C45.4167 34.0234 44.8567 34.5834 44.1667 34.5834ZM52.5 49.5834H50C49.31 49.5834 48.75 49.0234 48.75 48.3334C48.75 47.6434 49.31 47.0834 50 47.0834H52.5C53.19 47.0834 53.75 47.6434 53.75 48.3334C53.75 49.0234 53.19 49.5834 52.5 49.5834ZM52.5 44.5834H50C49.31 44.5834 48.75 44.0234 48.75 43.3334C48.75 42.6434 49.31 42.0834 50 42.0834H52.5C53.19 42.0834 53.75 42.6434 53.75 43.3334C53.75 44.0234 53.19 44.5834 52.5 44.5834ZM52.5 39.5834H50C49.31 39.5834 48.75 39.0234 48.75 38.3334C48.75 37.6434 49.31 37.0834 50 37.0834H52.5C53.19 37.0834 53.75 37.6434 53.75 38.3334C53.75 39.0234 53.19 39.5834 52.5 39.5834ZM52.5 34.5834H50C49.31 34.5834 48.75 34.0234 48.75 33.3334C48.75 32.6434 49.31 32.0834 50 32.0834H52.5C53.19 32.0834 53.75 32.6434 53.75 33.3334C53.75 34.0234 53.19 34.5834 52.5 34.5834Z" fill="#212129"></path> <path d="M72.7 43.07L60.8333 40.585V65H72.0833C73.6916 65 75 63.6916 75 62.0833V45.92C75 44.5433 74.0617 43.3716 72.7 43.07ZM68.75 60H66.25C65.56 60 65 59.44 65 58.75C65 58.06 65.56 57.5 66.25 57.5H68.75C69.44 57.5 70 58.06 70 58.75C70 59.44 69.44 60 68.75 60ZM68.75 55H66.25C65.56 55 65 54.44 65 53.75C65 53.06 65.56 52.5 66.25 52.5H68.75C69.44 52.5 70 53.06 70 53.75C70 54.44 69.44 55 68.75 55ZM68.75 50H66.25C65.56 50 65 49.44 65 48.75C65 48.06 65.56 47.5 66.25 47.5H68.75C69.44 47.5 70 48.06 70 48.75C70 49.44 69.44 50 68.75 50Z" fill="#212129"></path> </g> </g> <defs> <filter id="filter0_d" x="0" y="0" width="110" height="110" filterUnits="userSpaceOnUse" color-interpolation-filters="sRGB"> <feFlood flood-opacity="0" result="BackgroundImageFix"></feFlood> <feColorMatrix in="SourceAlpha" type="matrix" values="0 0 0 0 0 0 0 0 0 0 0 0 0 0 0 0 0 0 127 0"></feColorMatrix> <feOffset dy="10"></feOffset> <feGaussianBlur stdDeviation="10"></feGaussianBlur> <feColorMatrix type="matrix" values="0 0 0 0 0 0 0 0 0 0.517647 0 0 0 0 0.87451 0 0 0 0.3 0"></feColorMatrix> <feBlend mode="normal" in2="BackgroundImageFix" result="effect1_dropShadow"></feBlend> <feBlend mode="normal" in="SourceGraphic" in2="effect1_dropShadow" result="shape"></feBlend> </filter> <linearGradient id="paint0_linear" x1="90" y1="10" x2="26" y2="80" gradientUnits="userSpaceOnUse"> <stop stop-color="#1696EE"></stop> <stop offset="1" stop-color="#086AAE"></stop> </linearGradient> <clipPath id="clip0"> <rect width="40" height="40" fill="white" transform="translate(35 25)"></rect> </clipPath> </defs> </svg> 