<?xml version="1.0" encoding="UTF-8"?> <svg xmlns="http://www.w3.org/2000/svg" width="20" height="20" viewBox="0 0 20 20" fill="none"> <circle cx="10" cy="10" r="10" fill="#1AC67A"></circle> <path fill-rule="evenodd" clip-rule="evenodd" d="M14.6926 12.2537C14.4466 12.1222 13.2369 11.4872 13.0113 11.3994C12.786 11.3118 12.6218 11.2682 12.4579 11.531C12.2938 11.7937 11.8224 12.3853 11.6788 12.5604C11.5352 12.7357 11.3918 12.7577 11.1457 12.6261C10.8996 12.4948 10.1069 12.2174 9.16708 11.3228C8.43573 10.6266 7.94197 9.7667 7.79837 9.50393C7.65501 9.24091 7.79716 9.11251 7.90632 8.96805C8.17266 8.61507 8.43937 8.245 8.52136 8.06987C8.60347 7.89461 8.56235 7.74122 8.50074 7.60984C8.43937 7.47846 7.94731 6.18601 7.74234 5.66009C7.54246 5.14829 7.33979 5.21741 7.18867 5.20939C7.04531 5.20175 6.88121 5.2002 6.71711 5.2002C6.55313 5.2002 6.28655 5.26582 6.06096 5.52884C5.83549 5.79173 5.19995 6.42689 5.19995 7.71935C5.19995 9.0118 6.08158 10.2604 6.20456 10.4356C6.32754 10.6109 7.93955 13.2631 10.4076 14.4004C10.9946 14.6712 11.4528 14.8326 11.8103 14.9536C12.3997 15.1535 12.9359 15.1252 13.3599 15.0577C13.8327 14.9822 14.8155 14.4224 15.0207 13.8091C15.2257 13.1957 15.2257 12.67 15.164 12.5604C15.1027 12.4509 14.9386 12.3853 14.6926 12.2537Z" fill="#212129"></path> </svg> 