<?xml version="1.0" encoding="UTF-8"?> <svg xmlns="http://www.w3.org/2000/svg" width="50" height="50" viewBox="0 0 50 50" fill="none"> <path d="M25.0351 25.779C24.5358 25.779 24.0425 25.7531 23.5562 25.7031V34.7203H26.5137V25.7031C26.0273 25.7531 25.5341 25.779 25.0351 25.779Z" fill="#0084DF"></path> <path d="M25.035 22.8214C31.327 22.8214 36.446 17.7029 36.446 11.4109C36.446 5.11894 31.327 0 25.035 0C18.7431 0 13.6241 5.11894 13.6241 11.4109C13.6241 17.7025 18.7431 22.8214 25.035 22.8214V22.8214ZM21.7517 15.0196C21.7517 14.2033 22.414 13.541 23.2303 13.541H25.035C25.2147 13.541 25.3608 13.3949 25.3608 13.2153C25.3608 13.0356 25.2147 12.8895 25.035 12.8895C23.2246 12.8895 21.7517 11.4166 21.7517 9.60617C21.7517 8.32787 22.4868 7.21817 23.5561 6.67648V6.21109C23.5561 5.39436 24.2183 4.73251 25.035 4.73251C25.8518 4.73251 26.5136 5.39436 26.5136 6.21109V6.32324H26.8394C27.6561 6.32324 28.318 6.98509 28.318 7.80182C28.318 8.61855 27.6561 9.28078 26.8394 9.28078H25.035C24.8554 9.28078 24.7093 9.42688 24.7093 9.60655C24.7093 9.78584 24.8554 9.93195 25.035 9.93195C26.8451 9.93195 28.318 11.4048 28.318 13.2153C28.318 14.4939 27.5829 15.6033 26.5136 16.1453V16.6107C26.5136 17.4271 25.8518 18.0893 25.035 18.0893C24.2183 18.0893 23.5561 17.4271 23.5561 16.6107V16.4986H23.2303C22.414 16.4986 21.7517 15.8363 21.7517 15.0196Z" fill="#0084DF"></path> <path d="M20.9831 31.0384H20.9824C20.9908 30.5688 20.9831 27.076 18.9888 24.4431C18.7862 24.1757 18.5638 23.9171 18.3182 23.6714C17.3279 22.6811 16.1266 22.0578 14.9818 21.6657C12.9112 20.9561 11.0249 21.0046 10.9039 21.0088C10.1254 21.0343 9.5005 21.6592 9.47494 22.4377C9.46846 22.6254 9.35516 27.0696 12.1376 29.852C13.9397 31.6541 16.4375 32.2412 18.026 32.43V34.7203H20.9831V31.0384Z" fill="#0084DF"></path> <path d="M37.9326 29.852C40.715 27.0696 40.6013 22.6254 40.5952 22.4377C40.5697 21.6592 39.9445 21.0343 39.1663 21.0088C39.0453 21.0046 37.159 20.9561 35.0883 21.6657C33.9435 22.0578 32.7423 22.6811 31.752 23.6714C31.5063 23.9171 31.2839 24.1757 31.0814 24.4431C29.0867 27.076 29.079 30.5692 29.0878 31.0384H29.0867V34.7207H32.0442V32.43C33.6326 32.2412 36.1305 31.6541 37.9326 29.852Z" fill="#0084DF"></path> <path d="M31.9202 37.6777H15.1306L17.4194 48.8189C17.5606 49.5063 18.166 50 18.8679 50H31.2023C31.9042 50 32.5092 49.5063 32.6508 48.8189L34.9396 37.6777H31.9202Z" fill="#0084DF"></path> </svg> 